  0
SECTION
  2
HEADER
  9
$MEASUREMENT
  70
  1
  9
$INSUNITS
  70
  4
  0
ENDSEC
  0
SECTION
  2
TABLES
  0
TABLE
  2
LTYPE
 70
     1
  0
LTYPE
  2
CONTINUOUS
 70
    64
  3
Ausgezogene Linie
 72
    65
 73
     0
 40
0.0
  0
ENDTAB
  0
TABLE
  2
LAYER
 70
     3
  0
LAYER
  2
Kontur
 70
    64
 62
     7
  6
CONTINUOUS
  0
LAYER
  2
Gravur
 70
    64
 62
     7
  6
CONTINUOUS
  0
LAYER
  2
Bezugspunkte
 70
    64
 62
     1
  6
CONTINUOUS
  0
ENDTAB
  0
TABLE
  2
STYLE
 70
     1
  0
STYLE
  2
TXT
 70
    64
 40
0.0
 41
1.0
 50
0.0
 71
     0
 42
3.500000
  3
TXT
  0
ENDTAB
  0
ENDSEC
  0
SECTION
  2
BLOCKS
  0
ENDSEC
  0
SECTION
  2
ENTITIES
  0
LINE
  8
Kontur
 62
   7
 39
0.100
  6
CONTINUOUS
 10
43.43400
 20
221.87000
 30
 0
 11
1.01600
 21
221.87000
  0
ARC
  8
Kontur
 62
   7
 39
0.100
  6
CONTINUOUS
 10
1.01600
 20
220.85400
 30
 0
 40
1.01600
 50
90.00000
 51
180.00000
  0
LINE
  8
Kontur
 62
   7
 39
0.100
  6
CONTINUOUS
 10
0.00000
 20
220.85400
 30
 0
 11
0.00000
 21
1.01600
  0
ARC
  8
Kontur
 62
   7
 39
0.100
  6
CONTINUOUS
 10
1.01600
 20
1.01600
 30
 0
 40
1.01600
 50
180.00000
 51
270.00000
  0
LINE
  8
Kontur
 62
   7
 39
0.100
  6
CONTINUOUS
 10
1.01600
 20
0.00000
 30
 0
 11
43.43400
 21
0.00000
  0
ARC
  8
Kontur
 62
   7
 39
0.100
  6
CONTINUOUS
 10
43.43400
 20
1.01600
 30
 0
 40
1.01600
 50
-90.00000
 51
0.00000
  0
LINE
  8
Kontur
 62
   7
 39
0.100
  6
CONTINUOUS
 10
44.45000
 20
1.01600
 30
 0
 11
44.45000
 21
220.85400
  0
ARC
  8
Kontur
 62
   7
 39
0.100
  6
CONTINUOUS
 10
43.43400
 20
220.85400
 30
 0
 40
1.01600
 50
0.00000
 51
90.00000
  0
LINE
  8
Gravur
 62
   255
 39
0.400
  6
CONTINUOUS
 10
15.52400
 20
5.04400
 30
 0
 11
15.52400
 21
7.44400
  0
LINE
  8
Gravur
 62
   255
 39
0.400
  6
CONTINUOUS
 10
15.52400
 20
7.44400
 30
 0
 11
16.00400
 21
7.44400
  0
ARC
  8
Gravur
 62
   255
 39
0.400
  6
CONTINUOUS
 10
16.00700
 20
6.84700
 30
 0
 40
0.59700
 50
359.71208
 51
90.28792
  0
LINE
  8
Gravur
 62
   255
 39
0.400
  6
CONTINUOUS
 10
16.60400
 20
6.84400
 30
 0
 11
16.60400
 21
5.64400
  0
ARC
  8
Gravur
 62
   255
 39
0.400
  6
CONTINUOUS
 10
16.00700
 20
5.64100
 30
 0
 40
0.59700
 50
269.71208
 51
0.28792
  0
LINE
  8
Gravur
 62
   255
 39
0.400
  6
CONTINUOUS
 10
16.00400
 20
5.04400
 30
 0
 11
15.52400
 21
5.04400
  0
ARC
  8
Gravur
 62
   255
 39
0.400
  6
CONTINUOUS
 10
17.88400
 20
5.64400
 30
 0
 40
0.60000
 50
180.00000
 51
360.00000
  0
ARC
  8
Gravur
 62
   255
 39
0.400
  6
CONTINUOUS
 10
17.88700
 20
5.64700
 30
 0
 40
0.59700
 50
-0.28792
 51
90.28792
  0
ARC
  8
Gravur
 62
   255
 39
0.400
  6
CONTINUOUS
 10
17.88400
 20
6.84400
 30
 0
 40
0.60000
 50
90.00000
 51
-90.00000
  0
ARC
  8
Gravur
 62
   255
 39
0.400
  6
CONTINUOUS
 10
17.88700
 20
6.84700
 30
 0
 40
0.59700
 50
359.71208
 51
90.28792
  0
LINE
  8
Gravur
 62
   255
 39
0.400
  6
CONTINUOUS
 10
19.14400
 20
7.44400
 30
 0
 11
19.14400
 21
5.04400
  0
LINE
  8
Gravur
 62
   255
 39
0.400
  6
CONTINUOUS
 10
19.14400
 20
5.04400
 30
 0
 11
19.92400
 21
5.04400
  0
LINE
  8
Gravur
 62
   255
 39
0.400
  6
CONTINUOUS
 10
20.60400
 20
6.24400
 30
 0
 11
22.28400
 21
6.24400
  0
LINE
  8
Gravur
 62
   255
 39
0.400
  6
CONTINUOUS
 10
22.96400
 20
5.04400
 30
 0
 11
22.96400
 21
6.60400
  0
LINE
  8
Gravur
 62
   255
 39
0.400
  6
CONTINUOUS
 10
22.96400
 20
6.60400
 30
 0
 11
22.96400
 21
6.12400
  0
ARC
  8
Gravur
 62
   255
 39
0.400
  6
CONTINUOUS
 10
23.44400
 20
6.12400
 30
 0
 40
0.48000
 50
360.00000
 51
180.00000
  0
LINE
  8
Gravur
 62
   255
 39
0.400
  6
CONTINUOUS
 10
23.92400
 20
6.12400
 30
 0
 11
23.92400
 21
5.04400
  0
LINE
  8
Gravur
 62
   255
 39
0.400
  6
CONTINUOUS
 10
23.92400
 20
5.04400
 30
 0
 11
23.92400
 21
6.12400
  0
ARC
  8
Gravur
 62
   255
 39
0.400
  6
CONTINUOUS
 10
24.40400
 20
6.12400
 30
 0
 40
0.48000
 50
360.00000
 51
180.00000
  0
LINE
  8
Gravur
 62
   255
 39
0.400
  6
CONTINUOUS
 10
24.88400
 20
6.12400
 30
 0
 11
24.88400
 21
5.04400
  0
ARC
  8
Gravur
 62
   255
 39
0.400
  6
CONTINUOUS
 10
26.04400
 20
6.19500
 30
 0
 40
0.50900
 50
379.39632
 51
160.60368
  0
ARC
  8
Gravur
 62
   255
 39
0.400
  6
CONTINUOUS
 10
26.36100
 20
6.34200
 30
 0
 40
0.16400
 50
285.22443
 51
7.68672
  0
LINE
  8
Gravur
 62
   255
 39
0.400
  6
CONTINUOUS
 10
26.40400
 20
6.18400
 30
 0
 11
25.86400
 21
6.00400
  0
ARC
  8
Gravur
 62
   255
 39
0.400
  6
CONTINUOUS
 10
26.07700
 20
5.54700
 30
 0
 40
0.50400
 50
114.98943
 51
273.07257
  0
ARC
  8
Gravur
 62
   255
 39
0.400
  6
CONTINUOUS
 10
26.08800
 20
5.48000
 30
 0
 40
0.43600
 50
-87.89835
 51
-2.10165
  0
LINE
  8
Gravur
 62
   255
 39
0.400
  6
CONTINUOUS
 10
26.52400
 20
5.46400
 30
 0
 11
26.52400
 21
6.36400
  0
LINE
  8
Gravur
 62
   255
 39
0.400
  6
CONTINUOUS
 10
26.52400
 20
6.36400
 30
 0
 11
26.52400
 21
5.46400
  0
ARC
  8
Gravur
 62
   255
 39
0.400
  6
CONTINUOUS
 10
27.15700
 20
5.54700
 30
 0
 40
0.63800
 50
-172.52990
 51
-128.00094
  0
LINE
  8
Gravur
 62
   255
 39
0.400
  6
CONTINUOUS
 10
27.44400
 20
5.04400
 30
 0
 11
27.44400
 21
6.60400
  0
LINE
  8
Gravur
 62
   255
 39
0.400
  6
CONTINUOUS
 10
27.44400
 20
6.60400
 30
 0
 11
27.44400
 21
6.12400
  0
ARC
  8
Gravur
 62
   255
 39
0.400
  6
CONTINUOUS
 10
27.92400
 20
6.12400
 30
 0
 40
0.48000
 50
360.00000
 51
180.00000
  0
LINE
  8
Gravur
 62
   255
 39
0.400
  6
CONTINUOUS
 10
28.40400
 20
6.12400
 30
 0
 11
28.40400
 21
5.04400
  0
LINE
  8
Gravur
 62
   255
 39
0.400
  6
CONTINUOUS
 10
10.41700
 20
196.16600
 30
 0
 11
10.95700
 21
196.76600
  0
LINE
  8
Gravur
 62
   255
 39
0.400
  6
CONTINUOUS
 10
10.95700
 20
196.76600
 30
 0
 11
10.95700
 21
194.36600
  0
LINE
  8
Gravur
 62
   255
 39
0.400
  6
CONTINUOUS
 10
12.63700
 20
196.76600
 30
 0
 11
11.73700
 21
196.76600
  0
LINE
  8
Gravur
 62
   255
 39
0.400
  6
CONTINUOUS
 10
11.73700
 20
196.76600
 30
 0
 11
11.73700
 21
195.74600
  0
ARC
  8
Gravur
 62
   255
 39
0.400
  6
CONTINUOUS
 10
12.15100
 20
195.48700
 30
 0
 40
0.48800
 50
355.17782
 51
147.96974
  0
LINE
  8
Gravur
 62
   255
 39
0.400
  6
CONTINUOUS
 10
12.63700
 20
195.44600
 30
 0
 11
12.63700
 21
194.84600
  0
ARC
  8
Gravur
 62
   255
 39
0.400
  6
CONTINUOUS
 10
12.13900
 20
194.86400
 30
 0
 40
0.49800
 50
272.07003
 51
-2.07003
  0
ARC
  8
Gravur
 62
   255
 39
0.400
  6
CONTINUOUS
 10
12.17700
 20
194.92600
 30
 0
 40
0.56000
 50
182.04541
 51
-92.04541
  0
LINE
  8
Gravur
 62
   255
 39
0.400
  6
CONTINUOUS
 10
13.31700
 20
196.76600
 30
 0
 11
13.85700
 21
194.36600
  0
LINE
  8
Gravur
 62
   255
 39
0.400
  6
CONTINUOUS
 10
13.85700
 20
194.36600
 30
 0
 11
14.39700
 21
196.76600
  0
LINE
  8
Gravur
 62
   255
 39
0.400
  6
CONTINUOUS
 10
10.96500
 20
29.81900
 30
 0
 11
10.82900
 21
44.87300
  0
LINE
  8
Gravur
 62
   255
 39
0.400
  6
CONTINUOUS
 10
33.52700
 20
44.88700
 30
 0
 11
33.52700
 21
30.05700
  0
LINE
  8
Gravur
 62
   255
 39
0.400
  6
CONTINUOUS
 10
27.59800
 20
50.03300
 30
 0
 11
15.98800
 21
50.03300
  0
LINE
  8
Gravur
 62
   255
 39
0.400
  6
CONTINUOUS
 10
27.76900
 20
24.37600
 30
 0
 11
16.70300
 21
24.46400
  0
LINE
  8
Gravur
 62
   255
 39
0.400
  6
CONTINUOUS
 10
15.62100
 20
57.99600
 30
 0
 11
15.62100
 21
60.39600
  0
LINE
  8
Gravur
 62
   255
 39
0.400
  6
CONTINUOUS
 10
15.62100
 20
60.39600
 30
 0
 11
16.40100
 21
58.71600
  0
LINE
  8
Gravur
 62
   255
 39
0.400
  6
CONTINUOUS
 10
16.40100
 20
58.71600
 30
 0
 11
17.18100
 21
60.39600
  0
LINE
  8
Gravur
 62
   255
 39
0.400
  6
CONTINUOUS
 10
17.18100
 20
60.39600
 30
 0
 11
17.18100
 21
57.99600
  0
LINE
  8
Gravur
 62
   255
 39
0.400
  6
CONTINUOUS
 10
17.86100
 20
59.55600
 30
 0
 11
17.86100
 21
58.47600
  0
ARC
  8
Gravur
 62
   255
 39
0.400
  6
CONTINUOUS
 10
18.34100
 20
58.47600
 30
 0
 40
0.48000
 50
180.00000
 51
360.00000
  0
LINE
  8
Gravur
 62
   255
 39
0.400
  6
CONTINUOUS
 10
18.82100
 20
58.47600
 30
 0
 11
18.82100
 21
57.99600
  0
LINE
  8
Gravur
 62
   255
 39
0.400
  6
CONTINUOUS
 10
18.82100
 20
57.99600
 30
 0
 11
18.82100
 21
59.55600
  0
LINE
  8
Gravur
 62
   255
 39
0.400
  6
CONTINUOUS
 10
19.48100
 20
60.39600
 30
 0
 11
19.48100
 21
58.29600
  0
ARC
  8
Gravur
 62
   255
 39
0.400
  6
CONTINUOUS
 10
19.81600
 20
58.33100
 30
 0
 40
0.33700
 50
-174.03551
 51
-95.96449
  0
LINE
  8
Gravur
 62
   255
 39
0.400
  6
CONTINUOUS
 10
20.44100
 20
59.55600
 30
 0
 11
20.98100
 21
59.55600
  0
LINE
  8
Gravur
 62
   255
 39
0.400
  6
CONTINUOUS
 10
20.68100
 20
60.39600
 30
 0
 11
20.68100
 21
58.23600
  0
ARC
  8
Gravur
 62
   255
 39
0.400
  6
CONTINUOUS
 10
20.97900
 20
58.30100
 30
 0
 40
0.30500
 50
-167.69532
 51
-89.62430
  0
LINE
  8
Gravur
 62
   255
 39
0.400
  6
CONTINUOUS
 10
21.66100
 20
60.39600
 30
 0
 11
21.66100
 21
60.21600
  0
LINE
  8
Gravur
 62
   255
 39
0.400
  6
CONTINUOUS
 10
21.66100
 20
59.55600
 30
 0
 11
21.66100
 21
57.99600
  0
LINE
  8
Gravur
 62
   255
 39
0.400
  6
CONTINUOUS
 10
22.34100
 20
57.15600
 30
 0
 11
22.34100
 21
59.55600
  0
LINE
  8
Gravur
 62
   255
 39
0.400
  6
CONTINUOUS
 10
22.34100
 20
59.55600
 30
 0
 11
22.34100
 21
59.07600
  0
ARC
  8
Gravur
 62
   255
 39
0.400
  6
CONTINUOUS
 10
22.82100
 20
59.07600
 30
 0
 40
0.48000
 50
360.00000
 51
180.00000
  0
LINE
  8
Gravur
 62
   255
 39
0.400
  6
CONTINUOUS
 10
23.30100
 20
59.07600
 30
 0
 11
23.30100
 21
58.47600
  0
ARC
  8
Gravur
 62
   255
 39
0.400
  6
CONTINUOUS
 10
22.82100
 20
58.47600
 30
 0
 40
0.48000
 50
180.00000
 51
0.00000
  0
LINE
  8
Gravur
 62
   255
 39
0.400
  6
CONTINUOUS
 10
23.96100
 20
60.39600
 30
 0
 11
23.96100
 21
58.29600
  0
ARC
  8
Gravur
 62
   255
 39
0.400
  6
CONTINUOUS
 10
24.29600
 20
58.33100
 30
 0
 40
0.33700
 50
-174.03551
 51
-95.96449
  0
LINE
  8
Gravur
 62
   255
 39
0.400
  6
CONTINUOUS
 10
24.94100
 20
58.83600
 30
 0
 11
25.90100
 21
58.83600
  0
LINE
  8
Gravur
 62
   255
 39
0.400
  6
CONTINUOUS
 10
25.90100
 20
58.83600
 30
 0
 11
25.90100
 21
59.13600
  0
ARC
  8
Gravur
 62
   255
 39
0.400
  6
CONTINUOUS
 10
25.42100
 20
59.09200
 30
 0
 40
0.48200
 50
5.23748
 51
174.76252
  0
LINE
  8
Gravur
 62
   255
 39
0.400
  6
CONTINUOUS
 10
24.94100
 20
59.13600
 30
 0
 11
24.94100
 21
58.41600
  0
ARC
  8
Gravur
 62
   255
 39
0.400
  6
CONTINUOUS
 10
25.42100
 20
58.47800
 30
 0
 40
0.48400
 50
-172.64005
 51
-7.35995
  0
ARC
  8
Gravur
 62
   255
 39
0.400
  6
CONTINUOUS
 10
27.04000
 20
58.50300
 30
 0
 40
0.50400
 50
-155.72556
 51
-50.32574
  0
ARC
  8
Gravur
 62
   255
 39
0.400
  6
CONTINUOUS
 10
27.17400
 20
58.43200
 30
 0
 40
0.36700
 50
-59.38414
 51
69.73656
  0
LINE
  8
Gravur
 62
   255
 39
0.400
  6
CONTINUOUS
 10
27.30100
 20
58.77600
 30
 0
 11
26.76100
 21
58.89600
  0
ARC
  8
Gravur
 62
   255
 39
0.400
  6
CONTINUOUS
 10
26.85100
 20
59.15400
 30
 0
 40
0.27300
 50
171.15819
 51
-109.23067
  0
ARC
  8
Gravur
 62
   255
 39
0.400
  6
CONTINUOUS
 10
27.07200
 20
59.08200
 30
 0
 40
0.50400
 50
395.70958
 51
166.92870
  0
LINE
  8
Gravur
 62
   255
 39
0.400
  6
CONTINUOUS
 10
26.16400
 20
195.51900
 30
 0
 11
27.84400
 21
195.51900
  0
LINE
  8
Gravur
 62
   255
 39
0.400
  6
CONTINUOUS
 10
28.50400
 20
196.11900
 30
 0
 11
29.04400
 21
196.71900
  0
LINE
  8
Gravur
 62
   255
 39
0.400
  6
CONTINUOUS
 10
29.04400
 20
196.71900
 30
 0
 11
29.04400
 21
194.31900
  0
LINE
  8
Gravur
 62
   255
 39
0.400
  6
CONTINUOUS
 10
30.72400
 20
196.71900
 30
 0
 11
29.82400
 21
196.71900
  0
LINE
  8
Gravur
 62
   255
 39
0.400
  6
CONTINUOUS
 10
29.82400
 20
196.71900
 30
 0
 11
29.82400
 21
195.69900
  0
ARC
  8
Gravur
 62
   255
 39
0.400
  6
CONTINUOUS
 10
30.23800
 20
195.44000
 30
 0
 40
0.48800
 50
355.17782
 51
147.96974
  0
LINE
  8
Gravur
 62
   255
 39
0.400
  6
CONTINUOUS
 10
30.72400
 20
195.39900
 30
 0
 11
30.72400
 21
194.79900
  0
ARC
  8
Gravur
 62
   255
 39
0.400
  6
CONTINUOUS
 10
30.22600
 20
194.81700
 30
 0
 40
0.49800
 50
272.07003
 51
-2.07003
  0
ARC
  8
Gravur
 62
   255
 39
0.400
  6
CONTINUOUS
 10
30.26400
 20
194.87900
 30
 0
 40
0.56000
 50
182.04541
 51
-92.04541
  0
LINE
  8
Gravur
 62
   255
 39
0.400
  6
CONTINUOUS
 10
31.40400
 20
196.71900
 30
 0
 11
31.94400
 21
194.31900
  0
LINE
  8
Gravur
 62
   255
 39
0.400
  6
CONTINUOUS
 10
31.94400
 20
194.31900
 30
 0
 11
32.48400
 21
196.71900
  0
CIRCLE
  8
Kontur
 62
   7
 39
0.100
  6
CONTINUOUS
 10
38.10000
 20
6.35000
 30
 0
 40
2.75000
  0
CIRCLE
  8
Kontur
 62
   7
 39
0.100
  6
CONTINUOUS
 10
38.10000
 20
215.52000
 30
 0
 40
2.75000
  0
CIRCLE
  8
Kontur
 62
   7
 39
0.100
  6
CONTINUOUS
 10
6.35000
 20
215.52000
 30
 0
 40
2.75000
  0
CIRCLE
  8
Kontur
 62
   7
 39
0.100
  6
CONTINUOUS
 10
6.35000
 20
6.35000
 30
 0
 40
2.75000
  0
CIRCLE
  8
Kontur
 62
   7
 39
0.100
  6
CONTINUOUS
 10
29.96800
 20
188.26400
 30
 0
 40
3.25000
  0
CIRCLE
  8
Kontur
 62
   7
 39
0.100
  6
CONTINUOUS
 10
12.10800
 20
188.39700
 30
 0
 40
3.25000
  0
ARC
  8
Kontur
 62
   7
 39
0.100
  6
CONTINUOUS
 10
36.89200
 20
151.40900
 30
 0
 40
0.50000
 50
316.05341
 51
133.94659
  0
LINE
  8
Kontur
 62
   7
 39
0.100
  6
CONTINUOUS
 10
37.25200
 20
151.06200
 30
 0
 11
37.25200
 21
92.37600
  0
ARC
  8
Kontur
 62
   7
 39
0.100
  6
CONTINUOUS
 10
36.89200
 20
92.02900
 30
 0
 40
0.50000
 50
226.05341
 51
43.94659
  0
LINE
  8
Kontur
 62
   7
 39
0.100
  6
CONTINUOUS
 10
36.54500
 20
91.66900
 30
 0
 11
7.85900
 21
91.66900
  0
ARC
  8
Kontur
 62
   7
 39
0.100
  6
CONTINUOUS
 10
7.51200
 20
92.02900
 30
 0
 40
0.50000
 50
136.05341
 51
-46.05341
  0
LINE
  8
Kontur
 62
   7
 39
0.100
  6
CONTINUOUS
 10
7.15200
 20
92.37600
 30
 0
 11
7.15200
 21
151.06200
  0
ARC
  8
Kontur
 62
   7
 39
0.100
  6
CONTINUOUS
 10
7.51200
 20
151.40900
 30
 0
 40
0.50000
 50
46.05341
 51
-136.05341
  0
LINE
  8
Kontur
 62
   7
 39
0.100
  6
CONTINUOUS
 10
7.85900
 20
151.76900
 30
 0
 11
36.54500
 21
151.76900
  0
CIRCLE
  8
Kontur
 62
   7
 39
0.100
  6
CONTINUOUS
 10
33.14800
 20
50.12200
 30
 0
 40
4.75000
  0
CIRCLE
  8
Kontur
 62
   7
 39
0.100
  6
CONTINUOUS
 10
10.92200
 20
24.72200
 30
 0
 40
4.75000
  0
CIRCLE
  8
Kontur
 62
   7
 39
0.100
  6
CONTINUOUS
 10
33.14800
 20
24.72200
 30
 0
 40
4.75000
  0
CIRCLE
  8
Kontur
 62
   7
 39
0.100
  6
CONTINUOUS
 10
10.92200
 20
50.12200
 30
 0
 40
4.75000
  0
LINE
  8
Kontur
 62
   7
 39
0.100
  6
CONTINUOUS
 10
-1.00000
 20
0.00000
 30
 0
 11
1.00000
 21
0.00000
  0
LINE
  8
Kontur
 62
   7
 39
0.100
  6
CONTINUOUS
 10
0.00000
 20
-1.00000
 30
 0
 11
0.00000
 21
1.00000
  0
LINE
  8
Kontur
 62
   7
 39
0.100
  6
CONTINUOUS
 10
20.96400
 20
6.24400
 30
 0
 11
22.96400
 21
6.24400
  0
LINE
  8
Kontur
 62
   7
 39
0.100
  6
CONTINUOUS
 10
21.96400
 20
5.24400
 30
 0
 11
21.96400
 21
7.24400
  0
LINE
  8
Kontur
 62
   7
 39
0.100
  6
CONTINUOUS
 10
37.10000
 20
6.35000
 30
 0
 11
39.10000
 21
6.35000
  0
LINE
  8
Kontur
 62
   7
 39
0.100
  6
CONTINUOUS
 10
38.10000
 20
5.35000
 30
 0
 11
38.10000
 21
7.35000
  0
LINE
  8
Kontur
 62
   7
 39
0.100
  6
CONTINUOUS
 10
37.10000
 20
215.52000
 30
 0
 11
39.10000
 21
215.52000
  0
LINE
  8
Kontur
 62
   7
 39
0.100
  6
CONTINUOUS
 10
38.10000
 20
214.52000
 30
 0
 11
38.10000
 21
216.52000
  0
LINE
  8
Kontur
 62
   7
 39
0.100
  6
CONTINUOUS
 10
5.35000
 20
215.52000
 30
 0
 11
7.35000
 21
215.52000
  0
LINE
  8
Kontur
 62
   7
 39
0.100
  6
CONTINUOUS
 10
6.35000
 20
214.52000
 30
 0
 11
6.35000
 21
216.52000
  0
LINE
  8
Kontur
 62
   7
 39
0.100
  6
CONTINUOUS
 10
5.35000
 20
6.35000
 30
 0
 11
7.35000
 21
6.35000
  0
LINE
  8
Kontur
 62
   7
 39
0.100
  6
CONTINUOUS
 10
6.35000
 20
5.35000
 30
 0
 11
6.35000
 21
7.35000
  0
LINE
  8
Kontur
 62
   7
 39
0.100
  6
CONTINUOUS
 10
28.96800
 20
188.26400
 30
 0
 11
30.96800
 21
188.26400
  0
LINE
  8
Kontur
 62
   7
 39
0.100
  6
CONTINUOUS
 10
29.96800
 20
187.26400
 30
 0
 11
29.96800
 21
189.26400
  0
LINE
  8
Kontur
 62
   7
 39
0.100
  6
CONTINUOUS
 10
11.40700
 20
195.56600
 30
 0
 11
13.40700
 21
195.56600
  0
LINE
  8
Kontur
 62
   7
 39
0.100
  6
CONTINUOUS
 10
12.40700
 20
194.56600
 30
 0
 11
12.40700
 21
196.56600
  0
LINE
  8
Kontur
 62
   7
 39
0.100
  6
CONTINUOUS
 10
11.10800
 20
188.39700
 30
 0
 11
13.10800
 21
188.39700
  0
LINE
  8
Kontur
 62
   7
 39
0.100
  6
CONTINUOUS
 10
12.10800
 20
187.39700
 30
 0
 11
12.10800
 21
189.39700
  0
LINE
  8
Kontur
 62
   7
 39
0.100
  6
CONTINUOUS
 10
21.20200
 20
121.71900
 30
 0
 11
23.20200
 21
121.71900
  0
LINE
  8
Kontur
 62
   7
 39
0.100
  6
CONTINUOUS
 10
22.20200
 20
120.71900
 30
 0
 11
22.20200
 21
122.71900
  0
LINE
  8
Kontur
 62
   7
 39
0.100
  6
CONTINUOUS
 10
32.14800
 20
50.12200
 30
 0
 11
34.14800
 21
50.12200
  0
LINE
  8
Kontur
 62
   7
 39
0.100
  6
CONTINUOUS
 10
33.14800
 20
49.12200
 30
 0
 11
33.14800
 21
51.12200
  0
LINE
  8
Kontur
 62
   7
 39
0.100
  6
CONTINUOUS
 10
9.92200
 20
24.72200
 30
 0
 11
11.92200
 21
24.72200
  0
LINE
  8
Kontur
 62
   7
 39
0.100
  6
CONTINUOUS
 10
10.92200
 20
23.72200
 30
 0
 11
10.92200
 21
25.72200
  0
LINE
  8
Kontur
 62
   7
 39
0.100
  6
CONTINUOUS
 10
32.14800
 20
24.72200
 30
 0
 11
34.14800
 21
24.72200
  0
LINE
  8
Kontur
 62
   7
 39
0.100
  6
CONTINUOUS
 10
33.14800
 20
23.72200
 30
 0
 11
33.14800
 21
25.72200
  0
LINE
  8
Kontur
 62
   7
 39
0.100
  6
CONTINUOUS
 10
9.92200
 20
50.12200
 30
 0
 11
11.92200
 21
50.12200
  0
LINE
  8
Kontur
 62
   7
 39
0.100
  6
CONTINUOUS
 10
10.92200
 20
49.12200
 30
 0
 11
10.92200
 21
51.12200
  0
LINE
  8
Kontur
 62
   7
 39
0.100
  6
CONTINUOUS
 10
9.89700
 20
37.34600
 30
 0
 11
11.89700
 21
37.34600
  0
LINE
  8
Kontur
 62
   7
 39
0.100
  6
CONTINUOUS
 10
10.89700
 20
36.34600
 30
 0
 11
10.89700
 21
38.34600
  0
LINE
  8
Kontur
 62
   7
 39
0.100
  6
CONTINUOUS
 10
32.52700
 20
37.47200
 30
 0
 11
34.52700
 21
37.47200
  0
LINE
  8
Kontur
 62
   7
 39
0.100
  6
CONTINUOUS
 10
33.52700
 20
36.47200
 30
 0
 11
33.52700
 21
38.47200
  0
LINE
  8
Kontur
 62
   7
 39
0.100
  6
CONTINUOUS
 10
20.79300
 20
50.03300
 30
 0
 11
22.79300
 21
50.03300
  0
LINE
  8
Kontur
 62
   7
 39
0.100
  6
CONTINUOUS
 10
21.79300
 20
49.03300
 30
 0
 11
21.79300
 21
51.03300
  0
LINE
  8
Kontur
 62
   7
 39
0.100
  6
CONTINUOUS
 10
21.23600
 20
24.42000
 30
 0
 11
23.23600
 21
24.42000
  0
LINE
  8
Kontur
 62
   7
 39
0.100
  6
CONTINUOUS
 10
22.23600
 20
23.42000
 30
 0
 11
22.23600
 21
25.42000
  0
LINE
  8
Kontur
 62
   7
 39
0.100
  6
CONTINUOUS
 10
20.58100
 20
59.19600
 30
 0
 11
22.58100
 21
59.19600
  0
LINE
  8
Kontur
 62
   7
 39
0.100
  6
CONTINUOUS
 10
21.58100
 20
58.19600
 30
 0
 11
21.58100
 21
60.19600
  0
LINE
  8
Kontur
 62
   7
 39
0.100
  6
CONTINUOUS
 10
28.32400
 20
195.51900
 30
 0
 11
30.32400
 21
195.51900
  0
LINE
  8
Kontur
 62
   7
 39
0.100
  6
CONTINUOUS
 10
29.32400
 20
194.51900
 30
 0
 11
29.32400
 21
196.51900
  0
ENDSEC
  0
EOF
