  0
SECTION
  2
HEADER
  9
$MEASUREMENT
  70
  1
  9
$INSUNITS
  70
  4
  0
ENDSEC
  0
SECTION
  2
TABLES
  0
TABLE
  2
LTYPE
 70
     1
  0
LTYPE
  2
CONTINUOUS
 70
    64
  3
Ausgezogene Linie
 72
    65
 73
     0
 40
0.0
  0
ENDTAB
  0
TABLE
  2
LAYER
 70
     3
  0
LAYER
  2
Kontur
 70
    64
 62
     7
  6
CONTINUOUS
  0
LAYER
  2
Gravur
 70
    64
 62
     7
  6
CONTINUOUS
  0
LAYER
  2
Bezugspunkte
 70
    64
 62
     1
  6
CONTINUOUS
  0
ENDTAB
  0
TABLE
  2
STYLE
 70
     1
  0
STYLE
  2
TXT
 70
    64
 40
0.0
 41
1.0
 50
0.0
 71
     0
 42
3.500000
  3
TXT
  0
ENDTAB
  0
ENDSEC
  0
SECTION
  2
BLOCKS
  0
ENDSEC
  0
SECTION
  2
ENTITIES
  0
LINE
  8
Kontur
 62
   7
 39
0.100
  6
CONTINUOUS
 10
176.00000
 20
221.86900
 30
 0
 11
0.00000
 21
221.86900
  0
LINE
  8
Kontur
 62
   7
 39
0.100
  6
CONTINUOUS
 10
0.00000
 20
221.86900
 30
 0
 11
0.00000
 21
221.86900
  0
LINE
  8
Kontur
 62
   7
 39
0.100
  6
CONTINUOUS
 10
0.00000
 20
221.86900
 30
 0
 11
0.00000
 21
0.00000
  0
LINE
  8
Kontur
 62
   7
 39
0.100
  6
CONTINUOUS
 10
0.00000
 20
0.00000
 30
 0
 11
0.00000
 21
0.00000
  0
LINE
  8
Kontur
 62
   7
 39
0.100
  6
CONTINUOUS
 10
0.00000
 20
0.00000
 30
 0
 11
176.00000
 21
0.00000
  0
LINE
  8
Kontur
 62
   7
 39
0.100
  6
CONTINUOUS
 10
176.00000
 20
0.00000
 30
 0
 11
176.00000
 21
0.00000
  0
LINE
  8
Kontur
 62
   7
 39
0.100
  6
CONTINUOUS
 10
176.00000
 20
0.00000
 30
 0
 11
176.00000
 21
221.86900
  0
LINE
  8
Kontur
 62
   7
 39
0.100
  6
CONTINUOUS
 10
176.00000
 20
221.86900
 30
 0
 11
176.00000
 21
221.86900
  0
LINE
  8
Gravur
 62
   255
 39
0.600
  6
CONTINUOUS
 10
66.67500
 20
205.48500
 30
 0
 11
66.67500
 21
197.92500
  0
LINE
  8
Gravur
 62
   255
 39
0.400
  6
CONTINUOUS
 10
59.65700
 20
211.93600
 30
 0
 11
58.55300
 21
211.93600
  0
LINE
  8
Gravur
 62
   255
 39
0.400
  6
CONTINUOUS
 10
58.55300
 20
211.93600
 30
 0
 11
58.55300
 21
209.17600
  0
LINE
  8
Gravur
 62
   255
 39
0.400
  6
CONTINUOUS
 10
58.55300
 20
209.17600
 30
 0
 11
58.55300
 21
210.55600
  0
LINE
  8
Gravur
 62
   255
 39
0.400
  6
CONTINUOUS
 10
58.55300
 20
210.55600
 30
 0
 11
59.24300
 21
210.55600
  0
LINE
  8
Gravur
 62
   255
 39
0.400
  6
CONTINUOUS
 10
60.43900
 20
211.93600
 30
 0
 11
60.43900
 21
209.17600
  0
LINE
  8
Gravur
 62
   255
 39
0.400
  6
CONTINUOUS
 10
61.22100
 20
209.17600
 30
 0
 11
61.22100
 21
211.93600
  0
LINE
  8
Gravur
 62
   255
 39
0.400
  6
CONTINUOUS
 10
61.22100
 20
211.93600
 30
 0
 11
62.46300
 21
209.17600
  0
LINE
  8
Gravur
 62
   255
 39
0.400
  6
CONTINUOUS
 10
62.46300
 20
209.17600
 30
 0
 11
62.46300
 21
211.93600
  0
LINE
  8
Gravur
 62
   255
 39
0.400
  6
CONTINUOUS
 10
64.48700
 20
211.93600
 30
 0
 11
63.24500
 21
211.93600
  0
LINE
  8
Gravur
 62
   255
 39
0.400
  6
CONTINUOUS
 10
63.24500
 20
211.93600
 30
 0
 11
63.24500
 21
209.17600
  0
LINE
  8
Gravur
 62
   255
 39
0.400
  6
CONTINUOUS
 10
63.24500
 20
209.17600
 30
 0
 11
64.48700
 21
209.17600
  0
LINE
  8
Gravur
 62
   255
 39
0.400
  6
CONTINUOUS
 10
63.24500
 20
210.55600
 30
 0
 11
64.28000
 21
210.55600
  0
LINE
  8
Gravur
 62
   255
 39
0.400
  6
CONTINUOUS
 10
67.47700
 20
211.93600
 30
 0
 11
68.71900
 21
211.93600
  0
LINE
  8
Gravur
 62
   255
 39
0.400
  6
CONTINUOUS
 10
68.71900
 20
211.93600
 30
 0
 11
68.09800
 21
211.93600
  0
LINE
  8
Gravur
 62
   255
 39
0.400
  6
CONTINUOUS
 10
68.09800
 20
211.93600
 30
 0
 11
68.09800
 21
209.17600
  0
LINE
  8
Gravur
 62
   255
 39
0.400
  6
CONTINUOUS
 10
69.50100
 20
211.93600
 30
 0
 11
69.50100
 21
209.79700
  0
ARC
  8
Gravur
 62
   255
 39
0.400
  6
CONTINUOUS
 10
70.12200
 20
209.79700
 30
 0
 40
0.62100
 50
180.00000
 51
360.00000
  0
LINE
  8
Gravur
 62
   255
 39
0.400
  6
CONTINUOUS
 10
70.74300
 20
209.79700
 30
 0
 11
70.74300
 21
211.93600
  0
LINE
  8
Gravur
 62
   255
 39
0.400
  6
CONTINUOUS
 10
71.52500
 20
209.17600
 30
 0
 11
71.52500
 21
211.93600
  0
LINE
  8
Gravur
 62
   255
 39
0.400
  6
CONTINUOUS
 10
71.52500
 20
211.93600
 30
 0
 11
72.76700
 21
209.17600
  0
LINE
  8
Gravur
 62
   255
 39
0.400
  6
CONTINUOUS
 10
72.76700
 20
209.17600
 30
 0
 11
72.76700
 21
211.93600
  0
LINE
  8
Gravur
 62
   255
 39
0.400
  6
CONTINUOUS
 10
74.79100
 20
211.93600
 30
 0
 11
73.54900
 21
211.93600
  0
LINE
  8
Gravur
 62
   255
 39
0.400
  6
CONTINUOUS
 10
73.54900
 20
211.93600
 30
 0
 11
73.54900
 21
209.17600
  0
LINE
  8
Gravur
 62
   255
 39
0.400
  6
CONTINUOUS
 10
73.54900
 20
209.17600
 30
 0
 11
74.79100
 21
209.17600
  0
LINE
  8
Gravur
 62
   255
 39
0.400
  6
CONTINUOUS
 10
73.54900
 20
210.55600
 30
 0
 11
74.58400
 21
210.55600
  0
LINE
  8
Gravur
 62
   255
 39
0.600
  6
CONTINUOUS
 10
21.58900
 20
208.00000
 30
 0
 11
21.58900
 21
196.00000
  0
ARC
  8
Gravur
 62
   255
 39
0.400
  6
CONTINUOUS
 10
11.07600
 20
211.33800
 30
 0
 40
0.59800
 50
0.00000
 51
180.00000
  0
LINE
  8
Gravur
 62
   255
 39
0.400
  6
CONTINUOUS
 10
10.47800
 20
211.33800
 30
 0
 11
10.47800
 21
209.77400
  0
ARC
  8
Gravur
 62
   255
 39
0.400
  6
CONTINUOUS
 10
11.07600
 20
209.77400
 30
 0
 40
0.59800
 50
180.00000
 51
360.00000
  0
ARC
  8
Gravur
 62
   255
 39
0.400
  6
CONTINUOUS
 10
13.07700
 20
209.79700
 30
 0
 40
0.62100
 50
180.00000
 51
360.00000
  0
LINE
  8
Gravur
 62
   255
 39
0.400
  6
CONTINUOUS
 10
13.69800
 20
209.79700
 30
 0
 11
13.69800
 21
211.31500
  0
ARC
  8
Gravur
 62
   255
 39
0.400
  6
CONTINUOUS
 10
13.07700
 20
211.31500
 30
 0
 40
0.62100
 50
0.00000
 51
180.00000
  0
LINE
  8
Gravur
 62
   255
 39
0.400
  6
CONTINUOUS
 10
12.45600
 20
211.31500
 30
 0
 11
12.45600
 21
209.79700
  0
LINE
  8
Gravur
 62
   255
 39
0.400
  6
CONTINUOUS
 10
14.48000
 20
209.17600
 30
 0
 11
15.30800
 21
211.93600
  0
LINE
  8
Gravur
 62
   255
 39
0.400
  6
CONTINUOUS
 10
15.30800
 20
211.93600
 30
 0
 11
16.13600
 21
209.17600
  0
LINE
  8
Gravur
 62
   255
 39
0.400
  6
CONTINUOUS
 10
14.75600
 20
210.00400
 30
 0
 11
15.86000
 21
210.00400
  0
LINE
  8
Gravur
 62
   255
 39
0.400
  6
CONTINUOUS
 10
16.89500
 20
209.17600
 30
 0
 11
16.89500
 21
211.93600
  0
LINE
  8
Gravur
 62
   255
 39
0.400
  6
CONTINUOUS
 10
16.89500
 20
211.93600
 30
 0
 11
17.51600
 21
211.93600
  0
ARC
  8
Gravur
 62
   255
 39
0.400
  6
CONTINUOUS
 10
17.51600
 20
211.24600
 30
 0
 40
0.69000
 50
270.00000
 51
90.00000
  0
LINE
  8
Gravur
 62
   255
 39
0.400
  6
CONTINUOUS
 10
17.51600
 20
210.55600
 30
 0
 11
16.89500
 21
210.55600
  0
LINE
  8
Gravur
 62
   255
 39
0.400
  6
CONTINUOUS
 10
16.89500
 20
210.55600
 30
 0
 11
17.51600
 21
210.55600
  0
LINE
  8
Gravur
 62
   255
 39
0.400
  6
CONTINUOUS
 10
17.51600
 20
210.55600
 30
 0
 11
18.20600
 21
209.17600
  0
ARC
  8
Gravur
 62
   255
 39
0.400
  6
CONTINUOUS
 10
19.67800
 20
209.86600
 30
 0
 40
0.69000
 50
180.00000
 51
360.00000
  0
ARC
  8
Gravur
 62
   255
 39
0.400
  6
CONTINUOUS
 10
19.68200
 20
209.87000
 30
 0
 40
0.68600
 50
-0.33408
 51
90.33408
  0
ARC
  8
Gravur
 62
   255
 39
0.400
  6
CONTINUOUS
 10
19.67800
 20
211.24600
 30
 0
 40
0.69000
 50
90.00000
 51
-90.00000
  0
ARC
  8
Gravur
 62
   255
 39
0.400
  6
CONTINUOUS
 10
19.68200
 20
211.25000
 30
 0
 40
0.68600
 50
359.66592
 51
90.33408
  0
LINE
  8
Gravur
 62
   255
 39
0.400
  6
CONTINUOUS
 10
22.39200
 20
211.93600
 30
 0
 11
21.15000
 21
211.93600
  0
LINE
  8
Gravur
 62
   255
 39
0.400
  6
CONTINUOUS
 10
21.15000
 20
211.93600
 30
 0
 11
21.15000
 21
209.17600
  0
LINE
  8
Gravur
 62
   255
 39
0.400
  6
CONTINUOUS
 10
21.15000
 20
209.17600
 30
 0
 11
22.39200
 21
209.17600
  0
LINE
  8
Gravur
 62
   255
 39
0.400
  6
CONTINUOUS
 10
21.15000
 20
210.55600
 30
 0
 11
22.18500
 21
210.55600
  0
LINE
  8
Gravur
 62
   255
 39
0.400
  6
CONTINUOUS
 10
25.38200
 20
211.93600
 30
 0
 11
26.62400
 21
211.93600
  0
LINE
  8
Gravur
 62
   255
 39
0.400
  6
CONTINUOUS
 10
26.62400
 20
211.93600
 30
 0
 11
26.00300
 21
211.93600
  0
LINE
  8
Gravur
 62
   255
 39
0.400
  6
CONTINUOUS
 10
26.00300
 20
211.93600
 30
 0
 11
26.00300
 21
209.17600
  0
LINE
  8
Gravur
 62
   255
 39
0.400
  6
CONTINUOUS
 10
27.40600
 20
211.93600
 30
 0
 11
27.40600
 21
209.79700
  0
ARC
  8
Gravur
 62
   255
 39
0.400
  6
CONTINUOUS
 10
28.02700
 20
209.79700
 30
 0
 40
0.62100
 50
180.00000
 51
360.00000
  0
LINE
  8
Gravur
 62
   255
 39
0.400
  6
CONTINUOUS
 10
28.64800
 20
209.79700
 30
 0
 11
28.64800
 21
211.93600
  0
LINE
  8
Gravur
 62
   255
 39
0.400
  6
CONTINUOUS
 10
29.43000
 20
209.17600
 30
 0
 11
29.43000
 21
211.93600
  0
LINE
  8
Gravur
 62
   255
 39
0.400
  6
CONTINUOUS
 10
29.43000
 20
211.93600
 30
 0
 11
30.67200
 21
209.17600
  0
LINE
  8
Gravur
 62
   255
 39
0.400
  6
CONTINUOUS
 10
30.67200
 20
209.17600
 30
 0
 11
30.67200
 21
211.93600
  0
LINE
  8
Gravur
 62
   255
 39
0.400
  6
CONTINUOUS
 10
32.69600
 20
211.93600
 30
 0
 11
31.45400
 21
211.93600
  0
LINE
  8
Gravur
 62
   255
 39
0.400
  6
CONTINUOUS
 10
31.45400
 20
211.93600
 30
 0
 11
31.45400
 21
209.17600
  0
LINE
  8
Gravur
 62
   255
 39
0.400
  6
CONTINUOUS
 10
31.45400
 20
209.17600
 30
 0
 11
32.69600
 21
209.17600
  0
LINE
  8
Gravur
 62
   255
 39
0.400
  6
CONTINUOUS
 10
31.45400
 20
210.55600
 30
 0
 11
32.48900
 21
210.55600
  0
LINE
  8
Gravur
 62
   255
 39
0.400
  6
CONTINUOUS
 10
10.43900
 20
158.96500
 30
 0
 11
11.06000
 21
158.96500
  0
ARC
  8
Gravur
 62
   255
 39
0.400
  6
CONTINUOUS
 10
11.06000
 20
159.65500
 30
 0
 40
0.69000
 50
-90.00000
 51
90.00000
  0
LINE
  8
Gravur
 62
   255
 39
0.400
  6
CONTINUOUS
 10
11.06000
 20
160.34500
 30
 0
 11
10.43900
 21
160.34500
  0
LINE
  8
Gravur
 62
   255
 39
0.400
  6
CONTINUOUS
 10
10.43900
 20
160.34500
 30
 0
 11
10.43900
 21
157.58500
  0
LINE
  8
Gravur
 62
   255
 39
0.400
  6
CONTINUOUS
 10
12.53200
 20
160.34500
 30
 0
 11
12.53200
 21
158.20600
  0
ARC
  8
Gravur
 62
   255
 39
0.400
  6
CONTINUOUS
 10
13.15300
 20
158.20600
 30
 0
 40
0.62100
 50
180.00000
 51
360.00000
  0
LINE
  8
Gravur
 62
   255
 39
0.400
  6
CONTINUOUS
 10
13.77400
 20
158.20600
 30
 0
 11
13.77400
 21
160.34500
  0
LINE
  8
Gravur
 62
   255
 39
0.400
  6
CONTINUOUS
 10
14.53300
 20
160.34500
 30
 0
 11
14.53300
 21
157.58500
  0
LINE
  8
Gravur
 62
   255
 39
0.400
  6
CONTINUOUS
 10
14.53300
 20
157.58500
 30
 0
 11
15.43000
 21
157.58500
  0
ARC
  8
Gravur
 62
   255
 39
0.400
  6
CONTINUOUS
 10
16.90200
 20
158.27500
 30
 0
 40
0.69000
 50
180.00000
 51
360.00000
  0
ARC
  8
Gravur
 62
   255
 39
0.400
  6
CONTINUOUS
 10
16.90600
 20
158.27900
 30
 0
 40
0.68600
 50
-0.33408
 51
90.33408
  0
ARC
  8
Gravur
 62
   255
 39
0.400
  6
CONTINUOUS
 10
16.90200
 20
159.65500
 30
 0
 40
0.69000
 50
90.00000
 51
-90.00000
  0
ARC
  8
Gravur
 62
   255
 39
0.400
  6
CONTINUOUS
 10
16.90600
 20
159.65900
 30
 0
 40
0.68600
 50
359.66592
 51
90.33408
  0
LINE
  8
Gravur
 62
   255
 39
0.400
  6
CONTINUOUS
 10
19.61600
 20
160.34500
 30
 0
 11
18.37400
 21
160.34500
  0
LINE
  8
Gravur
 62
   255
 39
0.400
  6
CONTINUOUS
 10
18.37400
 20
160.34500
 30
 0
 11
18.37400
 21
157.58500
  0
LINE
  8
Gravur
 62
   255
 39
0.400
  6
CONTINUOUS
 10
18.37400
 20
157.58500
 30
 0
 11
19.61600
 21
157.58500
  0
LINE
  8
Gravur
 62
   255
 39
0.400
  6
CONTINUOUS
 10
18.37400
 20
158.96500
 30
 0
 11
19.40900
 21
158.96500
  0
LINE
  8
Gravur
 62
   255
 39
0.400
  6
CONTINUOUS
 10
22.60600
 20
160.34500
 30
 0
 11
23.22700
 21
157.58500
  0
LINE
  8
Gravur
 62
   255
 39
0.400
  6
CONTINUOUS
 10
23.22700
 20
157.58500
 30
 0
 11
23.84800
 21
160.34500
  0
LINE
  8
Gravur
 62
   255
 39
0.400
  6
CONTINUOUS
 10
23.84800
 20
160.34500
 30
 0
 11
24.46900
 21
157.58500
  0
LINE
  8
Gravur
 62
   255
 39
0.400
  6
CONTINUOUS
 10
24.46900
 20
157.58500
 30
 0
 11
25.09000
 21
160.34500
  0
LINE
  8
Gravur
 62
   255
 39
0.400
  6
CONTINUOUS
 10
25.87200
 20
160.34500
 30
 0
 11
25.87200
 21
157.58500
  0
LINE
  8
Gravur
 62
   255
 39
0.400
  6
CONTINUOUS
 10
26.65400
 20
157.58500
 30
 0
 11
26.65400
 21
160.34500
  0
LINE
  8
Gravur
 62
   255
 39
0.400
  6
CONTINUOUS
 10
26.65400
 20
160.34500
 30
 0
 11
27.20600
 21
160.34500
  0
ARC
  8
Gravur
 62
   255
 39
0.400
  6
CONTINUOUS
 10
27.21000
 20
159.65900
 30
 0
 40
0.68600
 50
359.66592
 51
90.33408
  0
LINE
  8
Gravur
 62
   255
 39
0.400
  6
CONTINUOUS
 10
27.89600
 20
159.65500
 30
 0
 11
27.89600
 21
158.27500
  0
ARC
  8
Gravur
 62
   255
 39
0.400
  6
CONTINUOUS
 10
27.21000
 20
158.27100
 30
 0
 40
0.68600
 50
269.66592
 51
0.33408
  0
LINE
  8
Gravur
 62
   255
 39
0.400
  6
CONTINUOUS
 10
27.20600
 20
157.58500
 30
 0
 11
26.65400
 21
157.58500
  0
LINE
  8
Gravur
 62
   255
 39
0.400
  6
CONTINUOUS
 10
28.67800
 20
160.34500
 30
 0
 11
29.92000
 21
160.34500
  0
LINE
  8
Gravur
 62
   255
 39
0.400
  6
CONTINUOUS
 10
29.92000
 20
160.34500
 30
 0
 11
29.29900
 21
160.34500
  0
LINE
  8
Gravur
 62
   255
 39
0.400
  6
CONTINUOUS
 10
29.29900
 20
160.34500
 30
 0
 11
29.29900
 21
157.58500
  0
LINE
  8
Gravur
 62
   255
 39
0.400
  6
CONTINUOUS
 10
30.70200
 20
160.34500
 30
 0
 11
30.70200
 21
157.58500
  0
LINE
  8
Gravur
 62
   255
 39
0.400
  6
CONTINUOUS
 10
30.70200
 20
158.96500
 30
 0
 11
31.94400
 21
158.96500
  0
LINE
  8
Gravur
 62
   255
 39
0.400
  6
CONTINUOUS
 10
31.94400
 20
157.58500
 30
 0
 11
31.94400
 21
160.34500
  0
LINE
  8
Gravur
 62
   255
 39
0.400
  6
CONTINUOUS
 10
16.97000
 20
156.16000
 30
 0
 11
16.97000
 21
153.40000
  0
LINE
  8
Gravur
 62
   255
 39
0.400
  6
CONTINUOUS
 10
16.97000
 20
153.40000
 30
 0
 11
17.86700
 21
153.40000
  0
LINE
  8
Gravur
 62
   255
 39
0.400
  6
CONTINUOUS
 10
18.64900
 20
154.36600
 30
 0
 11
19.75300
 21
154.36600
  0
LINE
  8
Gravur
 62
   255
 39
0.400
  6
CONTINUOUS
 10
19.75300
 20
154.36600
 30
 0
 11
19.75300
 21
154.71100
  0
ARC
  8
Gravur
 62
   255
 39
0.400
  6
CONTINUOUS
 10
19.20100
 20
154.65300
 30
 0
 40
0.55500
 50
5.99820
 51
174.00180
  0
LINE
  8
Gravur
 62
   255
 39
0.400
  6
CONTINUOUS
 10
18.64900
 20
154.71100
 30
 0
 11
18.64900
 21
153.88300
  0
ARC
  8
Gravur
 62
   255
 39
0.400
  6
CONTINUOUS
 10
19.20100
 20
153.95700
 30
 0
 40
0.55700
 50
-172.36457
 51
-7.63543
  0
LINE
  8
Gravur
 62
   255
 39
0.400
  6
CONTINUOUS
 10
20.53500
 20
153.40000
 30
 0
 11
20.53500
 21
155.19400
  0
LINE
  8
Gravur
 62
   255
 39
0.400
  6
CONTINUOUS
 10
20.53500
 20
155.19400
 30
 0
 11
20.53500
 21
154.64200
  0
ARC
  8
Gravur
 62
   255
 39
0.400
  6
CONTINUOUS
 10
21.08700
 20
154.64200
 30
 0
 40
0.55200
 50
360.00000
 51
180.00000
  0
LINE
  8
Gravur
 62
   255
 39
0.400
  6
CONTINUOUS
 10
21.63900
 20
154.64200
 30
 0
 11
21.63900
 21
153.40000
  0
ARC
  8
Gravur
 62
   255
 39
0.400
  6
CONTINUOUS
 10
22.92500
 20
153.04200
 30
 0
 40
0.60400
 50
-146.62590
 51
-5.33216
  0
LINE
  8
Gravur
 62
   255
 39
0.400
  6
CONTINUOUS
 10
23.52500
 20
152.98600
 30
 0
 11
23.52500
 21
155.19400
  0
LINE
  8
Gravur
 62
   255
 39
0.400
  6
CONTINUOUS
 10
23.52500
 20
155.19400
 30
 0
 11
23.52500
 21
154.71100
  0
ARC
  8
Gravur
 62
   255
 39
0.400
  6
CONTINUOUS
 10
22.97300
 20
154.65300
 30
 0
 40
0.55500
 50
5.99820
 51
174.00180
  0
LINE
  8
Gravur
 62
   255
 39
0.400
  6
CONTINUOUS
 10
22.42100
 20
154.71100
 30
 0
 11
22.42100
 21
154.02100
  0
ARC
  8
Gravur
 62
   255
 39
0.400
  6
CONTINUOUS
 10
23.03000
 20
154.00600
 30
 0
 40
0.60900
 50
178.58906
 51
264.62660
  0
ARC
  8
Gravur
 62
   255
 39
0.400
  6
CONTINUOUS
 10
22.99000
 20
153.93800
 30
 0
 40
0.53800
 50
-91.80986
 51
-5.86960
  0
LINE
  8
Gravur
 62
   255
 39
0.400
  6
CONTINUOUS
 10
24.30700
 20
153.40000
 30
 0
 11
24.30700
 21
156.16000
  0
LINE
  8
Gravur
 62
   255
 39
0.400
  6
CONTINUOUS
 10
24.30700
 20
156.16000
 30
 0
 11
24.30700
 21
154.84900
  0
ARC
  8
Gravur
 62
   255
 39
0.400
  6
CONTINUOUS
 10
24.84500
 20
154.66900
 30
 0
 40
0.56700
 50
357.26888
 51
161.50118
  0
LINE
  8
Gravur
 62
   255
 39
0.400
  6
CONTINUOUS
 10
25.41100
 20
154.64200
 30
 0
 11
25.41100
 21
153.40000
  0
LINE
  8
Gravur
 62
   255
 39
0.400
  6
CONTINUOUS
 10
16.11400
 20
217.51900
 30
 0
 11
16.73500
 21
214.75900
  0
LINE
  8
Gravur
 62
   255
 39
0.400
  6
CONTINUOUS
 10
16.73500
 20
214.75900
 30
 0
 11
17.35600
 21
217.51900
  0
ARC
  8
Gravur
 62
   255
 39
0.400
  6
CONTINUOUS
 10
18.75900
 20
215.38000
 30
 0
 40
0.62100
 50
180.00000
 51
360.00000
  0
LINE
  8
Gravur
 62
   255
 39
0.400
  6
CONTINUOUS
 10
19.38000
 20
215.38000
 30
 0
 11
19.38000
 21
216.89800
  0
ARC
  8
Gravur
 62
   255
 39
0.400
  6
CONTINUOUS
 10
18.75900
 20
216.89800
 30
 0
 40
0.62100
 50
0.00000
 51
180.00000
  0
LINE
  8
Gravur
 62
   255
 39
0.400
  6
CONTINUOUS
 10
18.13800
 20
216.89800
 30
 0
 11
18.13800
 21
215.38000
  0
LINE
  8
Gravur
 62
   255
 39
0.400
  6
CONTINUOUS
 10
20.13900
 20
217.51900
 30
 0
 11
20.13900
 21
214.75900
  0
LINE
  8
Gravur
 62
   255
 39
0.400
  6
CONTINUOUS
 10
20.13900
 20
214.75900
 30
 0
 11
21.03600
 21
214.75900
  0
LINE
  8
Gravur
 62
   255
 39
0.400
  6
CONTINUOUS
 10
21.81800
 20
217.51900
 30
 0
 11
23.06000
 21
217.51900
  0
LINE
  8
Gravur
 62
   255
 39
0.400
  6
CONTINUOUS
 10
23.06000
 20
217.51900
 30
 0
 11
22.43900
 21
217.51900
  0
LINE
  8
Gravur
 62
   255
 39
0.400
  6
CONTINUOUS
 10
22.43900
 20
217.51900
 30
 0
 11
22.43900
 21
214.75900
  0
LINE
  8
Gravur
 62
   255
 39
0.400
  6
CONTINUOUS
 10
23.84200
 20
214.75900
 30
 0
 11
24.67000
 21
217.51900
  0
LINE
  8
Gravur
 62
   255
 39
0.400
  6
CONTINUOUS
 10
24.67000
 20
217.51900
 30
 0
 11
25.49800
 21
214.75900
  0
LINE
  8
Gravur
 62
   255
 39
0.400
  6
CONTINUOUS
 10
24.11800
 20
215.58700
 30
 0
 11
25.22200
 21
215.58700
  0
ARC
  8
Gravur
 62
   255
 39
0.400
  6
CONTINUOUS
 10
26.90100
 20
216.89800
 30
 0
 40
0.62100
 50
0.00000
 51
180.00000
  0
LINE
  8
Gravur
 62
   255
 39
0.400
  6
CONTINUOUS
 10
26.28000
 20
216.89800
 30
 0
 11
26.28000
 21
215.38000
  0
ARC
  8
Gravur
 62
   255
 39
0.400
  6
CONTINUOUS
 10
26.90100
 20
215.38000
 30
 0
 40
0.62100
 50
180.00000
 51
360.00000
  0
LINE
  8
Gravur
 62
   255
 39
0.400
  6
CONTINUOUS
 10
27.52200
 20
215.38000
 30
 0
 11
27.52200
 21
216.07000
  0
LINE
  8
Gravur
 62
   255
 39
0.400
  6
CONTINUOUS
 10
27.52200
 20
216.07000
 30
 0
 11
26.90100
 21
216.07000
  0
LINE
  8
Gravur
 62
   255
 39
0.400
  6
CONTINUOUS
 10
29.54600
 20
217.51900
 30
 0
 11
28.30400
 21
217.51900
  0
LINE
  8
Gravur
 62
   255
 39
0.400
  6
CONTINUOUS
 10
28.30400
 20
217.51900
 30
 0
 11
28.30400
 21
214.75900
  0
LINE
  8
Gravur
 62
   255
 39
0.400
  6
CONTINUOUS
 10
28.30400
 20
214.75900
 30
 0
 11
29.54600
 21
214.75900
  0
LINE
  8
Gravur
 62
   255
 39
0.400
  6
CONTINUOUS
 10
28.30400
 20
216.13900
 30
 0
 11
29.33900
 21
216.13900
  0
LINE
  8
Gravur
 62
   255
 39
0.400
  6
CONTINUOUS
 10
30.32800
 20
216.13900
 30
 0
 11
32.26000
 21
216.13900
  0
ARC
  8
Gravur
 62
   255
 39
0.400
  6
CONTINUOUS
 10
33.64000
 20
216.92100
 30
 0
 40
0.59800
 50
0.00000
 51
180.00000
  0
LINE
  8
Gravur
 62
   255
 39
0.400
  6
CONTINUOUS
 10
33.04200
 20
216.92100
 30
 0
 11
33.04200
 21
215.35700
  0
ARC
  8
Gravur
 62
   255
 39
0.400
  6
CONTINUOUS
 10
33.64000
 20
215.35700
 30
 0
 40
0.59800
 50
180.00000
 51
360.00000
  0
ARC
  8
Gravur
 62
   255
 39
0.400
  6
CONTINUOUS
 10
35.64100
 20
215.38000
 30
 0
 40
0.62100
 50
180.00000
 51
360.00000
  0
LINE
  8
Gravur
 62
   255
 39
0.400
  6
CONTINUOUS
 10
36.26200
 20
215.38000
 30
 0
 11
36.26200
 21
216.89800
  0
ARC
  8
Gravur
 62
   255
 39
0.400
  6
CONTINUOUS
 10
35.64100
 20
216.89800
 30
 0
 40
0.62100
 50
0.00000
 51
180.00000
  0
LINE
  8
Gravur
 62
   255
 39
0.400
  6
CONTINUOUS
 10
35.02000
 20
216.89800
 30
 0
 11
35.02000
 21
215.38000
  0
LINE
  8
Gravur
 62
   255
 39
0.400
  6
CONTINUOUS
 10
37.04400
 20
214.75900
 30
 0
 11
37.04400
 21
217.51900
  0
LINE
  8
Gravur
 62
   255
 39
0.400
  6
CONTINUOUS
 10
37.04400
 20
217.51900
 30
 0
 11
38.28600
 21
214.75900
  0
LINE
  8
Gravur
 62
   255
 39
0.400
  6
CONTINUOUS
 10
38.28600
 20
214.75900
 30
 0
 11
38.28600
 21
217.51900
  0
LINE
  8
Gravur
 62
   255
 39
0.400
  6
CONTINUOUS
 10
39.06800
 20
217.51900
 30
 0
 11
40.31000
 21
217.51900
  0
LINE
  8
Gravur
 62
   255
 39
0.400
  6
CONTINUOUS
 10
40.31000
 20
217.51900
 30
 0
 11
39.68900
 21
217.51900
  0
LINE
  8
Gravur
 62
   255
 39
0.400
  6
CONTINUOUS
 10
39.68900
 20
217.51900
 30
 0
 11
39.68900
 21
214.75900
  0
LINE
  8
Gravur
 62
   255
 39
0.400
  6
CONTINUOUS
 10
41.06900
 20
214.75900
 30
 0
 11
41.06900
 21
217.51900
  0
LINE
  8
Gravur
 62
   255
 39
0.400
  6
CONTINUOUS
 10
41.06900
 20
217.51900
 30
 0
 11
41.69000
 21
217.51900
  0
ARC
  8
Gravur
 62
   255
 39
0.400
  6
CONTINUOUS
 10
41.69000
 20
216.82900
 30
 0
 40
0.69000
 50
270.00000
 51
90.00000
  0
LINE
  8
Gravur
 62
   255
 39
0.400
  6
CONTINUOUS
 10
41.69000
 20
216.13900
 30
 0
 11
41.06900
 21
216.13900
  0
LINE
  8
Gravur
 62
   255
 39
0.400
  6
CONTINUOUS
 10
41.06900
 20
216.13900
 30
 0
 11
41.69000
 21
216.13900
  0
LINE
  8
Gravur
 62
   255
 39
0.400
  6
CONTINUOUS
 10
41.69000
 20
216.13900
 30
 0
 11
42.38000
 21
214.75900
  0
ARC
  8
Gravur
 62
   255
 39
0.400
  6
CONTINUOUS
 10
43.78300
 20
215.38000
 30
 0
 40
0.62100
 50
180.00000
 51
360.00000
  0
LINE
  8
Gravur
 62
   255
 39
0.400
  6
CONTINUOUS
 10
44.40400
 20
215.38000
 30
 0
 11
44.40400
 21
216.89800
  0
ARC
  8
Gravur
 62
   255
 39
0.400
  6
CONTINUOUS
 10
43.78300
 20
216.89800
 30
 0
 40
0.62100
 50
0.00000
 51
180.00000
  0
LINE
  8
Gravur
 62
   255
 39
0.400
  6
CONTINUOUS
 10
43.16200
 20
216.89800
 30
 0
 11
43.16200
 21
215.38000
  0
LINE
  8
Gravur
 62
   255
 39
0.400
  6
CONTINUOUS
 10
45.16300
 20
217.51900
 30
 0
 11
45.16300
 21
214.75900
  0
LINE
  8
Gravur
 62
   255
 39
0.400
  6
CONTINUOUS
 10
45.16300
 20
214.75900
 30
 0
 11
46.06000
 21
214.75900
  0
LINE
  8
Gravur
 62
   255
 39
0.400
  6
CONTINUOUS
 10
46.81900
 20
217.51900
 30
 0
 11
46.81900
 21
214.75900
  0
LINE
  8
Gravur
 62
   255
 39
0.400
  6
CONTINUOUS
 10
46.81900
 20
214.75900
 30
 0
 11
47.71600
 21
214.75900
  0
LINE
  8
Gravur
 62
   255
 39
0.400
  6
CONTINUOUS
 10
49.74000
 20
217.51900
 30
 0
 11
48.49800
 21
217.51900
  0
LINE
  8
Gravur
 62
   255
 39
0.400
  6
CONTINUOUS
 10
48.49800
 20
217.51900
 30
 0
 11
48.49800
 21
214.75900
  0
LINE
  8
Gravur
 62
   255
 39
0.400
  6
CONTINUOUS
 10
48.49800
 20
214.75900
 30
 0
 11
49.74000
 21
214.75900
  0
LINE
  8
Gravur
 62
   255
 39
0.400
  6
CONTINUOUS
 10
48.49800
 20
216.13900
 30
 0
 11
49.53300
 21
216.13900
  0
LINE
  8
Gravur
 62
   255
 39
0.400
  6
CONTINUOUS
 10
50.52200
 20
214.75900
 30
 0
 11
50.52200
 21
217.51900
  0
LINE
  8
Gravur
 62
   255
 39
0.400
  6
CONTINUOUS
 10
50.52200
 20
217.51900
 30
 0
 11
51.07400
 21
217.51900
  0
ARC
  8
Gravur
 62
   255
 39
0.400
  6
CONTINUOUS
 10
51.07800
 20
216.83300
 30
 0
 40
0.68600
 50
359.66592
 51
90.33408
  0
LINE
  8
Gravur
 62
   255
 39
0.400
  6
CONTINUOUS
 10
51.76400
 20
216.82900
 30
 0
 11
51.76400
 21
215.44900
  0
ARC
  8
Gravur
 62
   255
 39
0.400
  6
CONTINUOUS
 10
51.07800
 20
215.44500
 30
 0
 40
0.68600
 50
269.66592
 51
0.33408
  0
LINE
  8
Gravur
 62
   255
 39
0.400
  6
CONTINUOUS
 10
51.07400
 20
214.75900
 30
 0
 11
50.52200
 21
214.75900
  0
ARC
  8
Gravur
 62
   255
 39
0.400
  6
CONTINUOUS
 10
55.37500
 20
215.38000
 30
 0
 40
0.62100
 50
180.00000
 51
360.00000
  0
LINE
  8
Gravur
 62
   255
 39
0.400
  6
CONTINUOUS
 10
55.99600
 20
215.38000
 30
 0
 11
55.99600
 21
216.89800
  0
ARC
  8
Gravur
 62
   255
 39
0.400
  6
CONTINUOUS
 10
55.37500
 20
216.89800
 30
 0
 40
0.62100
 50
0.00000
 51
180.00000
  0
LINE
  8
Gravur
 62
   255
 39
0.400
  6
CONTINUOUS
 10
54.75400
 20
216.89800
 30
 0
 11
54.75400
 21
215.38000
  0
ARC
  8
Gravur
 62
   255
 39
0.400
  6
CONTINUOUS
 10
57.46800
 20
215.44900
 30
 0
 40
0.69000
 50
180.00000
 51
360.00000
  0
ARC
  8
Gravur
 62
   255
 39
0.400
  6
CONTINUOUS
 10
57.47200
 20
215.45300
 30
 0
 40
0.68600
 50
-0.33408
 51
90.33408
  0
ARC
  8
Gravur
 62
   255
 39
0.400
  6
CONTINUOUS
 10
57.46800
 20
216.82900
 30
 0
 40
0.69000
 50
90.00000
 51
-90.00000
  0
ARC
  8
Gravur
 62
   255
 39
0.400
  6
CONTINUOUS
 10
57.47200
 20
216.83300
 30
 0
 40
0.68600
 50
359.66592
 51
90.33408
  0
ARC
  8
Gravur
 62
   255
 39
0.400
  6
CONTINUOUS
 10
59.53800
 20
216.92100
 30
 0
 40
0.59800
 50
0.00000
 51
180.00000
  0
LINE
  8
Gravur
 62
   255
 39
0.400
  6
CONTINUOUS
 10
58.94000
 20
216.92100
 30
 0
 11
58.94000
 21
215.35700
  0
ARC
  8
Gravur
 62
   255
 39
0.400
  6
CONTINUOUS
 10
59.53800
 20
215.35700
 30
 0
 40
0.59800
 50
180.00000
 51
360.00000
  0
LINE
  8
Gravur
 62
   255
 39
0.400
  6
CONTINUOUS
 10
60.91800
 20
217.51900
 30
 0
 11
60.91800
 21
214.75900
  0
LINE
  8
Gravur
 62
   255
 39
0.400
  6
CONTINUOUS
 10
61.67700
 20
217.51900
 30
 0
 11
61.67700
 21
214.75900
  0
LINE
  8
Gravur
 62
   255
 39
0.400
  6
CONTINUOUS
 10
61.67700
 20
214.75900
 30
 0
 11
62.57400
 21
214.75900
  0
LINE
  8
Gravur
 62
   255
 39
0.400
  6
CONTINUOUS
 10
63.33300
 20
217.51900
 30
 0
 11
63.33300
 21
214.75900
  0
LINE
  8
Gravur
 62
   255
 39
0.400
  6
CONTINUOUS
 10
63.33300
 20
214.75900
 30
 0
 11
64.23000
 21
214.75900
  0
LINE
  8
Gravur
 62
   255
 39
0.400
  6
CONTINUOUS
 10
65.01200
 20
214.75900
 30
 0
 11
65.84000
 21
217.51900
  0
LINE
  8
Gravur
 62
   255
 39
0.400
  6
CONTINUOUS
 10
65.84000
 20
217.51900
 30
 0
 11
66.66800
 21
214.75900
  0
LINE
  8
Gravur
 62
   255
 39
0.400
  6
CONTINUOUS
 10
65.28800
 20
215.58700
 30
 0
 11
66.39200
 21
215.58700
  0
LINE
  8
Gravur
 62
   255
 39
0.400
  6
CONTINUOUS
 10
67.45000
 20
217.51900
 30
 0
 11
68.69200
 21
217.51900
  0
LINE
  8
Gravur
 62
   255
 39
0.400
  6
CONTINUOUS
 10
68.69200
 20
217.51900
 30
 0
 11
68.07100
 21
217.51900
  0
LINE
  8
Gravur
 62
   255
 39
0.400
  6
CONTINUOUS
 10
68.07100
 20
217.51900
 30
 0
 11
68.07100
 21
214.75900
  0
ARC
  8
Gravur
 62
   255
 39
0.400
  6
CONTINUOUS
 10
70.09500
 20
215.38000
 30
 0
 40
0.62100
 50
180.00000
 51
360.00000
  0
LINE
  8
Gravur
 62
   255
 39
0.400
  6
CONTINUOUS
 10
70.71600
 20
215.38000
 30
 0
 11
70.71600
 21
216.89800
  0
ARC
  8
Gravur
 62
   255
 39
0.400
  6
CONTINUOUS
 10
70.09500
 20
216.89800
 30
 0
 40
0.62100
 50
0.00000
 51
180.00000
  0
LINE
  8
Gravur
 62
   255
 39
0.400
  6
CONTINUOUS
 10
69.47400
 20
216.89800
 30
 0
 11
69.47400
 21
215.38000
  0
LINE
  8
Gravur
 62
   255
 39
0.400
  6
CONTINUOUS
 10
71.47500
 20
214.75900
 30
 0
 11
71.47500
 21
217.51900
  0
LINE
  8
Gravur
 62
   255
 39
0.400
  6
CONTINUOUS
 10
71.47500
 20
217.51900
 30
 0
 11
72.09600
 21
217.51900
  0
ARC
  8
Gravur
 62
   255
 39
0.400
  6
CONTINUOUS
 10
72.09600
 20
216.82900
 30
 0
 40
0.69000
 50
270.00000
 51
90.00000
  0
LINE
  8
Gravur
 62
   255
 39
0.400
  6
CONTINUOUS
 10
72.09600
 20
216.13900
 30
 0
 11
71.47500
 21
216.13900
  0
LINE
  8
Gravur
 62
   255
 39
0.400
  6
CONTINUOUS
 10
71.47500
 20
216.13900
 30
 0
 11
72.09600
 21
216.13900
  0
LINE
  8
Gravur
 62
   255
 39
0.400
  6
CONTINUOUS
 10
72.09600
 20
216.13900
 30
 0
 11
72.78600
 21
214.75900
  0
LINE
  8
Gravur
 62
   255
 39
0.600
  6
CONTINUOUS
 10
21.58400
 20
146.25000
 30
 0
 11
21.58400
 21
138.69000
  0
LINE
  8
Gravur
 62
   255
 39
0.400
  6
CONTINUOUS
 10
1.01600
 20
163.60000
 30
 0
 11
174.44400
 21
163.60000
  0
LINE
  8
Gravur
 62
   255
 39
0.400
  6
CONTINUOUS
 10
85.96000
 20
136.13300
 30
 0
 11
85.96000
 21
163.52700
  0
ARC
  8
Gravur
 62
   255
 39
0.400
  6
CONTINUOUS
 10
65.65600
 20
59.34500
 30
 0
 40
0.69000
 50
180.00000
 51
360.00000
  0
ARC
  8
Gravur
 62
   255
 39
0.400
  6
CONTINUOUS
 10
65.66000
 20
59.34900
 30
 0
 40
0.68600
 50
-0.33408
 51
90.33408
  0
ARC
  8
Gravur
 62
   255
 39
0.400
  6
CONTINUOUS
 10
65.65600
 20
60.72500
 30
 0
 40
0.69000
 50
90.00000
 51
-90.00000
  0
ARC
  8
Gravur
 62
   255
 39
0.400
  6
CONTINUOUS
 10
65.66000
 20
60.72900
 30
 0
 40
0.68600
 50
359.66592
 51
90.33408
  0
LINE
  8
Gravur
 62
   255
 39
0.400
  6
CONTINUOUS
 10
67.12800
 20
61.41500
 30
 0
 11
67.12800
 21
58.65500
  0
LINE
  8
Gravur
 62
   255
 39
0.400
  6
CONTINUOUS
 10
67.91000
 20
58.65500
 30
 0
 11
67.91000
 21
61.41500
  0
LINE
  8
Gravur
 62
   255
 39
0.400
  6
CONTINUOUS
 10
67.91000
 20
61.41500
 30
 0
 11
69.15200
 21
58.65500
  0
LINE
  8
Gravur
 62
   255
 39
0.400
  6
CONTINUOUS
 10
69.15200
 20
58.65500
 30
 0
 11
69.15200
 21
61.41500
  0
ARC
  8
Gravur
 62
   255
 39
0.400
  6
CONTINUOUS
 10
61.87800
 20
40.78100
 30
 0
 40
0.59800
 50
0.00000
 51
180.00000
  0
LINE
  8
Gravur
 62
   255
 39
0.400
  6
CONTINUOUS
 10
61.28000
 20
40.78100
 30
 0
 11
61.28000
 21
39.21700
  0
ARC
  8
Gravur
 62
   255
 39
0.400
  6
CONTINUOUS
 10
61.87800
 20
39.21700
 30
 0
 40
0.59800
 50
180.00000
 51
360.00000
  0
LINE
  8
Gravur
 62
   255
 39
0.400
  6
CONTINUOUS
 10
63.25800
 20
41.37900
 30
 0
 11
63.87900
 21
38.61900
  0
LINE
  8
Gravur
 62
   255
 39
0.400
  6
CONTINUOUS
 10
63.87900
 20
38.61900
 30
 0
 11
64.50000
 21
41.37900
  0
ARC
  8
Gravur
 62
   255
 39
0.400
  6
CONTINUOUS
 10
65.82700
 20
40.80900
 30
 0
 40
0.57000
 50
91.60788
 51
-174.86924
  0
ARC
  8
Gravur
 62
   255
 39
0.400
  6
CONTINUOUS
 10
65.84000
 20
40.77900
 30
 0
 40
0.60100
 50
330.40873
 51
92.76714
  0
LINE
  8
Gravur
 62
   255
 39
0.400
  6
CONTINUOUS
 10
66.36300
 20
40.48200
 30
 0
 11
65.25900
 21
38.61900
  0
LINE
  8
Gravur
 62
   255
 39
0.400
  6
CONTINUOUS
 10
65.25900
 20
38.61900
 30
 0
 11
66.43200
 21
38.61900
  0
LINE
  8
Gravur
 62
   255
 39
0.400
  6
CONTINUOUS
 10
69.42200
 20
41.37900
 30
 0
 11
69.42200
 21
38.61900
  0
LINE
  8
Gravur
 62
   255
 39
0.400
  6
CONTINUOUS
 10
70.20400
 20
38.61900
 30
 0
 11
70.20400
 21
41.37900
  0
LINE
  8
Gravur
 62
   255
 39
0.400
  6
CONTINUOUS
 10
70.20400
 20
41.37900
 30
 0
 11
71.44600
 21
38.61900
  0
LINE
  8
Gravur
 62
   255
 39
0.400
  6
CONTINUOUS
 10
71.44600
 20
38.61900
 30
 0
 11
71.44600
 21
41.37900
  0
LINE
  8
Gravur
 62
   255
 39
0.400
  6
CONTINUOUS
 10
18.58900
 20
61.41500
 30
 0
 11
19.83100
 21
61.41500
  0
LINE
  8
Gravur
 62
   255
 39
0.400
  6
CONTINUOUS
 10
19.83100
 20
61.41500
 30
 0
 11
19.21000
 21
61.41500
  0
LINE
  8
Gravur
 62
   255
 39
0.400
  6
CONTINUOUS
 10
19.21000
 20
61.41500
 30
 0
 11
19.21000
 21
58.65500
  0
LINE
  8
Gravur
 62
   255
 39
0.400
  6
CONTINUOUS
 10
20.59000
 20
58.65500
 30
 0
 11
20.59000
 21
61.41500
  0
LINE
  8
Gravur
 62
   255
 39
0.400
  6
CONTINUOUS
 10
20.59000
 20
61.41500
 30
 0
 11
21.21100
 21
61.41500
  0
ARC
  8
Gravur
 62
   255
 39
0.400
  6
CONTINUOUS
 10
21.21100
 20
60.72500
 30
 0
 40
0.69000
 50
270.00000
 51
90.00000
  0
LINE
  8
Gravur
 62
   255
 39
0.400
  6
CONTINUOUS
 10
21.21100
 20
60.03500
 30
 0
 11
20.59000
 21
60.03500
  0
LINE
  8
Gravur
 62
   255
 39
0.400
  6
CONTINUOUS
 10
20.59000
 20
60.03500
 30
 0
 11
21.21100
 21
60.03500
  0
LINE
  8
Gravur
 62
   255
 39
0.400
  6
CONTINUOUS
 10
21.21100
 20
60.03500
 30
 0
 11
21.90100
 21
58.65500
  0
LINE
  8
Gravur
 62
   255
 39
0.400
  6
CONTINUOUS
 10
22.68300
 20
61.41500
 30
 0
 11
22.68300
 21
58.65500
  0
ARC
  8
Gravur
 62
   255
 39
0.400
  6
CONTINUOUS
 10
16.09100
 20
41.14200
 30
 0
 40
0.59800
 50
0.00000
 51
180.00000
  0
LINE
  8
Gravur
 62
   255
 39
0.400
  6
CONTINUOUS
 10
15.49300
 20
41.14200
 30
 0
 11
15.49300
 21
39.57800
  0
ARC
  8
Gravur
 62
   255
 39
0.400
  6
CONTINUOUS
 10
16.09100
 20
39.57800
 30
 0
 40
0.59800
 50
180.00000
 51
360.00000
  0
LINE
  8
Gravur
 62
   255
 39
0.400
  6
CONTINUOUS
 10
17.47100
 20
41.74000
 30
 0
 11
18.09200
 21
38.98000
  0
LINE
  8
Gravur
 62
   255
 39
0.400
  6
CONTINUOUS
 10
18.09200
 20
38.98000
 30
 0
 11
18.71300
 21
41.74000
  0
LINE
  8
Gravur
 62
   255
 39
0.400
  6
CONTINUOUS
 10
21.68000
 20
41.05000
 30
 0
 11
22.30100
 21
41.74000
  0
LINE
  8
Gravur
 62
   255
 39
0.400
  6
CONTINUOUS
 10
22.30100
 20
41.74000
 30
 0
 11
22.30100
 21
38.98000
  0
LINE
  8
Gravur
 62
   255
 39
0.400
  6
CONTINUOUS
 10
25.29100
 20
41.74000
 30
 0
 11
25.29100
 21
38.98000
  0
LINE
  8
Gravur
 62
   255
 39
0.400
  6
CONTINUOUS
 10
26.07300
 20
38.98000
 30
 0
 11
26.07300
 21
41.74000
  0
LINE
  8
Gravur
 62
   255
 39
0.400
  6
CONTINUOUS
 10
26.07300
 20
41.74000
 30
 0
 11
27.31500
 21
38.98000
  0
LINE
  8
Gravur
 62
   255
 39
0.400
  6
CONTINUOUS
 10
27.31500
 20
38.98000
 30
 0
 11
27.31500
 21
41.74000
  0
ARC
  8
Gravur
 62
   255
 39
0.400
  6
CONTINUOUS
 10
146.81900
 20
211.65300
 30
 0
 40
0.59800
 50
0.00000
 51
180.00000
  0
LINE
  8
Gravur
 62
   255
 39
0.400
  6
CONTINUOUS
 10
146.22100
 20
211.65300
 30
 0
 11
146.22100
 21
210.08900
  0
ARC
  8
Gravur
 62
   255
 39
0.400
  6
CONTINUOUS
 10
146.81900
 20
210.08900
 30
 0
 40
0.59800
 50
180.00000
 51
360.00000
  0
LINE
  8
Gravur
 62
   255
 39
0.400
  6
CONTINUOUS
 10
148.19900
 20
212.25100
 30
 0
 11
148.82000
 21
209.49100
  0
LINE
  8
Gravur
 62
   255
 39
0.400
  6
CONTINUOUS
 10
148.82000
 20
209.49100
 30
 0
 11
149.44100
 21
212.25100
  0
ARC
  8
Gravur
 62
   255
 39
0.400
  6
CONTINUOUS
 10
150.76800
 20
211.68100
 30
 0
 40
0.57000
 50
91.60788
 51
-174.86924
  0
ARC
  8
Gravur
 62
   255
 39
0.400
  6
CONTINUOUS
 10
150.78100
 20
211.65100
 30
 0
 40
0.60100
 50
330.40873
 51
92.76714
  0
LINE
  8
Gravur
 62
   255
 39
0.400
  6
CONTINUOUS
 10
151.30400
 20
211.35400
 30
 0
 11
150.20000
 21
209.49100
  0
LINE
  8
Gravur
 62
   255
 39
0.400
  6
CONTINUOUS
 10
150.20000
 20
209.49100
 30
 0
 11
151.37300
 21
209.49100
  0
LINE
  8
Gravur
 62
   255
 39
0.400
  6
CONTINUOUS
 10
154.34000
 20
212.25100
 30
 0
 11
154.34000
 21
209.49100
  0
LINE
  8
Gravur
 62
   255
 39
0.400
  6
CONTINUOUS
 10
154.34000
 20
209.49100
 30
 0
 11
155.23700
 21
209.49100
  0
LINE
  8
Gravur
 62
   255
 39
0.400
  6
CONTINUOUS
 10
156.01900
 20
210.45700
 30
 0
 11
157.12300
 21
210.45700
  0
LINE
  8
Gravur
 62
   255
 39
0.400
  6
CONTINUOUS
 10
157.12300
 20
210.45700
 30
 0
 11
157.12300
 21
210.80200
  0
ARC
  8
Gravur
 62
   255
 39
0.400
  6
CONTINUOUS
 10
156.57100
 20
210.74400
 30
 0
 40
0.55500
 50
5.99820
 51
174.00180
  0
LINE
  8
Gravur
 62
   255
 39
0.400
  6
CONTINUOUS
 10
156.01900
 20
210.80200
 30
 0
 11
156.01900
 21
209.97400
  0
ARC
  8
Gravur
 62
   255
 39
0.400
  6
CONTINUOUS
 10
156.57100
 20
210.04800
 30
 0
 40
0.55700
 50
-172.36457
 51
-7.63543
  0
LINE
  8
Gravur
 62
   255
 39
0.400
  6
CONTINUOUS
 10
157.90500
 20
211.28500
 30
 0
 11
158.45700
 21
209.49100
  0
LINE
  8
Gravur
 62
   255
 39
0.400
  6
CONTINUOUS
 10
158.45700
 20
209.49100
 30
 0
 11
159.00900
 21
211.28500
  0
LINE
  8
Gravur
 62
   255
 39
0.400
  6
CONTINUOUS
 10
159.79100
 20
210.45700
 30
 0
 11
160.89500
 21
210.45700
  0
LINE
  8
Gravur
 62
   255
 39
0.400
  6
CONTINUOUS
 10
160.89500
 20
210.45700
 30
 0
 11
160.89500
 21
210.80200
  0
ARC
  8
Gravur
 62
   255
 39
0.400
  6
CONTINUOUS
 10
160.34300
 20
210.74400
 30
 0
 40
0.55500
 50
5.99820
 51
174.00180
  0
LINE
  8
Gravur
 62
   255
 39
0.400
  6
CONTINUOUS
 10
159.79100
 20
210.80200
 30
 0
 11
159.79100
 21
209.97400
  0
ARC
  8
Gravur
 62
   255
 39
0.400
  6
CONTINUOUS
 10
160.34300
 20
210.04800
 30
 0
 40
0.55700
 50
-172.36457
 51
-7.63543
  0
LINE
  8
Gravur
 62
   255
 39
0.400
  6
CONTINUOUS
 10
161.65400
 20
212.25100
 30
 0
 11
161.65400
 21
209.83600
  0
ARC
  8
Gravur
 62
   255
 39
0.400
  6
CONTINUOUS
 10
162.03900
 20
209.87600
 30
 0
 40
0.38700
 50
-174.06847
 51
-95.93153
  0
LINE
  8
Gravur
 62
   255
 39
0.600
  6
CONTINUOUS
 10
109.02700
 20
205.80000
 30
 0
 11
109.02700
 21
198.24000
  0
ARC
  8
Gravur
 62
   255
 39
0.400
  6
CONTINUOUS
 10
102.01000
 20
211.65300
 30
 0
 40
0.59800
 50
0.00000
 51
180.00000
  0
LINE
  8
Gravur
 62
   255
 39
0.400
  6
CONTINUOUS
 10
101.41200
 20
211.65300
 30
 0
 11
101.41200
 21
210.08900
  0
ARC
  8
Gravur
 62
   255
 39
0.400
  6
CONTINUOUS
 10
102.01000
 20
210.08900
 30
 0
 40
0.59800
 50
180.00000
 51
360.00000
  0
LINE
  8
Gravur
 62
   255
 39
0.400
  6
CONTINUOUS
 10
103.39000
 20
212.25100
 30
 0
 11
104.01100
 21
209.49100
  0
LINE
  8
Gravur
 62
   255
 39
0.400
  6
CONTINUOUS
 10
104.01100
 20
209.49100
 30
 0
 11
104.63200
 21
212.25100
  0
LINE
  8
Gravur
 62
   255
 39
0.400
  6
CONTINUOUS
 10
105.39100
 20
211.56100
 30
 0
 11
106.01200
 21
212.25100
  0
LINE
  8
Gravur
 62
   255
 39
0.400
  6
CONTINUOUS
 10
106.01200
 20
212.25100
 30
 0
 11
106.01200
 21
209.49100
  0
LINE
  8
Gravur
 62
   255
 39
0.400
  6
CONTINUOUS
 10
108.97900
 20
212.25100
 30
 0
 11
108.97900
 21
209.49100
  0
LINE
  8
Gravur
 62
   255
 39
0.400
  6
CONTINUOUS
 10
108.97900
 20
209.49100
 30
 0
 11
109.87600
 21
209.49100
  0
LINE
  8
Gravur
 62
   255
 39
0.400
  6
CONTINUOUS
 10
110.65800
 20
210.45700
 30
 0
 11
111.76200
 21
210.45700
  0
LINE
  8
Gravur
 62
   255
 39
0.400
  6
CONTINUOUS
 10
111.76200
 20
210.45700
 30
 0
 11
111.76200
 21
210.80200
  0
ARC
  8
Gravur
 62
   255
 39
0.400
  6
CONTINUOUS
 10
111.21000
 20
210.74400
 30
 0
 40
0.55500
 50
5.99820
 51
174.00180
  0
LINE
  8
Gravur
 62
   255
 39
0.400
  6
CONTINUOUS
 10
110.65800
 20
210.80200
 30
 0
 11
110.65800
 21
209.97400
  0
ARC
  8
Gravur
 62
   255
 39
0.400
  6
CONTINUOUS
 10
111.21000
 20
210.04800
 30
 0
 40
0.55700
 50
-172.36457
 51
-7.63543
  0
LINE
  8
Gravur
 62
   255
 39
0.400
  6
CONTINUOUS
 10
112.54400
 20
211.28500
 30
 0
 11
113.09600
 21
209.49100
  0
LINE
  8
Gravur
 62
   255
 39
0.400
  6
CONTINUOUS
 10
113.09600
 20
209.49100
 30
 0
 11
113.64800
 21
211.28500
  0
LINE
  8
Gravur
 62
   255
 39
0.400
  6
CONTINUOUS
 10
114.43000
 20
210.45700
 30
 0
 11
115.53400
 21
210.45700
  0
LINE
  8
Gravur
 62
   255
 39
0.400
  6
CONTINUOUS
 10
115.53400
 20
210.45700
 30
 0
 11
115.53400
 21
210.80200
  0
ARC
  8
Gravur
 62
   255
 39
0.400
  6
CONTINUOUS
 10
114.98200
 20
210.74400
 30
 0
 40
0.55500
 50
5.99820
 51
174.00180
  0
LINE
  8
Gravur
 62
   255
 39
0.400
  6
CONTINUOUS
 10
114.43000
 20
210.80200
 30
 0
 11
114.43000
 21
209.97400
  0
ARC
  8
Gravur
 62
   255
 39
0.400
  6
CONTINUOUS
 10
114.98200
 20
210.04800
 30
 0
 40
0.55700
 50
-172.36457
 51
-7.63543
  0
LINE
  8
Gravur
 62
   255
 39
0.400
  6
CONTINUOUS
 10
116.29300
 20
212.25100
 30
 0
 11
116.29300
 21
209.83600
  0
ARC
  8
Gravur
 62
   255
 39
0.400
  6
CONTINUOUS
 10
116.67800
 20
209.87600
 30
 0
 40
0.38700
 50
-174.06847
 51
-95.93153
  0
LINE
  8
Gravur
 62
   255
 39
0.400
  6
CONTINUOUS
 10
131.90200
 20
136.48600
 30
 0
 11
175.96800
 21
136.48600
  0
LINE
  8
Gravur
 62
   255
 39
0.400
  6
CONTINUOUS
 10
135.41200
 20
60.03000
 30
 0
 11
136.03300
 21
60.03000
  0
ARC
  8
Gravur
 62
   255
 39
0.400
  6
CONTINUOUS
 10
136.03300
 20
60.72000
 30
 0
 40
0.69000
 50
-90.00000
 51
90.00000
  0
LINE
  8
Gravur
 62
   255
 39
0.400
  6
CONTINUOUS
 10
136.03300
 20
61.41000
 30
 0
 11
135.41200
 21
61.41000
  0
LINE
  8
Gravur
 62
   255
 39
0.400
  6
CONTINUOUS
 10
135.41200
 20
61.41000
 30
 0
 11
135.41200
 21
58.65000
  0
LINE
  8
Gravur
 62
   255
 39
0.400
  6
CONTINUOUS
 10
137.50500
 20
61.41000
 30
 0
 11
137.50500
 21
59.27100
  0
ARC
  8
Gravur
 62
   255
 39
0.400
  6
CONTINUOUS
 10
138.12600
 20
59.27100
 30
 0
 40
0.62100
 50
180.00000
 51
360.00000
  0
LINE
  8
Gravur
 62
   255
 39
0.400
  6
CONTINUOUS
 10
138.74700
 20
59.27100
 30
 0
 11
138.74700
 21
61.41000
  0
LINE
  8
Gravur
 62
   255
 39
0.400
  6
CONTINUOUS
 10
139.50600
 20
61.41000
 30
 0
 11
139.50600
 21
58.65000
  0
LINE
  8
Gravur
 62
   255
 39
0.400
  6
CONTINUOUS
 10
139.50600
 20
58.65000
 30
 0
 11
140.40300
 21
58.65000
  0
ARC
  8
Gravur
 62
   255
 39
0.400
  6
CONTINUOUS
 10
141.87500
 20
59.34000
 30
 0
 40
0.69000
 50
180.00000
 51
360.00000
  0
ARC
  8
Gravur
 62
   255
 39
0.400
  6
CONTINUOUS
 10
141.87900
 20
59.34400
 30
 0
 40
0.68600
 50
-0.33408
 51
90.33408
  0
ARC
  8
Gravur
 62
   255
 39
0.400
  6
CONTINUOUS
 10
141.87500
 20
60.72000
 30
 0
 40
0.69000
 50
90.00000
 51
-90.00000
  0
ARC
  8
Gravur
 62
   255
 39
0.400
  6
CONTINUOUS
 10
141.87900
 20
60.72400
 30
 0
 40
0.68600
 50
359.66592
 51
90.33408
  0
LINE
  8
Gravur
 62
   255
 39
0.400
  6
CONTINUOUS
 10
144.58900
 20
61.41000
 30
 0
 11
143.34700
 21
61.41000
  0
LINE
  8
Gravur
 62
   255
 39
0.400
  6
CONTINUOUS
 10
143.34700
 20
61.41000
 30
 0
 11
143.34700
 21
58.65000
  0
LINE
  8
Gravur
 62
   255
 39
0.400
  6
CONTINUOUS
 10
143.34700
 20
58.65000
 30
 0
 11
144.58900
 21
58.65000
  0
LINE
  8
Gravur
 62
   255
 39
0.400
  6
CONTINUOUS
 10
143.34700
 20
60.03000
 30
 0
 11
144.38200
 21
60.03000
  0
LINE
  8
Gravur
 62
   255
 39
0.400
  6
CONTINUOUS
 10
136.10100
 20
39.15500
 30
 0
 11
136.72200
 21
39.15500
  0
ARC
  8
Gravur
 62
   255
 39
0.400
  6
CONTINUOUS
 10
136.72200
 20
39.84500
 30
 0
 40
0.69000
 50
-90.00000
 51
90.00000
  0
LINE
  8
Gravur
 62
   255
 39
0.400
  6
CONTINUOUS
 10
136.72200
 20
40.53500
 30
 0
 11
136.10100
 21
40.53500
  0
LINE
  8
Gravur
 62
   255
 39
0.400
  6
CONTINUOUS
 10
136.10100
 20
40.53500
 30
 0
 11
136.10100
 21
37.77500
  0
LINE
  8
Gravur
 62
   255
 39
0.400
  6
CONTINUOUS
 10
138.19400
 20
40.53500
 30
 0
 11
138.81500
 21
37.77500
  0
LINE
  8
Gravur
 62
   255
 39
0.400
  6
CONTINUOUS
 10
138.81500
 20
37.77500
 30
 0
 11
139.43600
 21
40.53500
  0
LINE
  8
Gravur
 62
   255
 39
0.400
  6
CONTINUOUS
 10
139.43600
 20
40.53500
 30
 0
 11
140.05700
 21
37.77500
  0
LINE
  8
Gravur
 62
   255
 39
0.400
  6
CONTINUOUS
 10
140.05700
 20
37.77500
 30
 0
 11
140.67800
 21
40.53500
  0
LINE
  8
Gravur
 62
   255
 39
0.400
  6
CONTINUOUS
 10
141.46000
 20
37.77500
 30
 0
 11
141.46000
 21
40.53500
  0
LINE
  8
Gravur
 62
   255
 39
0.400
  6
CONTINUOUS
 10
141.46000
 20
40.53500
 30
 0
 11
142.35700
 21
38.60300
  0
LINE
  8
Gravur
 62
   255
 39
0.400
  6
CONTINUOUS
 10
142.35700
 20
38.60300
 30
 0
 11
143.25400
 21
40.53500
  0
LINE
  8
Gravur
 62
   255
 39
0.400
  6
CONTINUOUS
 10
143.25400
 20
40.53500
 30
 0
 11
143.25400
 21
37.77500
  0
ARC
  8
Gravur
 62
   255
 39
0.400
  6
CONTINUOUS
 10
146.78900
 20
39.96500
 30
 0
 40
0.57000
 50
91.60788
 51
-174.86924
  0
ARC
  8
Gravur
 62
   255
 39
0.400
  6
CONTINUOUS
 10
146.80200
 20
39.93500
 30
 0
 40
0.60100
 50
330.40873
 51
92.76714
  0
LINE
  8
Gravur
 62
   255
 39
0.400
  6
CONTINUOUS
 10
147.32500
 20
39.63800
 30
 0
 11
146.22100
 21
37.77500
  0
LINE
  8
Gravur
 62
   255
 39
0.400
  6
CONTINUOUS
 10
146.22100
 20
37.77500
 30
 0
 11
147.39400
 21
37.77500
  0
ARC
  8
Gravur
 62
   255
 39
0.400
  6
CONTINUOUS
 10
105.45300
 20
59.34500
 30
 0
 40
0.69000
 50
180.00000
 51
360.00000
  0
ARC
  8
Gravur
 62
   255
 39
0.400
  6
CONTINUOUS
 10
105.45700
 20
59.34900
 30
 0
 40
0.68600
 50
-0.33408
 51
90.33408
  0
ARC
  8
Gravur
 62
   255
 39
0.400
  6
CONTINUOUS
 10
105.45300
 20
60.72500
 30
 0
 40
0.69000
 50
90.00000
 51
-90.00000
  0
ARC
  8
Gravur
 62
   255
 39
0.400
  6
CONTINUOUS
 10
105.45700
 20
60.72900
 30
 0
 40
0.68600
 50
359.66592
 51
90.33408
  0
LINE
  8
Gravur
 62
   255
 39
0.400
  6
CONTINUOUS
 10
106.92500
 20
58.65500
 30
 0
 11
107.75300
 21
61.41500
  0
LINE
  8
Gravur
 62
   255
 39
0.400
  6
CONTINUOUS
 10
107.75300
 20
61.41500
 30
 0
 11
108.58100
 21
58.65500
  0
LINE
  8
Gravur
 62
   255
 39
0.400
  6
CONTINUOUS
 10
107.20100
 20
59.48300
 30
 0
 11
108.30500
 21
59.48300
  0
LINE
  8
Gravur
 62
   255
 39
0.400
  6
CONTINUOUS
 10
109.36300
 20
61.41500
 30
 0
 11
109.98400
 21
58.65500
  0
LINE
  8
Gravur
 62
   255
 39
0.400
  6
CONTINUOUS
 10
109.98400
 20
58.65500
 30
 0
 11
110.60500
 21
61.41500
  0
LINE
  8
Gravur
 62
   255
 39
0.400
  6
CONTINUOUS
 10
110.60500
 20
61.41500
 30
 0
 11
111.22600
 21
58.65500
  0
LINE
  8
Gravur
 62
   255
 39
0.400
  6
CONTINUOUS
 10
111.22600
 20
58.65500
 30
 0
 11
111.84700
 21
61.41500
  0
LINE
  8
Gravur
 62
   255
 39
0.400
  6
CONTINUOUS
 10
104.39800
 20
39.97900
 30
 0
 11
105.01900
 21
39.97900
  0
ARC
  8
Gravur
 62
   255
 39
0.400
  6
CONTINUOUS
 10
105.01900
 20
40.66900
 30
 0
 40
0.69000
 50
-90.00000
 51
90.00000
  0
LINE
  8
Gravur
 62
   255
 39
0.400
  6
CONTINUOUS
 10
105.01900
 20
41.35900
 30
 0
 11
104.39800
 21
41.35900
  0
LINE
  8
Gravur
 62
   255
 39
0.400
  6
CONTINUOUS
 10
104.39800
 20
41.35900
 30
 0
 11
104.39800
 21
38.59900
  0
LINE
  8
Gravur
 62
   255
 39
0.400
  6
CONTINUOUS
 10
106.49100
 20
41.35900
 30
 0
 11
107.11200
 21
38.59900
  0
LINE
  8
Gravur
 62
   255
 39
0.400
  6
CONTINUOUS
 10
107.11200
 20
38.59900
 30
 0
 11
107.73300
 21
41.35900
  0
LINE
  8
Gravur
 62
   255
 39
0.400
  6
CONTINUOUS
 10
107.73300
 20
41.35900
 30
 0
 11
108.35400
 21
38.59900
  0
LINE
  8
Gravur
 62
   255
 39
0.400
  6
CONTINUOUS
 10
108.35400
 20
38.59900
 30
 0
 11
108.97500
 21
41.35900
  0
LINE
  8
Gravur
 62
   255
 39
0.400
  6
CONTINUOUS
 10
109.75700
 20
38.59900
 30
 0
 11
109.75700
 21
41.35900
  0
LINE
  8
Gravur
 62
   255
 39
0.400
  6
CONTINUOUS
 10
109.75700
 20
41.35900
 30
 0
 11
110.65400
 21
39.42700
  0
LINE
  8
Gravur
 62
   255
 39
0.400
  6
CONTINUOUS
 10
110.65400
 20
39.42700
 30
 0
 11
111.55100
 21
41.35900
  0
LINE
  8
Gravur
 62
   255
 39
0.400
  6
CONTINUOUS
 10
111.55100
 20
41.35900
 30
 0
 11
111.55100
 21
38.59900
  0
LINE
  8
Gravur
 62
   255
 39
0.400
  6
CONTINUOUS
 10
114.51800
 20
40.66900
 30
 0
 11
115.13900
 21
41.35900
  0
LINE
  8
Gravur
 62
   255
 39
0.400
  6
CONTINUOUS
 10
115.13900
 20
41.35900
 30
 0
 11
115.13900
 21
38.59900
  0
LINE
  8
Gravur
 62
   255
 39
0.400
  6
CONTINUOUS
 10
152.91500
 20
132.49700
 30
 0
 11
152.91500
 21
129.73700
  0
LINE
  8
Gravur
 62
   255
 39
0.400
  6
CONTINUOUS
 10
152.91500
 20
131.11700
 30
 0
 11
154.15700
 21
131.11700
  0
LINE
  8
Gravur
 62
   255
 39
0.400
  6
CONTINUOUS
 10
154.15700
 20
129.73700
 30
 0
 11
154.15700
 21
132.49700
  0
LINE
  8
Gravur
 62
   255
 39
0.400
  6
CONTINUOUS
 10
154.93900
 20
129.73700
 30
 0
 11
155.76700
 21
132.49700
  0
LINE
  8
Gravur
 62
   255
 39
0.400
  6
CONTINUOUS
 10
155.76700
 20
132.49700
 30
 0
 11
156.59500
 21
129.73700
  0
LINE
  8
Gravur
 62
   255
 39
0.400
  6
CONTINUOUS
 10
155.21500
 20
130.56500
 30
 0
 11
156.31900
 21
130.56500
  0
LINE
  8
Gravur
 62
   255
 39
0.400
  6
CONTINUOUS
 10
157.35400
 20
129.73700
 30
 0
 11
157.35400
 21
132.49700
  0
LINE
  8
Gravur
 62
   255
 39
0.400
  6
CONTINUOUS
 10
157.35400
 20
132.49700
 30
 0
 11
157.97500
 21
132.49700
  0
ARC
  8
Gravur
 62
   255
 39
0.400
  6
CONTINUOUS
 10
157.97500
 20
131.80700
 30
 0
 40
0.69000
 50
270.00000
 51
90.00000
  0
LINE
  8
Gravur
 62
   255
 39
0.400
  6
CONTINUOUS
 10
157.97500
 20
131.11700
 30
 0
 11
157.35400
 21
131.11700
  0
LINE
  8
Gravur
 62
   255
 39
0.400
  6
CONTINUOUS
 10
157.35400
 20
131.11700
 30
 0
 11
157.97500
 21
131.11700
  0
LINE
  8
Gravur
 62
   255
 39
0.400
  6
CONTINUOUS
 10
157.97500
 20
131.11700
 30
 0
 11
158.66500
 21
129.73700
  0
LINE
  8
Gravur
 62
   255
 39
0.400
  6
CONTINUOUS
 10
159.44700
 20
129.73700
 30
 0
 11
159.44700
 21
132.49700
  0
LINE
  8
Gravur
 62
   255
 39
0.400
  6
CONTINUOUS
 10
159.44700
 20
132.49700
 30
 0
 11
159.99900
 21
132.49700
  0
ARC
  8
Gravur
 62
   255
 39
0.400
  6
CONTINUOUS
 10
160.00300
 20
131.81100
 30
 0
 40
0.68600
 50
359.66592
 51
90.33408
  0
LINE
  8
Gravur
 62
   255
 39
0.400
  6
CONTINUOUS
 10
160.68900
 20
131.80700
 30
 0
 11
160.68900
 21
130.42700
  0
ARC
  8
Gravur
 62
   255
 39
0.400
  6
CONTINUOUS
 10
160.00300
 20
130.42300
 30
 0
 40
0.68600
 50
269.66592
 51
0.33408
  0
LINE
  8
Gravur
 62
   255
 39
0.400
  6
CONTINUOUS
 10
159.99900
 20
129.73700
 30
 0
 11
159.44700
 21
129.73700
  0
ARC
  8
Gravur
 62
   255
 39
0.400
  6
CONTINUOUS
 10
164.36900
 20
130.42700
 30
 0
 40
0.69000
 50
180.00000
 51
360.00000
  0
ARC
  8
Gravur
 62
   255
 39
0.400
  6
CONTINUOUS
 10
164.37300
 20
130.43100
 30
 0
 40
0.68600
 50
-0.33408
 51
90.33408
  0
ARC
  8
Gravur
 62
   255
 39
0.400
  6
CONTINUOUS
 10
164.36900
 20
131.80700
 30
 0
 40
0.69000
 50
90.00000
 51
-90.00000
  0
ARC
  8
Gravur
 62
   255
 39
0.400
  6
CONTINUOUS
 10
164.37300
 20
131.81100
 30
 0
 40
0.68600
 50
359.66592
 51
90.33408
  0
LINE
  8
Gravur
 62
   255
 39
0.400
  6
CONTINUOUS
 10
165.84100
 20
132.49700
 30
 0
 11
166.46200
 21
130.77200
  0
LINE
  8
Gravur
 62
   255
 39
0.400
  6
CONTINUOUS
 10
166.46200
 20
130.77200
 30
 0
 11
166.46200
 21
129.73700
  0
LINE
  8
Gravur
 62
   255
 39
0.400
  6
CONTINUOUS
 10
166.46200
 20
129.73700
 30
 0
 11
166.46200
 21
130.77200
  0
LINE
  8
Gravur
 62
   255
 39
0.400
  6
CONTINUOUS
 10
166.46200
 20
130.77200
 30
 0
 11
167.08300
 21
132.49700
  0
LINE
  8
Gravur
 62
   255
 39
0.400
  6
CONTINUOUS
 10
167.86500
 20
129.73700
 30
 0
 11
167.86500
 21
132.49700
  0
LINE
  8
Gravur
 62
   255
 39
0.400
  6
CONTINUOUS
 10
167.86500
 20
132.49700
 30
 0
 11
169.10700
 21
129.73700
  0
LINE
  8
Gravur
 62
   255
 39
0.400
  6
CONTINUOUS
 10
169.10700
 20
129.73700
 30
 0
 11
169.10700
 21
132.49700
  0
ARC
  8
Gravur
 62
   255
 39
0.400
  6
CONTINUOUS
 10
170.48700
 20
131.89900
 30
 0
 40
0.59800
 50
0.00000
 51
180.00000
  0
LINE
  8
Gravur
 62
   255
 39
0.400
  6
CONTINUOUS
 10
169.88900
 20
131.89900
 30
 0
 11
169.88900
 21
130.33500
  0
ARC
  8
Gravur
 62
   255
 39
0.400
  6
CONTINUOUS
 10
170.48700
 20
130.33500
 30
 0
 40
0.59800
 50
180.00000
 51
360.00000
  0
LINE
  8
Gravur
 62
   255
 39
0.400
  6
CONTINUOUS
 10
53.96400
 20
159.02700
 30
 0
 11
54.58500
 21
159.02700
  0
ARC
  8
Gravur
 62
   255
 39
0.400
  6
CONTINUOUS
 10
54.58500
 20
159.71700
 30
 0
 40
0.69000
 50
-90.00000
 51
90.00000
  0
LINE
  8
Gravur
 62
   255
 39
0.400
  6
CONTINUOUS
 10
54.58500
 20
160.40700
 30
 0
 11
53.96400
 21
160.40700
  0
LINE
  8
Gravur
 62
   255
 39
0.400
  6
CONTINUOUS
 10
53.96400
 20
160.40700
 30
 0
 11
53.96400
 21
157.64700
  0
LINE
  8
Gravur
 62
   255
 39
0.400
  6
CONTINUOUS
 10
56.05700
 20
160.40700
 30
 0
 11
56.05700
 21
158.26800
  0
ARC
  8
Gravur
 62
   255
 39
0.400
  6
CONTINUOUS
 10
56.67800
 20
158.26800
 30
 0
 40
0.62100
 50
180.00000
 51
360.00000
  0
LINE
  8
Gravur
 62
   255
 39
0.400
  6
CONTINUOUS
 10
57.29900
 20
158.26800
 30
 0
 11
57.29900
 21
160.40700
  0
LINE
  8
Gravur
 62
   255
 39
0.400
  6
CONTINUOUS
 10
58.05800
 20
160.40700
 30
 0
 11
58.05800
 21
157.64700
  0
LINE
  8
Gravur
 62
   255
 39
0.400
  6
CONTINUOUS
 10
58.05800
 20
157.64700
 30
 0
 11
58.95500
 21
157.64700
  0
ARC
  8
Gravur
 62
   255
 39
0.400
  6
CONTINUOUS
 10
60.42700
 20
158.33700
 30
 0
 40
0.69000
 50
180.00000
 51
360.00000
  0
ARC
  8
Gravur
 62
   255
 39
0.400
  6
CONTINUOUS
 10
60.43100
 20
158.34100
 30
 0
 40
0.68600
 50
-0.33408
 51
90.33408
  0
ARC
  8
Gravur
 62
   255
 39
0.400
  6
CONTINUOUS
 10
60.42700
 20
159.71700
 30
 0
 40
0.69000
 50
90.00000
 51
-90.00000
  0
ARC
  8
Gravur
 62
   255
 39
0.400
  6
CONTINUOUS
 10
60.43100
 20
159.72100
 30
 0
 40
0.68600
 50
359.66592
 51
90.33408
  0
LINE
  8
Gravur
 62
   255
 39
0.400
  6
CONTINUOUS
 10
63.14100
 20
160.40700
 30
 0
 11
61.89900
 21
160.40700
  0
LINE
  8
Gravur
 62
   255
 39
0.400
  6
CONTINUOUS
 10
61.89900
 20
160.40700
 30
 0
 11
61.89900
 21
157.64700
  0
LINE
  8
Gravur
 62
   255
 39
0.400
  6
CONTINUOUS
 10
61.89900
 20
157.64700
 30
 0
 11
63.14100
 21
157.64700
  0
LINE
  8
Gravur
 62
   255
 39
0.400
  6
CONTINUOUS
 10
61.89900
 20
159.02700
 30
 0
 11
62.93400
 21
159.02700
  0
LINE
  8
Gravur
 62
   255
 39
0.400
  6
CONTINUOUS
 10
66.13100
 20
160.40700
 30
 0
 11
66.75200
 21
157.64700
  0
LINE
  8
Gravur
 62
   255
 39
0.400
  6
CONTINUOUS
 10
66.75200
 20
157.64700
 30
 0
 11
67.37300
 21
160.40700
  0
LINE
  8
Gravur
 62
   255
 39
0.400
  6
CONTINUOUS
 10
67.37300
 20
160.40700
 30
 0
 11
67.99400
 21
157.64700
  0
LINE
  8
Gravur
 62
   255
 39
0.400
  6
CONTINUOUS
 10
67.99400
 20
157.64700
 30
 0
 11
68.61500
 21
160.40700
  0
LINE
  8
Gravur
 62
   255
 39
0.400
  6
CONTINUOUS
 10
69.39700
 20
160.40700
 30
 0
 11
69.39700
 21
157.64700
  0
LINE
  8
Gravur
 62
   255
 39
0.400
  6
CONTINUOUS
 10
70.17900
 20
157.64700
 30
 0
 11
70.17900
 21
160.40700
  0
LINE
  8
Gravur
 62
   255
 39
0.400
  6
CONTINUOUS
 10
70.17900
 20
160.40700
 30
 0
 11
70.73100
 21
160.40700
  0
ARC
  8
Gravur
 62
   255
 39
0.400
  6
CONTINUOUS
 10
70.73500
 20
159.72100
 30
 0
 40
0.68600
 50
359.66592
 51
90.33408
  0
LINE
  8
Gravur
 62
   255
 39
0.400
  6
CONTINUOUS
 10
71.42100
 20
159.71700
 30
 0
 11
71.42100
 21
158.33700
  0
ARC
  8
Gravur
 62
   255
 39
0.400
  6
CONTINUOUS
 10
70.73500
 20
158.33300
 30
 0
 40
0.68600
 50
269.66592
 51
0.33408
  0
LINE
  8
Gravur
 62
   255
 39
0.400
  6
CONTINUOUS
 10
70.73100
 20
157.64700
 30
 0
 11
70.17900
 21
157.64700
  0
LINE
  8
Gravur
 62
   255
 39
0.400
  6
CONTINUOUS
 10
72.20300
 20
160.40700
 30
 0
 11
73.44500
 21
160.40700
  0
LINE
  8
Gravur
 62
   255
 39
0.400
  6
CONTINUOUS
 10
73.44500
 20
160.40700
 30
 0
 11
72.82400
 21
160.40700
  0
LINE
  8
Gravur
 62
   255
 39
0.400
  6
CONTINUOUS
 10
72.82400
 20
160.40700
 30
 0
 11
72.82400
 21
157.64700
  0
LINE
  8
Gravur
 62
   255
 39
0.400
  6
CONTINUOUS
 10
74.22700
 20
160.40700
 30
 0
 11
74.22700
 21
157.64700
  0
LINE
  8
Gravur
 62
   255
 39
0.400
  6
CONTINUOUS
 10
74.22700
 20
159.02700
 30
 0
 11
75.46900
 21
159.02700
  0
LINE
  8
Gravur
 62
   255
 39
0.400
  6
CONTINUOUS
 10
75.46900
 20
157.64700
 30
 0
 11
75.46900
 21
160.40700
  0
ARC
  8
Gravur
 62
   255
 39
0.400
  6
CONTINUOUS
 10
79.00400
 20
159.83700
 30
 0
 40
0.57000
 50
91.60788
 51
-174.86924
  0
ARC
  8
Gravur
 62
   255
 39
0.400
  6
CONTINUOUS
 10
79.01700
 20
159.80700
 30
 0
 40
0.60100
 50
330.40873
 51
92.76714
  0
LINE
  8
Gravur
 62
   255
 39
0.400
  6
CONTINUOUS
 10
79.54000
 20
159.51000
 30
 0
 11
78.43600
 21
157.64700
  0
LINE
  8
Gravur
 62
   255
 39
0.400
  6
CONTINUOUS
 10
78.43600
 20
157.64700
 30
 0
 11
79.60900
 21
157.64700
  0
LINE
  8
Gravur
 62
   255
 39
0.400
  6
CONTINUOUS
 10
62.96200
 20
156.22200
 30
 0
 11
62.96200
 21
153.46200
  0
LINE
  8
Gravur
 62
   255
 39
0.400
  6
CONTINUOUS
 10
62.96200
 20
153.46200
 30
 0
 11
63.85900
 21
153.46200
  0
LINE
  8
Gravur
 62
   255
 39
0.400
  6
CONTINUOUS
 10
64.64100
 20
154.42800
 30
 0
 11
65.74500
 21
154.42800
  0
LINE
  8
Gravur
 62
   255
 39
0.400
  6
CONTINUOUS
 10
65.74500
 20
154.42800
 30
 0
 11
65.74500
 21
154.77300
  0
ARC
  8
Gravur
 62
   255
 39
0.400
  6
CONTINUOUS
 10
65.19300
 20
154.71500
 30
 0
 40
0.55500
 50
5.99820
 51
174.00180
  0
LINE
  8
Gravur
 62
   255
 39
0.400
  6
CONTINUOUS
 10
64.64100
 20
154.77300
 30
 0
 11
64.64100
 21
153.94500
  0
ARC
  8
Gravur
 62
   255
 39
0.400
  6
CONTINUOUS
 10
65.19300
 20
154.01900
 30
 0
 40
0.55700
 50
-172.36457
 51
-7.63543
  0
LINE
  8
Gravur
 62
   255
 39
0.400
  6
CONTINUOUS
 10
66.52700
 20
155.25600
 30
 0
 11
67.07900
 21
153.46200
  0
LINE
  8
Gravur
 62
   255
 39
0.400
  6
CONTINUOUS
 10
67.07900
 20
153.46200
 30
 0
 11
67.63100
 21
155.25600
  0
LINE
  8
Gravur
 62
   255
 39
0.400
  6
CONTINUOUS
 10
68.41300
 20
154.42800
 30
 0
 11
69.51700
 21
154.42800
  0
LINE
  8
Gravur
 62
   255
 39
0.400
  6
CONTINUOUS
 10
69.51700
 20
154.42800
 30
 0
 11
69.51700
 21
154.77300
  0
ARC
  8
Gravur
 62
   255
 39
0.400
  6
CONTINUOUS
 10
68.96500
 20
154.71500
 30
 0
 40
0.55500
 50
5.99820
 51
174.00180
  0
LINE
  8
Gravur
 62
   255
 39
0.400
  6
CONTINUOUS
 10
68.41300
 20
154.77300
 30
 0
 11
68.41300
 21
153.94500
  0
ARC
  8
Gravur
 62
   255
 39
0.400
  6
CONTINUOUS
 10
68.96500
 20
154.01900
 30
 0
 40
0.55700
 50
-172.36457
 51
-7.63543
  0
LINE
  8
Gravur
 62
   255
 39
0.400
  6
CONTINUOUS
 10
70.27600
 20
156.22200
 30
 0
 11
70.27600
 21
153.80700
  0
ARC
  8
Gravur
 62
   255
 39
0.400
  6
CONTINUOUS
 10
70.66100
 20
153.84700
 30
 0
 40
0.38700
 50
-174.06847
 51
-95.93153
  0
LINE
  8
Gravur
 62
   255
 39
0.600
  6
CONTINUOUS
 10
67.18400
 20
146.25000
 30
 0
 11
67.18400
 21
138.69000
  0
ARC
  8
Gravur
 62
   255
 39
0.400
  6
CONTINUOUS
 10
153.83500
 20
108.73100
 30
 0
 40
0.69000
 50
180.00000
 51
360.00000
  0
ARC
  8
Gravur
 62
   255
 39
0.400
  6
CONTINUOUS
 10
153.83900
 20
108.73500
 30
 0
 40
0.68600
 50
-0.33408
 51
90.33408
  0
ARC
  8
Gravur
 62
   255
 39
0.400
  6
CONTINUOUS
 10
153.83500
 20
110.11100
 30
 0
 40
0.69000
 50
90.00000
 51
-90.00000
  0
ARC
  8
Gravur
 62
   255
 39
0.400
  6
CONTINUOUS
 10
153.83900
 20
110.11500
 30
 0
 40
0.68600
 50
359.66592
 51
90.33408
  0
ARC
  8
Gravur
 62
   255
 39
0.400
  6
CONTINUOUS
 10
155.92800
 20
108.66200
 30
 0
 40
0.62100
 50
180.00000
 51
360.00000
  0
LINE
  8
Gravur
 62
   255
 39
0.400
  6
CONTINUOUS
 10
156.54900
 20
108.66200
 30
 0
 11
156.54900
 21
110.18000
  0
ARC
  8
Gravur
 62
   255
 39
0.400
  6
CONTINUOUS
 10
155.92800
 20
110.18000
 30
 0
 40
0.62100
 50
0.00000
 51
180.00000
  0
LINE
  8
Gravur
 62
   255
 39
0.400
  6
CONTINUOUS
 10
155.30700
 20
110.18000
 30
 0
 11
155.30700
 21
108.66200
  0
LINE
  8
Gravur
 62
   255
 39
0.400
  6
CONTINUOUS
 10
158.43500
 20
110.80100
 30
 0
 11
157.33100
 21
110.80100
  0
LINE
  8
Gravur
 62
   255
 39
0.400
  6
CONTINUOUS
 10
157.33100
 20
110.80100
 30
 0
 11
157.33100
 21
108.04100
  0
LINE
  8
Gravur
 62
   255
 39
0.400
  6
CONTINUOUS
 10
157.33100
 20
108.04100
 30
 0
 11
157.33100
 21
109.42100
  0
LINE
  8
Gravur
 62
   255
 39
0.400
  6
CONTINUOUS
 10
157.33100
 20
109.42100
 30
 0
 11
158.02100
 21
109.42100
  0
LINE
  8
Gravur
 62
   255
 39
0.400
  6
CONTINUOUS
 10
159.21700
 20
110.80100
 30
 0
 11
160.45900
 21
110.80100
  0
LINE
  8
Gravur
 62
   255
 39
0.400
  6
CONTINUOUS
 10
160.45900
 20
110.80100
 30
 0
 11
159.83800
 21
110.80100
  0
LINE
  8
Gravur
 62
   255
 39
0.400
  6
CONTINUOUS
 10
159.83800
 20
110.80100
 30
 0
 11
159.83800
 21
108.04100
  0
ARC
  8
Gravur
 62
   255
 39
0.400
  6
CONTINUOUS
 10
164.13900
 20
108.73100
 30
 0
 40
0.69000
 50
180.00000
 51
360.00000
  0
ARC
  8
Gravur
 62
   255
 39
0.400
  6
CONTINUOUS
 10
164.14300
 20
108.73500
 30
 0
 40
0.68600
 50
-0.33408
 51
90.33408
  0
ARC
  8
Gravur
 62
   255
 39
0.400
  6
CONTINUOUS
 10
164.13900
 20
110.11100
 30
 0
 40
0.69000
 50
90.00000
 51
-90.00000
  0
ARC
  8
Gravur
 62
   255
 39
0.400
  6
CONTINUOUS
 10
164.14300
 20
110.11500
 30
 0
 40
0.68600
 50
359.66592
 51
90.33408
  0
LINE
  8
Gravur
 62
   255
 39
0.400
  6
CONTINUOUS
 10
165.61100
 20
110.80100
 30
 0
 11
166.23200
 21
109.07600
  0
LINE
  8
Gravur
 62
   255
 39
0.400
  6
CONTINUOUS
 10
166.23200
 20
109.07600
 30
 0
 11
166.23200
 21
108.04100
  0
LINE
  8
Gravur
 62
   255
 39
0.400
  6
CONTINUOUS
 10
166.23200
 20
108.04100
 30
 0
 11
166.23200
 21
109.07600
  0
LINE
  8
Gravur
 62
   255
 39
0.400
  6
CONTINUOUS
 10
166.23200
 20
109.07600
 30
 0
 11
166.85300
 21
110.80100
  0
LINE
  8
Gravur
 62
   255
 39
0.400
  6
CONTINUOUS
 10
167.63500
 20
108.04100
 30
 0
 11
167.63500
 21
110.80100
  0
LINE
  8
Gravur
 62
   255
 39
0.400
  6
CONTINUOUS
 10
167.63500
 20
110.80100
 30
 0
 11
168.87700
 21
108.04100
  0
LINE
  8
Gravur
 62
   255
 39
0.400
  6
CONTINUOUS
 10
168.87700
 20
108.04100
 30
 0
 11
168.87700
 21
110.80100
  0
ARC
  8
Gravur
 62
   255
 39
0.400
  6
CONTINUOUS
 10
170.25700
 20
110.20300
 30
 0
 40
0.59800
 50
0.00000
 51
180.00000
  0
LINE
  8
Gravur
 62
   255
 39
0.400
  6
CONTINUOUS
 10
169.65900
 20
110.20300
 30
 0
 11
169.65900
 21
108.63900
  0
ARC
  8
Gravur
 62
   255
 39
0.400
  6
CONTINUOUS
 10
170.25700
 20
108.63900
 30
 0
 40
0.59800
 50
180.00000
 51
360.00000
  0
LINE
  8
Gravur
 62
   255
 39
0.400
  6
CONTINUOUS
 10
153.16200
 20
161.57200
 30
 0
 11
153.78300
 21
158.81200
  0
LINE
  8
Gravur
 62
   255
 39
0.400
  6
CONTINUOUS
 10
153.78300
 20
158.81200
 30
 0
 11
154.40400
 21
161.57200
  0
ARC
  8
Gravur
 62
   255
 39
0.400
  6
CONTINUOUS
 10
155.78400
 20
160.97400
 30
 0
 40
0.59800
 50
0.00000
 51
180.00000
  0
LINE
  8
Gravur
 62
   255
 39
0.400
  6
CONTINUOUS
 10
155.18600
 20
160.97400
 30
 0
 11
155.18600
 21
159.41000
  0
ARC
  8
Gravur
 62
   255
 39
0.400
  6
CONTINUOUS
 10
155.78400
 20
159.41000
 30
 0
 40
0.59800
 50
180.00000
 51
360.00000
  0
ARC
  8
Gravur
 62
   255
 39
0.400
  6
CONTINUOUS
 10
157.78500
 20
159.43300
 30
 0
 40
0.62100
 50
180.00000
 51
360.00000
  0
LINE
  8
Gravur
 62
   255
 39
0.400
  6
CONTINUOUS
 10
158.40600
 20
159.43300
 30
 0
 11
158.40600
 21
160.95100
  0
ARC
  8
Gravur
 62
   255
 39
0.400
  6
CONTINUOUS
 10
157.78500
 20
160.95100
 30
 0
 40
0.62100
 50
0.00000
 51
180.00000
  0
LINE
  8
Gravur
 62
   255
 39
0.400
  6
CONTINUOUS
 10
157.16400
 20
160.95100
 30
 0
 11
157.16400
 21
159.43300
  0
LINE
  8
Gravur
 62
   255
 39
0.400
  6
CONTINUOUS
 10
153.74600
 20
140.66000
 30
 0
 11
153.74600
 21
137.90000
  0
LINE
  8
Gravur
 62
   255
 39
0.400
  6
CONTINUOUS
 10
153.74600
 20
137.90000
 30
 0
 11
154.64300
 21
137.90000
  0
LINE
  8
Gravur
 62
   255
 39
0.400
  6
CONTINUOUS
 10
156.52900
 20
140.66000
 30
 0
 11
155.42500
 21
140.66000
  0
LINE
  8
Gravur
 62
   255
 39
0.400
  6
CONTINUOUS
 10
155.42500
 20
140.66000
 30
 0
 11
155.42500
 21
137.90000
  0
LINE
  8
Gravur
 62
   255
 39
0.400
  6
CONTINUOUS
 10
155.42500
 20
137.90000
 30
 0
 11
155.42500
 21
139.28000
  0
LINE
  8
Gravur
 62
   255
 39
0.400
  6
CONTINUOUS
 10
155.42500
 20
139.28000
 30
 0
 11
156.11500
 21
139.28000
  0
ARC
  8
Gravur
 62
   255
 39
0.400
  6
CONTINUOUS
 10
157.93200
 20
138.52100
 30
 0
 40
0.62100
 50
180.00000
 51
360.00000
  0
LINE
  8
Gravur
 62
   255
 39
0.400
  6
CONTINUOUS
 10
158.55300
 20
138.52100
 30
 0
 11
158.55300
 21
140.03900
  0
ARC
  8
Gravur
 62
   255
 39
0.400
  6
CONTINUOUS
 10
157.93200
 20
140.03900
 30
 0
 40
0.62100
 50
0.00000
 51
180.00000
  0
LINE
  8
Gravur
 62
   255
 39
0.400
  6
CONTINUOUS
 10
157.31100
 20
140.03900
 30
 0
 11
157.31100
 21
138.52100
  0
LINE
  8
Gravur
 62
   255
 39
0.600
  6
CONTINUOUS
 10
67.40700
 20
96.65000
 30
 0
 11
67.40700
 21
89.09000
  0
ARC
  8
Gravur
 62
   255
 39
0.400
  6
CONTINUOUS
 10
60.20500
 20
100.53100
 30
 0
 40
0.69000
 50
180.00000
 51
360.00000
  0
ARC
  8
Gravur
 62
   255
 39
0.400
  6
CONTINUOUS
 10
60.20900
 20
100.53500
 30
 0
 40
0.68600
 50
-0.33408
 51
90.33408
  0
ARC
  8
Gravur
 62
   255
 39
0.400
  6
CONTINUOUS
 10
60.20500
 20
101.91100
 30
 0
 40
0.69000
 50
90.00000
 51
-90.00000
  0
ARC
  8
Gravur
 62
   255
 39
0.400
  6
CONTINUOUS
 10
60.20900
 20
101.91500
 30
 0
 40
0.68600
 50
359.66592
 51
90.33408
  0
LINE
  8
Gravur
 62
   255
 39
0.400
  6
CONTINUOUS
 10
61.67700
 20
102.60100
 30
 0
 11
61.67700
 21
99.84100
  0
LINE
  8
Gravur
 62
   255
 39
0.400
  6
CONTINUOUS
 10
62.45900
 20
99.84100
 30
 0
 11
62.45900
 21
102.60100
  0
LINE
  8
Gravur
 62
   255
 39
0.400
  6
CONTINUOUS
 10
62.45900
 20
102.60100
 30
 0
 11
63.70100
 21
99.84100
  0
LINE
  8
Gravur
 62
   255
 39
0.400
  6
CONTINUOUS
 10
63.70100
 20
99.84100
 30
 0
 11
63.70100
 21
102.60100
  0
LINE
  8
Gravur
 62
   255
 39
0.400
  6
CONTINUOUS
 10
66.66800
 20
102.60100
 30
 0
 11
66.66800
 21
99.84100
  0
LINE
  8
Gravur
 62
   255
 39
0.400
  6
CONTINUOUS
 10
66.66800
 20
99.84100
 30
 0
 11
67.56500
 21
99.84100
  0
LINE
  8
Gravur
 62
   255
 39
0.400
  6
CONTINUOUS
 10
69.58900
 20
102.60100
 30
 0
 11
68.34700
 21
102.60100
  0
LINE
  8
Gravur
 62
   255
 39
0.400
  6
CONTINUOUS
 10
68.34700
 20
102.60100
 30
 0
 11
68.34700
 21
99.84100
  0
LINE
  8
Gravur
 62
   255
 39
0.400
  6
CONTINUOUS
 10
68.34700
 20
99.84100
 30
 0
 11
69.58900
 21
99.84100
  0
LINE
  8
Gravur
 62
   255
 39
0.400
  6
CONTINUOUS
 10
68.34700
 20
101.22100
 30
 0
 11
69.38200
 21
101.22100
  0
LINE
  8
Gravur
 62
   255
 39
0.400
  6
CONTINUOUS
 10
70.37100
 20
102.60100
 30
 0
 11
70.99200
 21
99.84100
  0
LINE
  8
Gravur
 62
   255
 39
0.400
  6
CONTINUOUS
 10
70.99200
 20
99.84100
 30
 0
 11
71.61300
 21
102.60100
  0
LINE
  8
Gravur
 62
   255
 39
0.400
  6
CONTINUOUS
 10
73.63700
 20
102.60100
 30
 0
 11
72.39500
 21
102.60100
  0
LINE
  8
Gravur
 62
   255
 39
0.400
  6
CONTINUOUS
 10
72.39500
 20
102.60100
 30
 0
 11
72.39500
 21
99.84100
  0
LINE
  8
Gravur
 62
   255
 39
0.400
  6
CONTINUOUS
 10
72.39500
 20
99.84100
 30
 0
 11
73.63700
 21
99.84100
  0
LINE
  8
Gravur
 62
   255
 39
0.400
  6
CONTINUOUS
 10
72.39500
 20
101.22100
 30
 0
 11
73.43000
 21
101.22100
  0
LINE
  8
Gravur
 62
   255
 39
0.400
  6
CONTINUOUS
 10
74.39600
 20
102.60100
 30
 0
 11
74.39600
 21
99.84100
  0
LINE
  8
Gravur
 62
   255
 39
0.400
  6
CONTINUOUS
 10
74.39600
 20
99.84100
 30
 0
 11
75.29300
 21
99.84100
  0
LINE
  8
Gravur
 62
   255
 39
0.600
  6
CONTINUOUS
 10
22.32100
 20
96.65000
 30
 0
 11
22.32100
 21
89.09000
  0
LINE
  8
Gravur
 62
   255
 39
0.400
  6
CONTINUOUS
 10
14.47600
 20
102.60100
 30
 0
 11
15.71800
 21
102.60100
  0
LINE
  8
Gravur
 62
   255
 39
0.400
  6
CONTINUOUS
 10
15.71800
 20
102.60100
 30
 0
 11
15.09700
 21
102.60100
  0
LINE
  8
Gravur
 62
   255
 39
0.400
  6
CONTINUOUS
 10
15.09700
 20
102.60100
 30
 0
 11
15.09700
 21
99.84100
  0
LINE
  8
Gravur
 62
   255
 39
0.400
  6
CONTINUOUS
 10
16.47700
 20
99.84100
 30
 0
 11
16.47700
 21
102.60100
  0
LINE
  8
Gravur
 62
   255
 39
0.400
  6
CONTINUOUS
 10
16.47700
 20
102.60100
 30
 0
 11
17.09800
 21
102.60100
  0
ARC
  8
Gravur
 62
   255
 39
0.400
  6
CONTINUOUS
 10
17.09800
 20
101.91100
 30
 0
 40
0.69000
 50
270.00000
 51
90.00000
  0
LINE
  8
Gravur
 62
   255
 39
0.400
  6
CONTINUOUS
 10
17.09800
 20
101.22100
 30
 0
 11
16.47700
 21
101.22100
  0
LINE
  8
Gravur
 62
   255
 39
0.400
  6
CONTINUOUS
 10
16.47700
 20
101.22100
 30
 0
 11
17.09800
 21
101.22100
  0
LINE
  8
Gravur
 62
   255
 39
0.400
  6
CONTINUOUS
 10
17.09800
 20
101.22100
 30
 0
 11
17.78800
 21
99.84100
  0
LINE
  8
Gravur
 62
   255
 39
0.400
  6
CONTINUOUS
 10
18.57000
 20
102.60100
 30
 0
 11
18.57000
 21
99.84100
  0
LINE
  8
Gravur
 62
   255
 39
0.400
  6
CONTINUOUS
 10
21.53700
 20
102.60100
 30
 0
 11
21.53700
 21
99.84100
  0
LINE
  8
Gravur
 62
   255
 39
0.400
  6
CONTINUOUS
 10
21.53700
 20
99.84100
 30
 0
 11
22.43400
 21
99.84100
  0
LINE
  8
Gravur
 62
   255
 39
0.400
  6
CONTINUOUS
 10
24.45800
 20
102.60100
 30
 0
 11
23.21600
 21
102.60100
  0
LINE
  8
Gravur
 62
   255
 39
0.400
  6
CONTINUOUS
 10
23.21600
 20
102.60100
 30
 0
 11
23.21600
 21
99.84100
  0
LINE
  8
Gravur
 62
   255
 39
0.400
  6
CONTINUOUS
 10
23.21600
 20
99.84100
 30
 0
 11
24.45800
 21
99.84100
  0
LINE
  8
Gravur
 62
   255
 39
0.400
  6
CONTINUOUS
 10
23.21600
 20
101.22100
 30
 0
 11
24.25100
 21
101.22100
  0
LINE
  8
Gravur
 62
   255
 39
0.400
  6
CONTINUOUS
 10
25.24000
 20
102.60100
 30
 0
 11
25.86100
 21
99.84100
  0
LINE
  8
Gravur
 62
   255
 39
0.400
  6
CONTINUOUS
 10
25.86100
 20
99.84100
 30
 0
 11
26.48200
 21
102.60100
  0
LINE
  8
Gravur
 62
   255
 39
0.400
  6
CONTINUOUS
 10
28.50600
 20
102.60100
 30
 0
 11
27.26400
 21
102.60100
  0
LINE
  8
Gravur
 62
   255
 39
0.400
  6
CONTINUOUS
 10
27.26400
 20
102.60100
 30
 0
 11
27.26400
 21
99.84100
  0
LINE
  8
Gravur
 62
   255
 39
0.400
  6
CONTINUOUS
 10
27.26400
 20
99.84100
 30
 0
 11
28.50600
 21
99.84100
  0
LINE
  8
Gravur
 62
   255
 39
0.400
  6
CONTINUOUS
 10
27.26400
 20
101.22100
 30
 0
 11
28.29900
 21
101.22100
  0
LINE
  8
Gravur
 62
   255
 39
0.400
  6
CONTINUOUS
 10
29.26500
 20
102.60100
 30
 0
 11
29.26500
 21
99.84100
  0
LINE
  8
Gravur
 62
   255
 39
0.400
  6
CONTINUOUS
 10
29.26500
 20
99.84100
 30
 0
 11
30.16200
 21
99.84100
  0
LINE
  8
Gravur
 62
   255
 39
0.600
  6
CONTINUOUS
 10
152.34000
 20
96.96500
 30
 0
 11
152.34000
 21
89.40500
  0
LINE
  8
Gravur
 62
   255
 39
0.400
  6
CONTINUOUS
 10
141.95600
 20
101.53600
 30
 0
 11
142.57700
 21
101.53600
  0
ARC
  8
Gravur
 62
   255
 39
0.400
  6
CONTINUOUS
 10
142.57700
 20
102.22600
 30
 0
 40
0.69000
 50
-90.00000
 51
90.00000
  0
LINE
  8
Gravur
 62
   255
 39
0.400
  6
CONTINUOUS
 10
142.57700
 20
102.91600
 30
 0
 11
141.95600
 21
102.91600
  0
LINE
  8
Gravur
 62
   255
 39
0.400
  6
CONTINUOUS
 10
141.95600
 20
102.91600
 30
 0
 11
141.95600
 21
100.15600
  0
LINE
  8
Gravur
 62
   255
 39
0.400
  6
CONTINUOUS
 10
144.04900
 20
102.91600
 30
 0
 11
144.04900
 21
100.77700
  0
ARC
  8
Gravur
 62
   255
 39
0.400
  6
CONTINUOUS
 10
144.67000
 20
100.77700
 30
 0
 40
0.62100
 50
180.00000
 51
360.00000
  0
LINE
  8
Gravur
 62
   255
 39
0.400
  6
CONTINUOUS
 10
145.29100
 20
100.77700
 30
 0
 11
145.29100
 21
102.91600
  0
LINE
  8
Gravur
 62
   255
 39
0.400
  6
CONTINUOUS
 10
146.05000
 20
102.91600
 30
 0
 11
146.05000
 21
100.15600
  0
LINE
  8
Gravur
 62
   255
 39
0.400
  6
CONTINUOUS
 10
146.05000
 20
100.15600
 30
 0
 11
146.94700
 21
100.15600
  0
ARC
  8
Gravur
 62
   255
 39
0.400
  6
CONTINUOUS
 10
148.41900
 20
100.84600
 30
 0
 40
0.69000
 50
180.00000
 51
360.00000
  0
ARC
  8
Gravur
 62
   255
 39
0.400
  6
CONTINUOUS
 10
148.42300
 20
100.85000
 30
 0
 40
0.68600
 50
-0.33408
 51
90.33408
  0
ARC
  8
Gravur
 62
   255
 39
0.400
  6
CONTINUOUS
 10
148.41900
 20
102.22600
 30
 0
 40
0.69000
 50
90.00000
 51
-90.00000
  0
ARC
  8
Gravur
 62
   255
 39
0.400
  6
CONTINUOUS
 10
148.42300
 20
102.23000
 30
 0
 40
0.68600
 50
359.66592
 51
90.33408
  0
LINE
  8
Gravur
 62
   255
 39
0.400
  6
CONTINUOUS
 10
151.13300
 20
102.91600
 30
 0
 11
149.89100
 21
102.91600
  0
LINE
  8
Gravur
 62
   255
 39
0.400
  6
CONTINUOUS
 10
149.89100
 20
102.91600
 30
 0
 11
149.89100
 21
100.15600
  0
LINE
  8
Gravur
 62
   255
 39
0.400
  6
CONTINUOUS
 10
149.89100
 20
100.15600
 30
 0
 11
151.13300
 21
100.15600
  0
LINE
  8
Gravur
 62
   255
 39
0.400
  6
CONTINUOUS
 10
149.89100
 20
101.53600
 30
 0
 11
150.92600
 21
101.53600
  0
LINE
  8
Gravur
 62
   255
 39
0.400
  6
CONTINUOUS
 10
154.10000
 20
102.91600
 30
 0
 11
154.10000
 21
100.15600
  0
LINE
  8
Gravur
 62
   255
 39
0.400
  6
CONTINUOUS
 10
154.10000
 20
100.15600
 30
 0
 11
154.99700
 21
100.15600
  0
LINE
  8
Gravur
 62
   255
 39
0.400
  6
CONTINUOUS
 10
157.02100
 20
102.91600
 30
 0
 11
155.77900
 21
102.91600
  0
LINE
  8
Gravur
 62
   255
 39
0.400
  6
CONTINUOUS
 10
155.77900
 20
102.91600
 30
 0
 11
155.77900
 21
100.15600
  0
LINE
  8
Gravur
 62
   255
 39
0.400
  6
CONTINUOUS
 10
155.77900
 20
100.15600
 30
 0
 11
157.02100
 21
100.15600
  0
LINE
  8
Gravur
 62
   255
 39
0.400
  6
CONTINUOUS
 10
155.77900
 20
101.53600
 30
 0
 11
156.81400
 21
101.53600
  0
LINE
  8
Gravur
 62
   255
 39
0.400
  6
CONTINUOUS
 10
157.80300
 20
102.91600
 30
 0
 11
158.42400
 21
100.15600
  0
LINE
  8
Gravur
 62
   255
 39
0.400
  6
CONTINUOUS
 10
158.42400
 20
100.15600
 30
 0
 11
159.04500
 21
102.91600
  0
LINE
  8
Gravur
 62
   255
 39
0.400
  6
CONTINUOUS
 10
161.06900
 20
102.91600
 30
 0
 11
159.82700
 21
102.91600
  0
LINE
  8
Gravur
 62
   255
 39
0.400
  6
CONTINUOUS
 10
159.82700
 20
102.91600
 30
 0
 11
159.82700
 21
100.15600
  0
LINE
  8
Gravur
 62
   255
 39
0.400
  6
CONTINUOUS
 10
159.82700
 20
100.15600
 30
 0
 11
161.06900
 21
100.15600
  0
LINE
  8
Gravur
 62
   255
 39
0.400
  6
CONTINUOUS
 10
159.82700
 20
101.53600
 30
 0
 11
160.86200
 21
101.53600
  0
LINE
  8
Gravur
 62
   255
 39
0.400
  6
CONTINUOUS
 10
161.82800
 20
102.91600
 30
 0
 11
161.82800
 21
100.15600
  0
LINE
  8
Gravur
 62
   255
 39
0.400
  6
CONTINUOUS
 10
161.82800
 20
100.15600
 30
 0
 11
162.72500
 21
100.15600
  0
LINE
  8
Gravur
 62
   255
 39
0.600
  6
CONTINUOUS
 10
109.75900
 20
96.96500
 30
 0
 11
109.75900
 21
89.40500
  0
ARC
  8
Gravur
 62
   255
 39
0.400
  6
CONTINUOUS
 10
101.10900
 20
100.84600
 30
 0
 40
0.69000
 50
180.00000
 51
360.00000
  0
ARC
  8
Gravur
 62
   255
 39
0.400
  6
CONTINUOUS
 10
101.11300
 20
100.85000
 30
 0
 40
0.68600
 50
-0.33408
 51
90.33408
  0
ARC
  8
Gravur
 62
   255
 39
0.400
  6
CONTINUOUS
 10
101.10900
 20
102.22600
 30
 0
 40
0.69000
 50
90.00000
 51
-90.00000
  0
ARC
  8
Gravur
 62
   255
 39
0.400
  6
CONTINUOUS
 10
101.11300
 20
102.23000
 30
 0
 40
0.68600
 50
359.66592
 51
90.33408
  0
LINE
  8
Gravur
 62
   255
 39
0.400
  6
CONTINUOUS
 10
102.58100
 20
100.15600
 30
 0
 11
103.40900
 21
102.91600
  0
LINE
  8
Gravur
 62
   255
 39
0.400
  6
CONTINUOUS
 10
103.40900
 20
102.91600
 30
 0
 11
104.23700
 21
100.15600
  0
LINE
  8
Gravur
 62
   255
 39
0.400
  6
CONTINUOUS
 10
102.85700
 20
100.98400
 30
 0
 11
103.96100
 21
100.98400
  0
LINE
  8
Gravur
 62
   255
 39
0.400
  6
CONTINUOUS
 10
105.01900
 20
102.91600
 30
 0
 11
105.64000
 21
100.15600
  0
LINE
  8
Gravur
 62
   255
 39
0.400
  6
CONTINUOUS
 10
105.64000
 20
100.15600
 30
 0
 11
106.26100
 21
102.91600
  0
LINE
  8
Gravur
 62
   255
 39
0.400
  6
CONTINUOUS
 10
106.26100
 20
102.91600
 30
 0
 11
106.88200
 21
100.15600
  0
LINE
  8
Gravur
 62
   255
 39
0.400
  6
CONTINUOUS
 10
106.88200
 20
100.15600
 30
 0
 11
107.50300
 21
102.91600
  0
LINE
  8
Gravur
 62
   255
 39
0.400
  6
CONTINUOUS
 10
110.47000
 20
102.91600
 30
 0
 11
110.47000
 21
100.15600
  0
LINE
  8
Gravur
 62
   255
 39
0.400
  6
CONTINUOUS
 10
110.47000
 20
100.15600
 30
 0
 11
111.36700
 21
100.15600
  0
LINE
  8
Gravur
 62
   255
 39
0.400
  6
CONTINUOUS
 10
113.39100
 20
102.91600
 30
 0
 11
112.14900
 21
102.91600
  0
LINE
  8
Gravur
 62
   255
 39
0.400
  6
CONTINUOUS
 10
112.14900
 20
102.91600
 30
 0
 11
112.14900
 21
100.15600
  0
LINE
  8
Gravur
 62
   255
 39
0.400
  6
CONTINUOUS
 10
112.14900
 20
100.15600
 30
 0
 11
113.39100
 21
100.15600
  0
LINE
  8
Gravur
 62
   255
 39
0.400
  6
CONTINUOUS
 10
112.14900
 20
101.53600
 30
 0
 11
113.18400
 21
101.53600
  0
LINE
  8
Gravur
 62
   255
 39
0.400
  6
CONTINUOUS
 10
114.17300
 20
102.91600
 30
 0
 11
114.79400
 21
100.15600
  0
LINE
  8
Gravur
 62
   255
 39
0.400
  6
CONTINUOUS
 10
114.79400
 20
100.15600
 30
 0
 11
115.41500
 21
102.91600
  0
LINE
  8
Gravur
 62
   255
 39
0.400
  6
CONTINUOUS
 10
117.43900
 20
102.91600
 30
 0
 11
116.19700
 21
102.91600
  0
LINE
  8
Gravur
 62
   255
 39
0.400
  6
CONTINUOUS
 10
116.19700
 20
102.91600
 30
 0
 11
116.19700
 21
100.15600
  0
LINE
  8
Gravur
 62
   255
 39
0.400
  6
CONTINUOUS
 10
116.19700
 20
100.15600
 30
 0
 11
117.43900
 21
100.15600
  0
LINE
  8
Gravur
 62
   255
 39
0.400
  6
CONTINUOUS
 10
116.19700
 20
101.53600
 30
 0
 11
117.23200
 21
101.53600
  0
LINE
  8
Gravur
 62
   255
 39
0.400
  6
CONTINUOUS
 10
118.19800
 20
102.91600
 30
 0
 11
118.19800
 21
100.15600
  0
LINE
  8
Gravur
 62
   255
 39
0.400
  6
CONTINUOUS
 10
118.19800
 20
100.15600
 30
 0
 11
119.09500
 21
100.15600
  0
LINE
  8
Gravur
 62
   255
 39
0.400
  6
CONTINUOUS
 10
131.92400
 20
136.17700
 30
 0
 11
131.92400
 21
108.22300
  0
LINE
  8
Gravur
 62
   255
 39
0.400
  6
CONTINUOUS
 10
101.82200
 20
160.67500
 30
 0
 11
100.71800
 21
160.67500
  0
LINE
  8
Gravur
 62
   255
 39
0.400
  6
CONTINUOUS
 10
100.71800
 20
160.67500
 30
 0
 11
100.71800
 21
157.91500
  0
LINE
  8
Gravur
 62
   255
 39
0.400
  6
CONTINUOUS
 10
100.71800
 20
157.91500
 30
 0
 11
100.71800
 21
159.29500
  0
LINE
  8
Gravur
 62
   255
 39
0.400
  6
CONTINUOUS
 10
100.71800
 20
159.29500
 30
 0
 11
101.40800
 21
159.29500
  0
LINE
  8
Gravur
 62
   255
 39
0.400
  6
CONTINUOUS
 10
102.58100
 20
157.91500
 30
 0
 11
102.58100
 21
160.67500
  0
LINE
  8
Gravur
 62
   255
 39
0.400
  6
CONTINUOUS
 10
102.58100
 20
160.67500
 30
 0
 11
103.20200
 21
160.67500
  0
ARC
  8
Gravur
 62
   255
 39
0.400
  6
CONTINUOUS
 10
103.20200
 20
159.98500
 30
 0
 40
0.69000
 50
270.00000
 51
90.00000
  0
LINE
  8
Gravur
 62
   255
 39
0.400
  6
CONTINUOUS
 10
103.20200
 20
159.29500
 30
 0
 11
102.58100
 21
159.29500
  0
LINE
  8
Gravur
 62
   255
 39
0.400
  6
CONTINUOUS
 10
102.58100
 20
159.29500
 30
 0
 11
103.20200
 21
159.29500
  0
LINE
  8
Gravur
 62
   255
 39
0.400
  6
CONTINUOUS
 10
103.20200
 20
159.29500
 30
 0
 11
103.89200
 21
157.91500
  0
LINE
  8
Gravur
 62
   255
 39
0.400
  6
CONTINUOUS
 10
105.91600
 20
160.67500
 30
 0
 11
104.67400
 21
160.67500
  0
LINE
  8
Gravur
 62
   255
 39
0.400
  6
CONTINUOUS
 10
104.67400
 20
160.67500
 30
 0
 11
104.67400
 21
157.91500
  0
LINE
  8
Gravur
 62
   255
 39
0.400
  6
CONTINUOUS
 10
104.67400
 20
157.91500
 30
 0
 11
105.91600
 21
157.91500
  0
LINE
  8
Gravur
 62
   255
 39
0.400
  6
CONTINUOUS
 10
104.67400
 20
159.29500
 30
 0
 11
105.70900
 21
159.29500
  0
ARC
  8
Gravur
 62
   255
 39
0.400
  6
CONTINUOUS
 10
107.29600
 20
158.53600
 30
 0
 40
0.62100
 50
180.00000
 51
360.00000
  0
LINE
  8
Gravur
 62
   255
 39
0.400
  6
CONTINUOUS
 10
107.91700
 20
158.53600
 30
 0
 11
107.91700
 21
160.05400
  0
ARC
  8
Gravur
 62
   255
 39
0.400
  6
CONTINUOUS
 10
107.29600
 20
160.05400
 30
 0
 40
0.62100
 50
0.00000
 51
180.00000
  0
LINE
  8
Gravur
 62
   255
 39
0.400
  6
CONTINUOUS
 10
106.67500
 20
160.05400
 30
 0
 11
106.67500
 21
158.53600
  0
LINE
  8
Gravur
 62
   255
 39
0.400
  6
CONTINUOUS
 10
107.57200
 20
158.32900
 30
 0
 11
107.98600
 21
157.91500
  0
LINE
  8
Gravur
 62
   255
 39
0.400
  6
CONTINUOUS
 10
110.97600
 20
157.91500
 30
 0
 11
110.97600
 21
160.67500
  0
LINE
  8
Gravur
 62
   255
 39
0.400
  6
CONTINUOUS
 10
110.97600
 20
160.67500
 30
 0
 11
111.87300
 21
158.74300
  0
LINE
  8
Gravur
 62
   255
 39
0.400
  6
CONTINUOUS
 10
111.87300
 20
158.74300
 30
 0
 11
112.77000
 21
160.67500
  0
LINE
  8
Gravur
 62
   255
 39
0.400
  6
CONTINUOUS
 10
112.77000
 20
160.67500
 30
 0
 11
112.77000
 21
157.91500
  0
ARC
  8
Gravur
 62
   255
 39
0.400
  6
CONTINUOUS
 10
114.17300
 20
158.53600
 30
 0
 40
0.62100
 50
180.00000
 51
360.00000
  0
LINE
  8
Gravur
 62
   255
 39
0.400
  6
CONTINUOUS
 10
114.79400
 20
158.53600
 30
 0
 11
114.79400
 21
160.05400
  0
ARC
  8
Gravur
 62
   255
 39
0.400
  6
CONTINUOUS
 10
114.17300
 20
160.05400
 30
 0
 40
0.62100
 50
0.00000
 51
180.00000
  0
LINE
  8
Gravur
 62
   255
 39
0.400
  6
CONTINUOUS
 10
113.55200
 20
160.05400
 30
 0
 11
113.55200
 21
158.53600
  0
LINE
  8
Gravur
 62
   255
 39
0.400
  6
CONTINUOUS
 10
115.57600
 20
157.91500
 30
 0
 11
115.57600
 21
160.67500
  0
LINE
  8
Gravur
 62
   255
 39
0.400
  6
CONTINUOUS
 10
115.57600
 20
160.67500
 30
 0
 11
116.12800
 21
160.67500
  0
ARC
  8
Gravur
 62
   255
 39
0.400
  6
CONTINUOUS
 10
116.13200
 20
159.98900
 30
 0
 40
0.68600
 50
359.66592
 51
90.33408
  0
LINE
  8
Gravur
 62
   255
 39
0.400
  6
CONTINUOUS
 10
116.81800
 20
159.98500
 30
 0
 11
116.81800
 21
158.60500
  0
ARC
  8
Gravur
 62
   255
 39
0.400
  6
CONTINUOUS
 10
116.13200
 20
158.60100
 30
 0
 40
0.68600
 50
269.66592
 51
0.33408
  0
LINE
  8
Gravur
 62
   255
 39
0.400
  6
CONTINUOUS
 10
116.12800
 20
157.91500
 30
 0
 11
115.57600
 21
157.91500
  0
LINE
  8
Gravur
 62
   255
 39
0.600
  6
CONTINUOUS
 10
109.16100
 20
146.25000
 30
 0
 11
109.16100
 21
138.69000
  0
LINE
  8
Gravur
 62
   255
 39
0.400
  6
CONTINUOUS
 10
155.27600
 20
51.03900
 30
 0
 11
155.27600
 21
53.79900
  0
LINE
  8
Gravur
 62
   255
 39
0.400
  6
CONTINUOUS
 10
155.27600
 20
53.79900
 30
 0
 11
156.17300
 21
51.86700
  0
LINE
  8
Gravur
 62
   255
 39
0.400
  6
CONTINUOUS
 10
156.17300
 20
51.86700
 30
 0
 11
157.07000
 21
53.79900
  0
LINE
  8
Gravur
 62
   255
 39
0.400
  6
CONTINUOUS
 10
157.07000
 20
53.79900
 30
 0
 11
157.07000
 21
51.03900
  0
LINE
  8
Gravur
 62
   255
 39
0.400
  6
CONTINUOUS
 10
157.85200
 20
53.79900
 30
 0
 11
157.85200
 21
51.03900
  0
LINE
  8
Gravur
 62
   255
 39
0.400
  6
CONTINUOUS
 10
158.63400
 20
53.79900
 30
 0
 11
159.87600
 21
51.03900
  0
LINE
  8
Gravur
 62
   255
 39
0.400
  6
CONTINUOUS
 10
158.63400
 20
51.03900
 30
 0
 11
159.87600
 21
53.79900
  0
ARC
  8
Gravur
 62
   255
 39
0.400
  6
CONTINUOUS
 10
163.48700
 20
51.66000
 30
 0
 40
0.62100
 50
180.00000
 51
360.00000
  0
LINE
  8
Gravur
 62
   255
 39
0.400
  6
CONTINUOUS
 10
164.10800
 20
51.66000
 30
 0
 11
164.10800
 21
53.17800
  0
ARC
  8
Gravur
 62
   255
 39
0.400
  6
CONTINUOUS
 10
163.48700
 20
53.17800
 30
 0
 40
0.62100
 50
0.00000
 51
180.00000
  0
LINE
  8
Gravur
 62
   255
 39
0.400
  6
CONTINUOUS
 10
162.86600
 20
53.17800
 30
 0
 11
162.86600
 21
51.66000
  0
LINE
  8
Gravur
 62
   255
 39
0.400
  6
CONTINUOUS
 10
164.89000
 20
53.79900
 30
 0
 11
164.89000
 21
51.66000
  0
ARC
  8
Gravur
 62
   255
 39
0.400
  6
CONTINUOUS
 10
165.51100
 20
51.66000
 30
 0
 40
0.62100
 50
180.00000
 51
360.00000
  0
LINE
  8
Gravur
 62
   255
 39
0.400
  6
CONTINUOUS
 10
166.13200
 20
51.66000
 30
 0
 11
166.13200
 21
53.79900
  0
LINE
  8
Gravur
 62
   255
 39
0.400
  6
CONTINUOUS
 10
166.91400
 20
53.79900
 30
 0
 11
168.15600
 21
53.79900
  0
LINE
  8
Gravur
 62
   255
 39
0.400
  6
CONTINUOUS
 10
168.15600
 20
53.79900
 30
 0
 11
167.53500
 21
53.79900
  0
LINE
  8
Gravur
 62
   255
 39
0.400
  6
CONTINUOUS
 10
167.53500
 20
53.79900
 30
 0
 11
167.53500
 21
51.03900
  0
LINE
  8
Gravur
 62
   255
 39
0.400
  6
CONTINUOUS
 10
134.10800
 20
161.04800
 30
 0
 11
133.00400
 21
161.04800
  0
LINE
  8
Gravur
 62
   255
 39
0.400
  6
CONTINUOUS
 10
133.00400
 20
161.04800
 30
 0
 11
133.00400
 21
158.28800
  0
LINE
  8
Gravur
 62
   255
 39
0.400
  6
CONTINUOUS
 10
133.00400
 20
158.28800
 30
 0
 11
133.00400
 21
159.66800
  0
LINE
  8
Gravur
 62
   255
 39
0.400
  6
CONTINUOUS
 10
133.00400
 20
159.66800
 30
 0
 11
133.69400
 21
159.66800
  0
LINE
  8
Gravur
 62
   255
 39
0.400
  6
CONTINUOUS
 10
134.89000
 20
158.28800
 30
 0
 11
134.89000
 21
161.04800
  0
LINE
  8
Gravur
 62
   255
 39
0.400
  6
CONTINUOUS
 10
134.89000
 20
161.04800
 30
 0
 11
135.78700
 21
159.11600
  0
LINE
  8
Gravur
 62
   255
 39
0.400
  6
CONTINUOUS
 10
135.78700
 20
159.11600
 30
 0
 11
136.68400
 21
161.04800
  0
LINE
  8
Gravur
 62
   255
 39
0.400
  6
CONTINUOUS
 10
136.68400
 20
161.04800
 30
 0
 11
136.68400
 21
158.28800
  0
LINE
  8
Gravur
 62
   255
 39
0.400
  6
CONTINUOUS
 10
139.67400
 20
161.04800
 30
 0
 11
139.67400
 21
158.28800
  0
LINE
  8
Gravur
 62
   255
 39
0.400
  6
CONTINUOUS
 10
140.45600
 20
158.28800
 30
 0
 11
140.45600
 21
161.04800
  0
LINE
  8
Gravur
 62
   255
 39
0.400
  6
CONTINUOUS
 10
140.45600
 20
161.04800
 30
 0
 11
141.69800
 21
158.28800
  0
LINE
  8
Gravur
 62
   255
 39
0.400
  6
CONTINUOUS
 10
141.69800
 20
158.28800
 30
 0
 11
141.69800
 21
161.04800
  0
ARC
  8
Gravur
 62
   255
 39
0.400
  6
CONTINUOUS
 10
135.53300
 20
130.51300
 30
 0
 40
0.69000
 50
180.00000
 51
360.00000
  0
ARC
  8
Gravur
 62
   255
 39
0.400
  6
CONTINUOUS
 10
135.53700
 20
130.51700
 30
 0
 40
0.68600
 50
-0.33408
 51
90.33408
  0
ARC
  8
Gravur
 62
   255
 39
0.400
  6
CONTINUOUS
 10
135.53300
 20
131.89300
 30
 0
 40
0.69000
 50
90.00000
 51
-90.00000
  0
ARC
  8
Gravur
 62
   255
 39
0.400
  6
CONTINUOUS
 10
135.53700
 20
131.89700
 30
 0
 40
0.68600
 50
359.66592
 51
90.33408
  0
LINE
  8
Gravur
 62
   255
 39
0.400
  6
CONTINUOUS
 10
137.00500
 20
132.58300
 30
 0
 11
137.62600
 21
130.85800
  0
LINE
  8
Gravur
 62
   255
 39
0.400
  6
CONTINUOUS
 10
137.62600
 20
130.85800
 30
 0
 11
137.62600
 21
129.82300
  0
LINE
  8
Gravur
 62
   255
 39
0.400
  6
CONTINUOUS
 10
137.62600
 20
129.82300
 30
 0
 11
137.62600
 21
130.85800
  0
LINE
  8
Gravur
 62
   255
 39
0.400
  6
CONTINUOUS
 10
137.62600
 20
130.85800
 30
 0
 11
138.24700
 21
132.58300
  0
LINE
  8
Gravur
 62
   255
 39
0.400
  6
CONTINUOUS
 10
139.02900
 20
129.82300
 30
 0
 11
139.02900
 21
132.58300
  0
LINE
  8
Gravur
 62
   255
 39
0.400
  6
CONTINUOUS
 10
139.02900
 20
132.58300
 30
 0
 11
140.27100
 21
129.82300
  0
LINE
  8
Gravur
 62
   255
 39
0.400
  6
CONTINUOUS
 10
140.27100
 20
129.82300
 30
 0
 11
140.27100
 21
132.58300
  0
ARC
  8
Gravur
 62
   255
 39
0.400
  6
CONTINUOUS
 10
141.65100
 20
131.98500
 30
 0
 40
0.59800
 50
0.00000
 51
180.00000
  0
LINE
  8
Gravur
 62
   255
 39
0.400
  6
CONTINUOUS
 10
141.05300
 20
131.98500
 30
 0
 11
141.05300
 21
130.42100
  0
ARC
  8
Gravur
 62
   255
 39
0.400
  6
CONTINUOUS
 10
141.65100
 20
130.42100
 30
 0
 40
0.59800
 50
180.00000
 51
360.00000
  0
LINE
  8
Gravur
 62
   255
 39
0.600
  6
CONTINUOUS
 10
152.52700
 20
205.80000
 30
 0
 11
152.52700
 21
198.24000
  0
ARC
  8
Gravur
 62
   255
 39
0.400
  6
CONTINUOUS
 10
112.35900
 20
216.92100
 30
 0
 40
0.59800
 50
0.00000
 51
180.00000
  0
LINE
  8
Gravur
 62
   255
 39
0.400
  6
CONTINUOUS
 10
111.76100
 20
216.92100
 30
 0
 11
111.76100
 21
215.35700
  0
ARC
  8
Gravur
 62
   255
 39
0.400
  6
CONTINUOUS
 10
112.35900
 20
215.35700
 30
 0
 40
0.59800
 50
180.00000
 51
360.00000
  0
LINE
  8
Gravur
 62
   255
 39
0.400
  6
CONTINUOUS
 10
113.73900
 20
217.51900
 30
 0
 11
113.73900
 21
215.38000
  0
ARC
  8
Gravur
 62
   255
 39
0.400
  6
CONTINUOUS
 10
114.36000
 20
215.38000
 30
 0
 40
0.62100
 50
180.00000
 51
360.00000
  0
LINE
  8
Gravur
 62
   255
 39
0.400
  6
CONTINUOUS
 10
114.98100
 20
215.38000
 30
 0
 11
114.98100
 21
217.51900
  0
LINE
  8
Gravur
 62
   255
 39
0.400
  6
CONTINUOUS
 10
115.74000
 20
214.75900
 30
 0
 11
115.74000
 21
217.51900
  0
LINE
  8
Gravur
 62
   255
 39
0.400
  6
CONTINUOUS
 10
115.74000
 20
217.51900
 30
 0
 11
116.36100
 21
217.51900
  0
ARC
  8
Gravur
 62
   255
 39
0.400
  6
CONTINUOUS
 10
116.36100
 20
216.82900
 30
 0
 40
0.69000
 50
270.00000
 51
90.00000
  0
LINE
  8
Gravur
 62
   255
 39
0.400
  6
CONTINUOUS
 10
116.36100
 20
216.13900
 30
 0
 11
115.74000
 21
216.13900
  0
LINE
  8
Gravur
 62
   255
 39
0.400
  6
CONTINUOUS
 10
115.74000
 20
216.13900
 30
 0
 11
116.36100
 21
216.13900
  0
LINE
  8
Gravur
 62
   255
 39
0.400
  6
CONTINUOUS
 10
116.36100
 20
216.13900
 30
 0
 11
117.05100
 21
214.75900
  0
LINE
  8
Gravur
 62
   255
 39
0.400
  6
CONTINUOUS
 10
119.07500
 20
217.51900
 30
 0
 11
117.83300
 21
217.51900
  0
LINE
  8
Gravur
 62
   255
 39
0.400
  6
CONTINUOUS
 10
117.83300
 20
217.51900
 30
 0
 11
117.83300
 21
214.75900
  0
LINE
  8
Gravur
 62
   255
 39
0.400
  6
CONTINUOUS
 10
117.83300
 20
214.75900
 30
 0
 11
119.07500
 21
214.75900
  0
LINE
  8
Gravur
 62
   255
 39
0.400
  6
CONTINUOUS
 10
117.83300
 20
216.13900
 30
 0
 11
118.86800
 21
216.13900
  0
LINE
  8
Gravur
 62
   255
 39
0.400
  6
CONTINUOUS
 10
119.85700
 20
217.51900
 30
 0
 11
121.09900
 21
217.51900
  0
LINE
  8
Gravur
 62
   255
 39
0.400
  6
CONTINUOUS
 10
121.09900
 20
217.51900
 30
 0
 11
120.47800
 21
217.51900
  0
LINE
  8
Gravur
 62
   255
 39
0.400
  6
CONTINUOUS
 10
120.47800
 20
217.51900
 30
 0
 11
120.47800
 21
214.75900
  0
LINE
  8
Gravur
 62
   255
 39
0.400
  6
CONTINUOUS
 10
121.85800
 20
214.75900
 30
 0
 11
121.85800
 21
217.51900
  0
LINE
  8
Gravur
 62
   255
 39
0.400
  6
CONTINUOUS
 10
121.85800
 20
217.51900
 30
 0
 11
122.47900
 21
217.51900
  0
ARC
  8
Gravur
 62
   255
 39
0.400
  6
CONTINUOUS
 10
122.47900
 20
216.82900
 30
 0
 40
0.69000
 50
270.00000
 51
90.00000
  0
LINE
  8
Gravur
 62
   255
 39
0.400
  6
CONTINUOUS
 10
122.47900
 20
216.13900
 30
 0
 11
121.85800
 21
216.13900
  0
LINE
  8
Gravur
 62
   255
 39
0.400
  6
CONTINUOUS
 10
121.85800
 20
216.13900
 30
 0
 11
122.47900
 21
216.13900
  0
LINE
  8
Gravur
 62
   255
 39
0.400
  6
CONTINUOUS
 10
122.47900
 20
216.13900
 30
 0
 11
123.16900
 21
214.75900
  0
ARC
  8
Gravur
 62
   255
 39
0.400
  6
CONTINUOUS
 10
124.57200
 20
215.38000
 30
 0
 40
0.62100
 50
180.00000
 51
360.00000
  0
LINE
  8
Gravur
 62
   255
 39
0.400
  6
CONTINUOUS
 10
125.19300
 20
215.38000
 30
 0
 11
125.19300
 21
216.89800
  0
ARC
  8
Gravur
 62
   255
 39
0.400
  6
CONTINUOUS
 10
124.57200
 20
216.89800
 30
 0
 40
0.62100
 50
0.00000
 51
180.00000
  0
LINE
  8
Gravur
 62
   255
 39
0.400
  6
CONTINUOUS
 10
123.95100
 20
216.89800
 30
 0
 11
123.95100
 21
215.38000
  0
LINE
  8
Gravur
 62
   255
 39
0.400
  6
CONTINUOUS
 10
125.97500
 20
214.75900
 30
 0
 11
125.97500
 21
217.51900
  0
LINE
  8
Gravur
 62
   255
 39
0.400
  6
CONTINUOUS
 10
125.97500
 20
217.51900
 30
 0
 11
127.21700
 21
214.75900
  0
LINE
  8
Gravur
 62
   255
 39
0.400
  6
CONTINUOUS
 10
127.21700
 20
214.75900
 30
 0
 11
127.21700
 21
217.51900
  0
LINE
  8
Gravur
 62
   255
 39
0.400
  6
CONTINUOUS
 10
127.99900
 20
217.51900
 30
 0
 11
127.99900
 21
214.75900
  0
ARC
  8
Gravur
 62
   255
 39
0.400
  6
CONTINUOUS
 10
129.37900
 20
216.92100
 30
 0
 40
0.59800
 50
0.00000
 51
180.00000
  0
LINE
  8
Gravur
 62
   255
 39
0.400
  6
CONTINUOUS
 10
128.78100
 20
216.92100
 30
 0
 11
128.78100
 21
215.35700
  0
ARC
  8
Gravur
 62
   255
 39
0.400
  6
CONTINUOUS
 10
129.37900
 20
215.35700
 30
 0
 40
0.59800
 50
180.00000
 51
360.00000
  0
ARC
  8
Gravur
 62
   255
 39
0.400
  6
CONTINUOUS
 10
131.44900
 20
215.44900
 30
 0
 40
0.69000
 50
180.00000
 51
360.00000
  0
ARC
  8
Gravur
 62
   255
 39
0.400
  6
CONTINUOUS
 10
131.45300
 20
215.45300
 30
 0
 40
0.68600
 50
-0.33408
 51
90.33408
  0
ARC
  8
Gravur
 62
   255
 39
0.400
  6
CONTINUOUS
 10
131.44900
 20
216.82900
 30
 0
 40
0.69000
 50
90.00000
 51
-90.00000
  0
ARC
  8
Gravur
 62
   255
 39
0.400
  6
CONTINUOUS
 10
131.45300
 20
216.83300
 30
 0
 40
0.68600
 50
359.66592
 51
90.33408
  0
CIRCLE
  8
Kontur
 62
   7
 39
0.100
  6
CONTINUOUS
 10
82.55000
 20
215.90000
 30
 0
 40
2.75000
  0
CIRCLE
  8
Kontur
 62
   7
 39
0.100
  6
CONTINUOUS
 10
66.67200
 20
186.67000
 30
 0
 40
5.00000
  0
CIRCLE
  8
Kontur
 62
   7
 39
0.100
  6
CONTINUOUS
 10
6.35000
 20
215.90000
 30
 0
 40
2.75000
  0
CIRCLE
  8
Kontur
 62
   7
 39
0.100
  6
CONTINUOUS
 10
21.58700
 20
186.67000
 30
 0
 40
5.00000
  0
CIRCLE
  8
Kontur
 62
   7
 39
0.100
  6
CONTINUOUS
 10
82.55000
 20
6.35000
 30
 0
 40
2.75000
  0
CIRCLE
  8
Kontur
 62
   7
 39
0.100
  6
CONTINUOUS
 10
6.35000
 20
6.35000
 30
 0
 40
2.75000
  0
CIRCLE
  8
Kontur
 62
   7
 39
0.100
  6
CONTINUOUS
 10
21.58200
 20
128.31200
 30
 0
 40
5.25000
  0
CIRCLE
  8
Kontur
 62
   7
 39
0.100
  6
CONTINUOUS
 10
21.56100
 20
50.69400
 30
 0
 40
5.00000
  0
CIRCLE
  8
Kontur
 62
   7
 39
0.100
  6
CONTINUOUS
 10
21.33100
 20
28.89100
 30
 0
 40
5.00000
  0
CIRCLE
  8
Kontur
 62
   7
 39
0.100
  6
CONTINUOUS
 10
66.82000
 20
50.69300
 30
 0
 40
5.00000
  0
CIRCLE
  8
Kontur
 62
   7
 39
0.100
  6
CONTINUOUS
 10
66.12500
 20
28.42800
 30
 0
 40
5.00000
  0
CIRCLE
  8
Kontur
 62
   7
 39
0.100
  6
CONTINUOUS
 10
109.02500
 20
186.67000
 30
 0
 40
5.25000
  0
CIRCLE
  8
Kontur
 62
   7
 39
0.100
  6
CONTINUOUS
 10
108.99900
 20
51.00900
 30
 0
 40
5.00000
  0
CIRCLE
  8
Kontur
 62
   7
 39
0.100
  6
CONTINUOUS
 10
109.00000
 20
28.04700
 30
 0
 40
5.00000
  0
CIRCLE
  8
Kontur
 62
   7
 39
0.100
  6
CONTINUOUS
 10
139.89200
 20
50.54500
 30
 0
 40
5.00000
  0
CIRCLE
  8
Kontur
 62
   7
 39
0.100
  6
CONTINUOUS
 10
140.66000
 20
28.05000
 30
 0
 40
5.00000
  0
CIRCLE
  8
Kontur
 62
   7
 39
0.100
  6
CONTINUOUS
 10
162.00000
 20
119.45000
 30
 0
 40
5.00000
  0
CIRCLE
  8
Kontur
 62
   7
 39
0.100
  6
CONTINUOUS
 10
67.18200
 20
128.37400
 30
 0
 40
5.25000
  0
CIRCLE
  8
Kontur
 62
   7
 39
0.100
  6
CONTINUOUS
 10
162.00000
 20
148.29400
 30
 0
 40
5.00000
  0
CIRCLE
  8
Kontur
 62
   7
 39
0.100
  6
CONTINUOUS
 10
67.40400
 20
80.00000
 30
 0
 40
5.00000
  0
CIRCLE
  8
Kontur
 62
   7
 39
0.100
  6
CONTINUOUS
 10
22.31900
 20
80.00000
 30
 0
 40
5.00000
  0
CIRCLE
  8
Kontur
 62
   7
 39
0.100
  6
CONTINUOUS
 10
152.34000
 20
80.00000
 30
 0
 40
5.00000
  0
CIRCLE
  8
Kontur
 62
   7
 39
0.100
  6
CONTINUOUS
 10
109.75700
 20
80.00000
 30
 0
 40
5.00000
  0
CIRCLE
  8
Kontur
 62
   7
 39
0.100
  6
CONTINUOUS
 10
109.15900
 20
128.64200
 30
 0
 40
5.25000
  0
CIRCLE
  8
Kontur
 62
   7
 39
0.100
  6
CONTINUOUS
 10
167.85800
 20
216.63200
 30
 0
 40
2.75000
  0
CIRCLE
  8
Kontur
 62
   7
 39
0.100
  6
CONTINUOUS
 10
167.86000
 20
6.35000
 30
 0
 40
2.75000
  0
CIRCLE
  8
Kontur
 62
   7
 39
0.100
  6
CONTINUOUS
 10
162.40300
 20
43.37700
 30
 0
 40
5.00000
  0
CIRCLE
  8
Kontur
 62
   7
 39
0.100
  6
CONTINUOUS
 10
139.89000
 20
148.57500
 30
 0
 40
5.00000
  0
CIRCLE
  8
Kontur
 62
   7
 39
0.100
  6
CONTINUOUS
 10
139.89000
 20
119.87900
 30
 0
 40
5.00000
  0
CIRCLE
  8
Kontur
 62
   7
 39
0.100
  6
CONTINUOUS
 10
152.34000
 20
186.67000
 30
 0
 40
5.25000
  0
CIRCLE
  8
Kontur
 62
   7
 39
0.100
  6
CONTINUOUS
 10
82.55000
 20
100.90000
 30
 0
 40
2.75000
  0
CIRCLE
  8
Kontur
 62
   7
 39
0.100
  6
CONTINUOUS
 10
6.35000
 20
100.90000
 30
 0
 40
2.75000
  0
CIRCLE
  8
Kontur
 62
   7
 39
0.100
  6
CONTINUOUS
 10
167.86000
 20
101.63200
 30
 0
 40
2.75000
  0
LINE
  8
Bezugspunkte
 62
   1
 39
0.100
  6
CONTINUOUS
 10
-1.00000
 20
0.00000
 30
 0
 11
1.00000
 21
0.00000
  0
LINE
  8
Bezugspunkte
 62
   1
 39
0.100
  6
CONTINUOUS
 10
0.00000
 20
-1.00000
 30
 0
 11
0.00000
 21
1.00000
  0
LINE
  8
Bezugspunkte
 62
   1
 39
0.100
  6
CONTINUOUS
 10
81.55000
 20
215.90000
 30
 0
 11
83.55000
 21
215.90000
  0
LINE
  8
Bezugspunkte
 62
   1
 39
0.100
  6
CONTINUOUS
 10
82.55000
 20
214.90000
 30
 0
 11
82.55000
 21
216.90000
  0
LINE
  8
Bezugspunkte
 62
   1
 39
0.100
  6
CONTINUOUS
 10
65.67500
 20
201.73500
 30
 0
 11
67.67500
 21
201.73500
  0
LINE
  8
Bezugspunkte
 62
   1
 39
0.100
  6
CONTINUOUS
 10
66.67500
 20
200.73500
 30
 0
 11
66.67500
 21
202.73500
  0
LINE
  8
Bezugspunkte
 62
   1
 39
0.100
  6
CONTINUOUS
 10
65.67200
 20
210.57100
 30
 0
 11
67.67200
 21
210.57100
  0
LINE
  8
Bezugspunkte
 62
   1
 39
0.100
  6
CONTINUOUS
 10
66.67200
 20
209.57100
 30
 0
 11
66.67200
 21
211.57100
  0
LINE
  8
Bezugspunkte
 62
   1
 39
0.100
  6
CONTINUOUS
 10
65.67200
 20
186.67000
 30
 0
 11
67.67200
 21
186.67000
  0
LINE
  8
Bezugspunkte
 62
   1
 39
0.100
  6
CONTINUOUS
 10
66.67200
 20
185.67000
 30
 0
 11
66.67200
 21
187.67000
  0
LINE
  8
Bezugspunkte
 62
   1
 39
0.100
  6
CONTINUOUS
 10
5.35000
 20
215.90000
 30
 0
 11
7.35000
 21
215.90000
  0
LINE
  8
Bezugspunkte
 62
   1
 39
0.100
  6
CONTINUOUS
 10
6.35000
 20
214.90000
 30
 0
 11
6.35000
 21
216.90000
  0
LINE
  8
Bezugspunkte
 62
   1
 39
0.100
  6
CONTINUOUS
 10
20.58900
 20
202.00000
 30
 0
 11
22.58900
 21
202.00000
  0
LINE
  8
Bezugspunkte
 62
   1
 39
0.100
  6
CONTINUOUS
 10
21.58900
 20
201.00000
 30
 0
 11
21.58900
 21
203.00000
  0
LINE
  8
Bezugspunkte
 62
   1
 39
0.100
  6
CONTINUOUS
 10
20.58700
 20
210.57100
 30
 0
 11
22.58700
 21
210.57100
  0
LINE
  8
Bezugspunkte
 62
   1
 39
0.100
  6
CONTINUOUS
 10
21.58700
 20
209.57100
 30
 0
 11
21.58700
 21
211.57100
  0
LINE
  8
Bezugspunkte
 62
   1
 39
0.100
  6
CONTINUOUS
 10
20.58700
 20
186.67000
 30
 0
 11
22.58700
 21
186.67000
  0
LINE
  8
Bezugspunkte
 62
   1
 39
0.100
  6
CONTINUOUS
 10
21.58700
 20
185.67000
 30
 0
 11
21.58700
 21
187.67000
  0
LINE
  8
Bezugspunkte
 62
   1
 39
0.100
  6
CONTINUOUS
 10
81.55000
 20
6.35000
 30
 0
 11
83.55000
 21
6.35000
  0
LINE
  8
Bezugspunkte
 62
   1
 39
0.100
  6
CONTINUOUS
 10
82.55000
 20
5.35000
 30
 0
 11
82.55000
 21
7.35000
  0
LINE
  8
Bezugspunkte
 62
   1
 39
0.100
  6
CONTINUOUS
 10
20.19100
 20
158.98000
 30
 0
 11
22.19100
 21
158.98000
  0
LINE
  8
Bezugspunkte
 62
   1
 39
0.100
  6
CONTINUOUS
 10
21.19100
 20
157.98000
 30
 0
 11
21.19100
 21
159.98000
  0
LINE
  8
Bezugspunkte
 62
   1
 39
0.100
  6
CONTINUOUS
 10
43.45000
 20
216.15400
 30
 0
 11
45.45000
 21
216.15400
  0
LINE
  8
Bezugspunkte
 62
   1
 39
0.100
  6
CONTINUOUS
 10
44.45000
 20
215.15400
 30
 0
 11
44.45000
 21
217.15400
  0
LINE
  8
Bezugspunkte
 62
   1
 39
0.100
  6
CONTINUOUS
 10
5.35000
 20
6.35000
 30
 0
 11
7.35000
 21
6.35000
  0
LINE
  8
Bezugspunkte
 62
   1
 39
0.100
  6
CONTINUOUS
 10
6.35000
 20
5.35000
 30
 0
 11
6.35000
 21
7.35000
  0
LINE
  8
Bezugspunkte
 62
   1
 39
0.100
  6
CONTINUOUS
 10
20.58400
 20
142.50000
 30
 0
 11
22.58400
 21
142.50000
  0
LINE
  8
Bezugspunkte
 62
   1
 39
0.100
  6
CONTINUOUS
 10
21.58400
 20
141.50000
 30
 0
 11
21.58400
 21
143.50000
  0
LINE
  8
Bezugspunkte
 62
   1
 39
0.100
  6
CONTINUOUS
 10
20.58200
 20
128.31200
 30
 0
 11
22.58200
 21
128.31200
  0
LINE
  8
Bezugspunkte
 62
   1
 39
0.100
  6
CONTINUOUS
 10
21.58200
 20
127.31200
 30
 0
 11
21.58200
 21
129.31200
  0
LINE
  8
Bezugspunkte
 62
   1
 39
0.100
  6
CONTINUOUS
 10
86.73000
 20
163.60000
 30
 0
 11
88.73000
 21
163.60000
  0
LINE
  8
Bezugspunkte
 62
   1
 39
0.100
  6
CONTINUOUS
 10
87.73000
 20
162.60000
 30
 0
 11
87.73000
 21
164.60000
  0
LINE
  8
Bezugspunkte
 62
   1
 39
0.100
  6
CONTINUOUS
 10
20.56100
 20
50.69400
 30
 0
 11
22.56100
 21
50.69400
  0
LINE
  8
Bezugspunkte
 62
   1
 39
0.100
  6
CONTINUOUS
 10
21.56100
 20
49.69400
 30
 0
 11
21.56100
 21
51.69400
  0
LINE
  8
Bezugspunkte
 62
   1
 39
0.100
  6
CONTINUOUS
 10
20.33100
 20
28.89100
 30
 0
 11
22.33100
 21
28.89100
  0
LINE
  8
Bezugspunkte
 62
   1
 39
0.100
  6
CONTINUOUS
 10
21.33100
 20
27.89100
 30
 0
 11
21.33100
 21
29.89100
  0
LINE
  8
Bezugspunkte
 62
   1
 39
0.100
  6
CONTINUOUS
 10
65.82000
 20
50.69300
 30
 0
 11
67.82000
 21
50.69300
  0
LINE
  8
Bezugspunkte
 62
   1
 39
0.100
  6
CONTINUOUS
 10
66.82000
 20
49.69300
 30
 0
 11
66.82000
 21
51.69300
  0
LINE
  8
Bezugspunkte
 62
   1
 39
0.100
  6
CONTINUOUS
 10
65.12500
 20
28.42800
 30
 0
 11
67.12500
 21
28.42800
  0
LINE
  8
Bezugspunkte
 62
   1
 39
0.100
  6
CONTINUOUS
 10
66.12500
 20
27.42800
 30
 0
 11
66.12500
 21
29.42800
  0
LINE
  8
Bezugspunkte
 62
   1
 39
0.100
  6
CONTINUOUS
 10
84.96000
 20
149.83000
 30
 0
 11
86.96000
 21
149.83000
  0
LINE
  8
Bezugspunkte
 62
   1
 39
0.100
  6
CONTINUOUS
 10
85.96000
 20
148.83000
 30
 0
 11
85.96000
 21
150.83000
  0
LINE
  8
Bezugspunkte
 62
   1
 39
0.100
  6
CONTINUOUS
 10
66.05900
 20
60.05000
 30
 0
 11
68.05900
 21
60.05000
  0
LINE
  8
Bezugspunkte
 62
   1
 39
0.100
  6
CONTINUOUS
 10
67.05900
 20
59.05000
 30
 0
 11
67.05900
 21
61.05000
  0
LINE
  8
Bezugspunkte
 62
   1
 39
0.100
  6
CONTINUOUS
 10
65.36300
 20
40.01400
 30
 0
 11
67.36300
 21
40.01400
  0
LINE
  8
Bezugspunkte
 62
   1
 39
0.100
  6
CONTINUOUS
 10
66.36300
 20
39.01400
 30
 0
 11
66.36300
 21
41.01400
  0
LINE
  8
Bezugspunkte
 62
   1
 39
0.100
  6
CONTINUOUS
 10
19.63600
 20
60.05000
 30
 0
 11
21.63600
 21
60.05000
  0
LINE
  8
Bezugspunkte
 62
   1
 39
0.100
  6
CONTINUOUS
 10
20.63600
 20
59.05000
 30
 0
 11
20.63600
 21
61.05000
  0
LINE
  8
Bezugspunkte
 62
   1
 39
0.100
  6
CONTINUOUS
 10
20.40400
 20
40.37500
 30
 0
 11
22.40400
 21
40.37500
  0
LINE
  8
Bezugspunkte
 62
   1
 39
0.100
  6
CONTINUOUS
 10
21.40400
 20
39.37500
 30
 0
 11
21.40400
 21
41.37500
  0
LINE
  8
Bezugspunkte
 62
   1
 39
0.100
  6
CONTINUOUS
 10
153.11000
 20
210.88600
 30
 0
 11
155.11000
 21
210.88600
  0
LINE
  8
Bezugspunkte
 62
   1
 39
0.100
  6
CONTINUOUS
 10
154.11000
 20
209.88600
 30
 0
 11
154.11000
 21
211.88600
  0
LINE
  8
Bezugspunkte
 62
   1
 39
0.100
  6
CONTINUOUS
 10
108.02700
 20
202.05000
 30
 0
 11
110.02700
 21
202.05000
  0
LINE
  8
Bezugspunkte
 62
   1
 39
0.100
  6
CONTINUOUS
 10
109.02700
 20
201.05000
 30
 0
 11
109.02700
 21
203.05000
  0
LINE
  8
Bezugspunkte
 62
   1
 39
0.100
  6
CONTINUOUS
 10
108.02500
 20
210.88600
 30
 0
 11
110.02500
 21
210.88600
  0
LINE
  8
Bezugspunkte
 62
   1
 39
0.100
  6
CONTINUOUS
 10
109.02500
 20
209.88600
 30
 0
 11
109.02500
 21
211.88600
  0
LINE
  8
Bezugspunkte
 62
   1
 39
0.100
  6
CONTINUOUS
 10
108.02500
 20
186.67000
 30
 0
 11
110.02500
 21
186.67000
  0
LINE
  8
Bezugspunkte
 62
   1
 39
0.100
  6
CONTINUOUS
 10
109.02500
 20
185.67000
 30
 0
 11
109.02500
 21
187.67000
  0
LINE
  8
Bezugspunkte
 62
   1
 39
0.100
  6
CONTINUOUS
 10
107.99900
 20
51.00900
 30
 0
 11
109.99900
 21
51.00900
  0
LINE
  8
Bezugspunkte
 62
   1
 39
0.100
  6
CONTINUOUS
 10
108.99900
 20
50.00900
 30
 0
 11
108.99900
 21
52.00900
  0
LINE
  8
Bezugspunkte
 62
   1
 39
0.100
  6
CONTINUOUS
 10
108.00000
 20
28.04700
 30
 0
 11
110.00000
 21
28.04700
  0
LINE
  8
Bezugspunkte
 62
   1
 39
0.100
  6
CONTINUOUS
 10
109.00000
 20
27.04700
 30
 0
 11
109.00000
 21
29.04700
  0
LINE
  8
Bezugspunkte
 62
   1
 39
0.100
  6
CONTINUOUS
 10
138.89200
 20
50.54500
 30
 0
 11
140.89200
 21
50.54500
  0
LINE
  8
Bezugspunkte
 62
   1
 39
0.100
  6
CONTINUOUS
 10
139.89200
 20
49.54500
 30
 0
 11
139.89200
 21
51.54500
  0
LINE
  8
Bezugspunkte
 62
   1
 39
0.100
  6
CONTINUOUS
 10
139.66000
 20
28.05000
 30
 0
 11
141.66000
 21
28.05000
  0
LINE
  8
Bezugspunkte
 62
   1
 39
0.100
  6
CONTINUOUS
 10
140.66000
 20
27.05000
 30
 0
 11
140.66000
 21
29.05000
  0
LINE
  8
Bezugspunkte
 62
   1
 39
0.100
  6
CONTINUOUS
 10
152.93500
 20
136.48600
 30
 0
 11
154.93500
 21
136.48600
  0
LINE
  8
Bezugspunkte
 62
   1
 39
0.100
  6
CONTINUOUS
 10
153.93500
 20
135.48600
 30
 0
 11
153.93500
 21
137.48600
  0
LINE
  8
Bezugspunkte
 62
   1
 39
0.100
  6
CONTINUOUS
 10
139.00000
 20
60.04500
 30
 0
 11
141.00000
 21
60.04500
  0
LINE
  8
Bezugspunkte
 62
   1
 39
0.100
  6
CONTINUOUS
 10
140.00000
 20
59.04500
 30
 0
 11
140.00000
 21
61.04500
  0
LINE
  8
Bezugspunkte
 62
   1
 39
0.100
  6
CONTINUOUS
 10
140.75200
 20
39.17000
 30
 0
 11
142.75200
 21
39.17000
  0
LINE
  8
Bezugspunkte
 62
   1
 39
0.100
  6
CONTINUOUS
 10
141.75200
 20
38.17000
 30
 0
 11
141.75200
 21
40.17000
  0
LINE
  8
Bezugspunkte
 62
   1
 39
0.100
  6
CONTINUOUS
 10
107.30500
 20
60.05000
 30
 0
 11
109.30500
 21
60.05000
  0
LINE
  8
Bezugspunkte
 62
   1
 39
0.100
  6
CONTINUOUS
 10
108.30500
 20
59.05000
 30
 0
 11
108.30500
 21
61.05000
  0
LINE
  8
Bezugspunkte
 62
   1
 39
0.100
  6
CONTINUOUS
 10
108.76800
 20
39.99400
 30
 0
 11
110.76800
 21
39.99400
  0
LINE
  8
Bezugspunkte
 62
   1
 39
0.100
  6
CONTINUOUS
 10
109.76800
 20
38.99400
 30
 0
 11
109.76800
 21
40.99400
  0
LINE
  8
Bezugspunkte
 62
   1
 39
0.100
  6
CONTINUOUS
 10
161.00000
 20
119.45000
 30
 0
 11
163.00000
 21
119.45000
  0
LINE
  8
Bezugspunkte
 62
   1
 39
0.100
  6
CONTINUOUS
 10
162.00000
 20
118.45000
 30
 0
 11
162.00000
 21
120.45000
  0
LINE
  8
Bezugspunkte
 62
   1
 39
0.100
  6
CONTINUOUS
 10
161.00000
 20
131.13200
 30
 0
 11
163.00000
 21
131.13200
  0
LINE
  8
Bezugspunkte
 62
   1
 39
0.100
  6
CONTINUOUS
 10
162.00000
 20
130.13200
 30
 0
 11
162.00000
 21
132.13200
  0
LINE
  8
Bezugspunkte
 62
   1
 39
0.100
  6
CONTINUOUS
 10
65.79100
 20
159.04200
 30
 0
 11
67.79100
 21
159.04200
  0
LINE
  8
Bezugspunkte
 62
   1
 39
0.100
  6
CONTINUOUS
 10
66.79100
 20
158.04200
 30
 0
 11
66.79100
 21
160.04200
  0
LINE
  8
Bezugspunkte
 62
   1
 39
0.100
  6
CONTINUOUS
 10
66.18400
 20
142.50000
 30
 0
 11
68.18400
 21
142.50000
  0
LINE
  8
Bezugspunkte
 62
   1
 39
0.100
  6
CONTINUOUS
 10
67.18400
 20
141.50000
 30
 0
 11
67.18400
 21
143.50000
  0
LINE
  8
Bezugspunkte
 62
   1
 39
0.100
  6
CONTINUOUS
 10
66.18200
 20
128.37400
 30
 0
 11
68.18200
 21
128.37400
  0
LINE
  8
Bezugspunkte
 62
   1
 39
0.100
  6
CONTINUOUS
 10
67.18200
 20
127.37400
 30
 0
 11
67.18200
 21
129.37400
  0
LINE
  8
Bezugspunkte
 62
   1
 39
0.100
  6
CONTINUOUS
 10
161.00000
 20
109.43600
 30
 0
 11
163.00000
 21
109.43600
  0
LINE
  8
Bezugspunkte
 62
   1
 39
0.100
  6
CONTINUOUS
 10
162.00000
 20
108.43600
 30
 0
 11
162.00000
 21
110.43600
  0
LINE
  8
Bezugspunkte
 62
   1
 39
0.100
  6
CONTINUOUS
 10
161.00000
 20
148.29400
 30
 0
 11
163.00000
 21
148.29400
  0
LINE
  8
Bezugspunkte
 62
   1
 39
0.100
  6
CONTINUOUS
 10
162.00000
 20
147.29400
 30
 0
 11
162.00000
 21
149.29400
  0
LINE
  8
Bezugspunkte
 62
   1
 39
0.100
  6
CONTINUOUS
 10
154.78400
 20
160.20700
 30
 0
 11
156.78400
 21
160.20700
  0
LINE
  8
Bezugspunkte
 62
   1
 39
0.100
  6
CONTINUOUS
 10
155.78400
 20
159.20700
 30
 0
 11
155.78400
 21
161.20700
  0
LINE
  8
Bezugspunkte
 62
   1
 39
0.100
  6
CONTINUOUS
 10
155.14900
 20
139.29500
 30
 0
 11
157.14900
 21
139.29500
  0
LINE
  8
Bezugspunkte
 62
   1
 39
0.100
  6
CONTINUOUS
 10
156.14900
 20
138.29500
 30
 0
 11
156.14900
 21
140.29500
  0
LINE
  8
Bezugspunkte
 62
   1
 39
0.100
  6
CONTINUOUS
 10
66.40700
 20
92.90000
 30
 0
 11
68.40700
 21
92.90000
  0
LINE
  8
Bezugspunkte
 62
   1
 39
0.100
  6
CONTINUOUS
 10
67.40700
 20
91.90000
 30
 0
 11
67.40700
 21
93.90000
  0
LINE
  8
Bezugspunkte
 62
   1
 39
0.100
  6
CONTINUOUS
 10
66.40400
 20
101.23600
 30
 0
 11
68.40400
 21
101.23600
  0
LINE
  8
Bezugspunkte
 62
   1
 39
0.100
  6
CONTINUOUS
 10
67.40400
 20
100.23600
 30
 0
 11
67.40400
 21
102.23600
  0
LINE
  8
Bezugspunkte
 62
   1
 39
0.100
  6
CONTINUOUS
 10
66.40400
 20
80.00000
 30
 0
 11
68.40400
 21
80.00000
  0
LINE
  8
Bezugspunkte
 62
   1
 39
0.100
  6
CONTINUOUS
 10
67.40400
 20
79.00000
 30
 0
 11
67.40400
 21
81.00000
  0
LINE
  8
Bezugspunkte
 62
   1
 39
0.100
  6
CONTINUOUS
 10
21.32100
 20
92.90000
 30
 0
 11
23.32100
 21
92.90000
  0
LINE
  8
Bezugspunkte
 62
   1
 39
0.100
  6
CONTINUOUS
 10
22.32100
 20
91.90000
 30
 0
 11
22.32100
 21
93.90000
  0
LINE
  8
Bezugspunkte
 62
   1
 39
0.100
  6
CONTINUOUS
 10
21.31900
 20
101.23600
 30
 0
 11
23.31900
 21
101.23600
  0
LINE
  8
Bezugspunkte
 62
   1
 39
0.100
  6
CONTINUOUS
 10
22.31900
 20
100.23600
 30
 0
 11
22.31900
 21
102.23600
  0
LINE
  8
Bezugspunkte
 62
   1
 39
0.100
  6
CONTINUOUS
 10
21.31900
 20
80.00000
 30
 0
 11
23.31900
 21
80.00000
  0
LINE
  8
Bezugspunkte
 62
   1
 39
0.100
  6
CONTINUOUS
 10
22.31900
 20
79.00000
 30
 0
 11
22.31900
 21
81.00000
  0
LINE
  8
Bezugspunkte
 62
   1
 39
0.100
  6
CONTINUOUS
 10
151.34000
 20
93.21500
 30
 0
 11
153.34000
 21
93.21500
  0
LINE
  8
Bezugspunkte
 62
   1
 39
0.100
  6
CONTINUOUS
 10
152.34000
 20
92.21500
 30
 0
 11
152.34000
 21
94.21500
  0
LINE
  8
Bezugspunkte
 62
   1
 39
0.100
  6
CONTINUOUS
 10
151.34000
 20
101.55100
 30
 0
 11
153.34000
 21
101.55100
  0
LINE
  8
Bezugspunkte
 62
   1
 39
0.100
  6
CONTINUOUS
 10
152.34000
 20
100.55100
 30
 0
 11
152.34000
 21
102.55100
  0
LINE
  8
Bezugspunkte
 62
   1
 39
0.100
  6
CONTINUOUS
 10
151.34000
 20
80.00000
 30
 0
 11
153.34000
 21
80.00000
  0
LINE
  8
Bezugspunkte
 62
   1
 39
0.100
  6
CONTINUOUS
 10
152.34000
 20
79.00000
 30
 0
 11
152.34000
 21
81.00000
  0
LINE
  8
Bezugspunkte
 62
   1
 39
0.100
  6
CONTINUOUS
 10
108.75900
 20
93.21500
 30
 0
 11
110.75900
 21
93.21500
  0
LINE
  8
Bezugspunkte
 62
   1
 39
0.100
  6
CONTINUOUS
 10
109.75900
 20
92.21500
 30
 0
 11
109.75900
 21
94.21500
  0
LINE
  8
Bezugspunkte
 62
   1
 39
0.100
  6
CONTINUOUS
 10
108.75700
 20
101.55100
 30
 0
 11
110.75700
 21
101.55100
  0
LINE
  8
Bezugspunkte
 62
   1
 39
0.100
  6
CONTINUOUS
 10
109.75700
 20
100.55100
 30
 0
 11
109.75700
 21
102.55100
  0
LINE
  8
Bezugspunkte
 62
   1
 39
0.100
  6
CONTINUOUS
 10
108.75700
 20
80.00000
 30
 0
 11
110.75700
 21
80.00000
  0
LINE
  8
Bezugspunkte
 62
   1
 39
0.100
  6
CONTINUOUS
 10
109.75700
 20
79.00000
 30
 0
 11
109.75700
 21
81.00000
  0
LINE
  8
Bezugspunkte
 62
   1
 39
0.100
  6
CONTINUOUS
 10
130.92400
 20
122.20000
 30
 0
 11
132.92400
 21
122.20000
  0
LINE
  8
Bezugspunkte
 62
   1
 39
0.100
  6
CONTINUOUS
 10
131.92400
 20
121.20000
 30
 0
 11
131.92400
 21
123.20000
  0
LINE
  8
Bezugspunkte
 62
   1
 39
0.100
  6
CONTINUOUS
 10
107.76800
 20
159.31000
 30
 0
 11
109.76800
 21
159.31000
  0
LINE
  8
Bezugspunkte
 62
   1
 39
0.100
  6
CONTINUOUS
 10
108.76800
 20
158.31000
 30
 0
 11
108.76800
 21
160.31000
  0
LINE
  8
Bezugspunkte
 62
   1
 39
0.100
  6
CONTINUOUS
 10
108.16100
 20
142.50000
 30
 0
 11
110.16100
 21
142.50000
  0
LINE
  8
Bezugspunkte
 62
   1
 39
0.100
  6
CONTINUOUS
 10
109.16100
 20
141.50000
 30
 0
 11
109.16100
 21
143.50000
  0
LINE
  8
Bezugspunkte
 62
   1
 39
0.100
  6
CONTINUOUS
 10
108.15900
 20
128.64200
 30
 0
 11
110.15900
 21
128.64200
  0
LINE
  8
Bezugspunkte
 62
   1
 39
0.100
  6
CONTINUOUS
 10
109.15900
 20
127.64200
 30
 0
 11
109.15900
 21
129.64200
  0
LINE
  8
Bezugspunkte
 62
   1
 39
0.100
  6
CONTINUOUS
 10
166.85800
 20
216.63200
 30
 0
 11
168.85800
 21
216.63200
  0
LINE
  8
Bezugspunkte
 62
   1
 39
0.100
  6
CONTINUOUS
 10
167.85800
 20
215.63200
 30
 0
 11
167.85800
 21
217.63200
  0
LINE
  8
Bezugspunkte
 62
   1
 39
0.100
  6
CONTINUOUS
 10
166.86000
 20
6.35000
 30
 0
 11
168.86000
 21
6.35000
  0
LINE
  8
Bezugspunkte
 62
   1
 39
0.100
  6
CONTINUOUS
 10
167.86000
 20
5.35000
 30
 0
 11
167.86000
 21
7.35000
  0
LINE
  8
Bezugspunkte
 62
   1
 39
0.100
  6
CONTINUOUS
 10
161.40300
 20
43.37700
 30
 0
 11
163.40300
 21
43.37700
  0
LINE
  8
Bezugspunkte
 62
   1
 39
0.100
  6
CONTINUOUS
 10
162.40300
 20
42.37700
 30
 0
 11
162.40300
 21
44.37700
  0
LINE
  8
Bezugspunkte
 62
   1
 39
0.100
  6
CONTINUOUS
 10
160.71600
 20
52.43400
 30
 0
 11
162.71600
 21
52.43400
  0
LINE
  8
Bezugspunkte
 62
   1
 39
0.100
  6
CONTINUOUS
 10
161.71600
 20
51.43400
 30
 0
 11
161.71600
 21
53.43400
  0
LINE
  8
Bezugspunkte
 62
   1
 39
0.100
  6
CONTINUOUS
 10
136.35100
 20
159.68300
 30
 0
 11
138.35100
 21
159.68300
  0
LINE
  8
Bezugspunkte
 62
   1
 39
0.100
  6
CONTINUOUS
 10
137.35100
 20
158.68300
 30
 0
 11
137.35100
 21
160.68300
  0
LINE
  8
Bezugspunkte
 62
   1
 39
0.100
  6
CONTINUOUS
 10
138.89000
 20
148.57500
 30
 0
 11
140.89000
 21
148.57500
  0
LINE
  8
Bezugspunkte
 62
   1
 39
0.100
  6
CONTINUOUS
 10
139.89000
 20
147.57500
 30
 0
 11
139.89000
 21
149.57500
  0
LINE
  8
Bezugspunkte
 62
   1
 39
0.100
  6
CONTINUOUS
 10
137.54600
 20
131.21800
 30
 0
 11
139.54600
 21
131.21800
  0
LINE
  8
Bezugspunkte
 62
   1
 39
0.100
  6
CONTINUOUS
 10
138.54600
 20
130.21800
 30
 0
 11
138.54600
 21
132.21800
  0
LINE
  8
Bezugspunkte
 62
   1
 39
0.100
  6
CONTINUOUS
 10
138.89000
 20
119.87900
 30
 0
 11
140.89000
 21
119.87900
  0
LINE
  8
Bezugspunkte
 62
   1
 39
0.100
  6
CONTINUOUS
 10
139.89000
 20
118.87900
 30
 0
 11
139.89000
 21
120.87900
  0
LINE
  8
Bezugspunkte
 62
   1
 39
0.100
  6
CONTINUOUS
 10
151.52700
 20
202.05000
 30
 0
 11
153.52700
 21
202.05000
  0
LINE
  8
Bezugspunkte
 62
   1
 39
0.100
  6
CONTINUOUS
 10
152.52700
 20
201.05000
 30
 0
 11
152.52700
 21
203.05000
  0
LINE
  8
Bezugspunkte
 62
   1
 39
0.100
  6
CONTINUOUS
 10
151.34000
 20
186.67000
 30
 0
 11
153.34000
 21
186.67000
  0
LINE
  8
Bezugspunkte
 62
   1
 39
0.100
  6
CONTINUOUS
 10
152.34000
 20
185.67000
 30
 0
 11
152.34000
 21
187.67000
  0
LINE
  8
Bezugspunkte
 62
   1
 39
0.100
  6
CONTINUOUS
 10
120.95000
 20
216.15400
 30
 0
 11
122.95000
 21
216.15400
  0
LINE
  8
Bezugspunkte
 62
   1
 39
0.100
  6
CONTINUOUS
 10
121.95000
 20
215.15400
 30
 0
 11
121.95000
 21
217.15400
  0
LINE
  8
Bezugspunkte
 62
   1
 39
0.100
  6
CONTINUOUS
 10
81.55000
 20
100.90000
 30
 0
 11
83.55000
 21
100.90000
  0
LINE
  8
Bezugspunkte
 62
   1
 39
0.100
  6
CONTINUOUS
 10
82.55000
 20
99.90000
 30
 0
 11
82.55000
 21
101.90000
  0
LINE
  8
Bezugspunkte
 62
   1
 39
0.100
  6
CONTINUOUS
 10
5.35000
 20
100.90000
 30
 0
 11
7.35000
 21
100.90000
  0
LINE
  8
Bezugspunkte
 62
   1
 39
0.100
  6
CONTINUOUS
 10
6.35000
 20
99.90000
 30
 0
 11
6.35000
 21
101.90000
  0
LINE
  8
Bezugspunkte
 62
   1
 39
0.100
  6
CONTINUOUS
 10
166.86000
 20
101.63200
 30
 0
 11
168.86000
 21
101.63200
  0
LINE
  8
Bezugspunkte
 62
   1
 39
0.100
  6
CONTINUOUS
 10
167.86000
 20
100.63200
 30
 0
 11
167.86000
 21
102.63200
  0
ENDSEC
  0
EOF
