solid OpenSCAD_Model
  facet normal 1 -0 0
    outer loop
      vertex 3.5 -2.5 0.65
      vertex 3.5 1.5 -0.65
      vertex 3.5 1.5 0.65
    endloop
  endfacet
  facet normal 1 0 0
    outer loop
      vertex 3.5 1.5 -0.65
      vertex 3.5 -2.5 0.65
      vertex 3.5 -2.5 -0.65
    endloop
  endfacet
  facet normal 0 0 1
    outer loop
      vertex -0.9 1.5 0.65
      vertex -1.5 -0.5 0.65
      vertex -0.9 -0.5 0.65
    endloop
  endfacet
  facet normal -0 0 1
    outer loop
      vertex -3.5 1.5 0.65
      vertex -1.5 -0.5 0.65
      vertex -0.9 1.5 0.65
    endloop
  endfacet
  facet normal 0 0 1
    outer loop
      vertex -3.5 -2.5 0.65
      vertex -1.5 -0.5 0.65
      vertex -3.5 1.5 0.65
    endloop
  endfacet
  facet normal 0 0 1
    outer loop
      vertex -1.5 -0.5 0.65
      vertex -3.5 -2.5 0.65
      vertex -1.5 -2.5 0.65
    endloop
  endfacet
  facet normal 0 0 1
    outer loop
      vertex 3.5 1.5 0.65
      vertex 1.5 -0.5 0.65
      vertex 3.5 -2.5 0.65
    endloop
  endfacet
  facet normal -0 0 1
    outer loop
      vertex 0.9 1.5 0.65
      vertex 1.5 -0.5 0.65
      vertex 3.5 1.5 0.65
    endloop
  endfacet
  facet normal 0 0 1
    outer loop
      vertex 1.5 -0.5 0.65
      vertex 0.9 1.5 0.65
      vertex 0.9 -0.5 0.65
    endloop
  endfacet
  facet normal 0 0 1
    outer loop
      vertex 3.5 -2.5 0.65
      vertex 1.5 -0.5 0.65
      vertex 1.5 -2.5 0.65
    endloop
  endfacet
  facet normal 0 0 -1
    outer loop
      vertex 1.5 -0.5 -0.65
      vertex 3.5 -2.5 -0.65
      vertex 1.5 -2.5 -0.65
    endloop
  endfacet
  facet normal 0 0 -1
    outer loop
      vertex 3.5 -2.5 -0.65
      vertex 1.5 -0.5 -0.65
      vertex 3.5 1.5 -0.65
    endloop
  endfacet
  facet normal 0 0 -1
    outer loop
      vertex 0.9 1.5 -0.65
      vertex 1.5 -0.5 -0.65
      vertex 0.9 -0.5 -0.65
    endloop
  endfacet
  facet normal 0 0 -1
    outer loop
      vertex 1.5 -0.5 -0.65
      vertex 0.9 1.5 -0.65
      vertex 3.5 1.5 -0.65
    endloop
  endfacet
  facet normal 0 0 -1
    outer loop
      vertex -1.5 -2.5 -0.65
      vertex -3.5 -2.5 -0.65
      vertex -1.5 -0.5 -0.65
    endloop
  endfacet
  facet normal 0 0 -1
    outer loop
      vertex -1.5 -0.5 -0.65
      vertex -0.9 1.5 -0.65
      vertex -0.9 -0.5 -0.65
    endloop
  endfacet
  facet normal 0 0 -1
    outer loop
      vertex -3.5 1.5 -0.65
      vertex -1.5 -0.5 -0.65
      vertex -3.5 -2.5 -0.65
    endloop
  endfacet
  facet normal 0 0 -1
    outer loop
      vertex -1.5 -0.5 -0.65
      vertex -3.5 1.5 -0.65
      vertex -0.9 1.5 -0.65
    endloop
  endfacet
  facet normal -1 0 0
    outer loop
      vertex -3.5 -2.5 -0.65
      vertex -3.5 1.5 0.65
      vertex -3.5 1.5 -0.65
    endloop
  endfacet
  facet normal -1 -0 0
    outer loop
      vertex -3.5 1.5 0.65
      vertex -3.5 -2.5 -0.65
      vertex -3.5 -2.5 0.65
    endloop
  endfacet
  facet normal 0 1 -0
    outer loop
      vertex -0.9 1.5 -0.65
      vertex -3.5 1.5 0.65
      vertex -0.9 1.5 0.65
    endloop
  endfacet
  facet normal 0 1 0
    outer loop
      vertex -3.5 1.5 0.65
      vertex -0.9 1.5 -0.65
      vertex -3.5 1.5 -0.65
    endloop
  endfacet
  facet normal 0 1 -0
    outer loop
      vertex 3.5 1.5 -0.65
      vertex 0.9 1.5 0.65
      vertex 3.5 1.5 0.65
    endloop
  endfacet
  facet normal 0 1 0
    outer loop
      vertex 0.9 1.5 0.65
      vertex 3.5 1.5 -0.65
      vertex 0.9 1.5 -0.65
    endloop
  endfacet
  facet normal 0 -1 0
    outer loop
      vertex -3.5 -2.5 -0.65
      vertex -1.5 -2.5 0.65
      vertex -3.5 -2.5 0.65
    endloop
  endfacet
  facet normal 0 -1 -0
    outer loop
      vertex -1.5 -2.5 0.65
      vertex -3.5 -2.5 -0.65
      vertex -1.5 -2.5 -0.65
    endloop
  endfacet
  facet normal 0 -1 0
    outer loop
      vertex 1.5 -2.5 -0.65
      vertex 3.5 -2.5 0.65
      vertex 1.5 -2.5 0.65
    endloop
  endfacet
  facet normal 0 -1 -0
    outer loop
      vertex 3.5 -2.5 0.65
      vertex 1.5 -2.5 -0.65
      vertex 3.5 -2.5 -0.65
    endloop
  endfacet
  facet normal -1 0 0
    outer loop
      vertex 1.5 -2.5 -0.65
      vertex 1.5 -0.5 0.65
      vertex 1.5 -0.5 -0.65
    endloop
  endfacet
  facet normal -1 -0 0
    outer loop
      vertex 1.5 -0.5 0.65
      vertex 1.5 -2.5 -0.65
      vertex 1.5 -2.5 0.65
    endloop
  endfacet
  facet normal 1 -0 0
    outer loop
      vertex -1.5 -2.5 0.65
      vertex -1.5 -0.5 -0.65
      vertex -1.5 -0.5 0.65
    endloop
  endfacet
  facet normal 1 0 0
    outer loop
      vertex -1.5 -0.5 -0.65
      vertex -1.5 -2.5 0.65
      vertex -1.5 -2.5 -0.65
    endloop
  endfacet
  facet normal 0 -1 0
    outer loop
      vertex -0.9 -0.5 -1
      vertex 0.9 -0.5 -0.65
      vertex -0.9 -0.5 -0.65
    endloop
  endfacet
  facet normal 0 -1 -0
    outer loop
      vertex 0.9 -0.5 -0.65
      vertex -0.9 -0.5 -1
      vertex 0.9 -0.5 -1
    endloop
  endfacet
  facet normal 0 -1 0
    outer loop
      vertex -0.9 -0.5 -0.65
      vertex -0.9 -0.5 0.65
      vertex -1.5 -0.5 0.65
    endloop
  endfacet
  facet normal 0 -1 0
    outer loop
      vertex -0.9 -0.5 0.65
      vertex -0.9 -0.5 -0.65
      vertex 0.9 -0.5 0.65
    endloop
  endfacet
  facet normal 0 -1 0
    outer loop
      vertex -0.9 -0.5 -0.65
      vertex -1.5 -0.5 0.65
      vertex -1.5 -0.5 -0.65
    endloop
  endfacet
  facet normal 0 -1 0
    outer loop
      vertex 0.9 -0.5 -0.65
      vertex 0.9 -0.5 0.65
      vertex -0.9 -0.5 -0.65
    endloop
  endfacet
  facet normal 0 -1 0
    outer loop
      vertex 0.9 -0.5 0.65
      vertex 0.9 -0.5 -0.65
      vertex 1.5 -0.5 0.65
    endloop
  endfacet
  facet normal 0 -1 -0
    outer loop
      vertex 1.5 -0.5 0.65
      vertex 0.9 -0.5 -0.65
      vertex 1.5 -0.5 -0.65
    endloop
  endfacet
  facet normal 0 -1 0
    outer loop
      vertex -0.9 -0.5 0.65
      vertex 0.9 -0.5 1.5
      vertex -0.9 -0.5 1.5
    endloop
  endfacet
  facet normal 0 -1 -0
    outer loop
      vertex 0.9 -0.5 1.5
      vertex -0.9 -0.5 0.65
      vertex 0.9 -0.5 0.65
    endloop
  endfacet
  facet normal 1 0 0
    outer loop
      vertex 0.9 5.05 3
      vertex 0.9 1.5 0.65
      vertex 0.9 5.05 -1
    endloop
  endfacet
  facet normal 1 0 0
    outer loop
      vertex 0.9 5.05 3
      vertex 0.9 -0.5 1.5
      vertex 0.9 1.5 0.65
    endloop
  endfacet
  facet normal 1 -0 0
    outer loop
      vertex 0.9 -2.45 3
      vertex 0.9 -0.5 1.5
      vertex 0.9 5.05 3
    endloop
  endfacet
  facet normal 1 0 0
    outer loop
      vertex 0.9 -0.5 1.5
      vertex 0.9 -2.45 3
      vertex 0.9 -2.45 1.5
    endloop
  endfacet
  facet normal 1 -0 0
    outer loop
      vertex 0.9 1.5 -0.65
      vertex 0.9 5.05 -1
      vertex 0.9 1.5 0.65
    endloop
  endfacet
  facet normal 1 0 0
    outer loop
      vertex 0.9 -0.5 -1
      vertex 0.9 1.5 -0.65
      vertex 0.9 -0.5 -0.65
    endloop
  endfacet
  facet normal 1 0 0
    outer loop
      vertex 0.9 1.5 -0.65
      vertex 0.9 -0.5 -1
      vertex 0.9 5.05 -1
    endloop
  endfacet
  facet normal 1 0 0
    outer loop
      vertex 0.9 1.5 0.65
      vertex 0.9 -0.5 1.5
      vertex 0.9 -0.5 0.65
    endloop
  endfacet
  facet normal -0 0 1
    outer loop
      vertex -0.9 5.05 3
      vertex 0.9 -2.45 3
      vertex 0.9 5.05 3
    endloop
  endfacet
  facet normal 0 0 1
    outer loop
      vertex 0.9 -2.45 3
      vertex -0.9 5.05 3
      vertex -0.9 -2.45 3
    endloop
  endfacet
  facet normal 0 0 -1
    outer loop
      vertex -0.9 -0.5 -1
      vertex 0.9 5.05 -1
      vertex 0.9 -0.5 -1
    endloop
  endfacet
  facet normal -0 0 -1
    outer loop
      vertex 0.9 5.05 -1
      vertex -0.9 -0.5 -1
      vertex -0.9 5.05 -1
    endloop
  endfacet
  facet normal -1 0 0
    outer loop
      vertex -0.9 1.5 0.65
      vertex -0.9 5.05 -1
      vertex -0.9 1.5 -0.65
    endloop
  endfacet
  facet normal -1 0 0
    outer loop
      vertex -0.9 -0.5 -1
      vertex -0.9 1.5 -0.65
      vertex -0.9 5.05 -1
    endloop
  endfacet
  facet normal -1 -0 0
    outer loop
      vertex -0.9 1.5 -0.65
      vertex -0.9 -0.5 -1
      vertex -0.9 -0.5 -0.65
    endloop
  endfacet
  facet normal -1 0 0
    outer loop
      vertex -0.9 5.05 -1
      vertex -0.9 1.5 0.65
      vertex -0.9 5.05 3
    endloop
  endfacet
  facet normal -1 0 0
    outer loop
      vertex -0.9 -0.5 1.5
      vertex -0.9 1.5 0.65
      vertex -0.9 -0.5 0.65
    endloop
  endfacet
  facet normal -1 0 0
    outer loop
      vertex -0.9 1.5 0.65
      vertex -0.9 -0.5 1.5
      vertex -0.9 5.05 3
    endloop
  endfacet
  facet normal -1 0 0
    outer loop
      vertex -0.9 -2.45 3
      vertex -0.9 -0.5 1.5
      vertex -0.9 -2.45 1.5
    endloop
  endfacet
  facet normal -1 0 0
    outer loop
      vertex -0.9 -0.5 1.5
      vertex -0.9 -2.45 3
      vertex -0.9 5.05 3
    endloop
  endfacet
  facet normal 0 1 -0
    outer loop
      vertex 0.9 5.05 -1
      vertex -0.9 5.05 3
      vertex 0.9 5.05 3
    endloop
  endfacet
  facet normal 0 1 0
    outer loop
      vertex -0.9 5.05 3
      vertex 0.9 5.05 -1
      vertex -0.9 5.05 -1
    endloop
  endfacet
  facet normal 0 -1 0
    outer loop
      vertex -0.9 -2.45 1.5
      vertex 0.9 -2.45 3
      vertex -0.9 -2.45 3
    endloop
  endfacet
  facet normal 0 -1 -0
    outer loop
      vertex 0.9 -2.45 3
      vertex -0.9 -2.45 1.5
      vertex 0.9 -2.45 1.5
    endloop
  endfacet
  facet normal 0 0 -1
    outer loop
      vertex -0.9 -2.45 1.5
      vertex 0.9 -0.5 1.5
      vertex 0.9 -2.45 1.5
    endloop
  endfacet
  facet normal -0 0 -1
    outer loop
      vertex 0.9 -0.5 1.5
      vertex -0.9 -2.45 1.5
      vertex -0.9 -0.5 1.5
    endloop
  endfacet
endsolid OpenSCAD_Model
